{"glyphs":{"0":{"ha":842,"x_min":0,"x_max":0,"o":"m 422 -16 b 781 490 650 -16 781 181 b 422 995 781 798 649 995 b 61 490 195 995 61 796 b 422 -16 61 180 193 -16 z m 422 90 b 184 490 269 90 184 246 b 422 888 184 729 271 888 b 659 490 573 888 659 730 b 422 90 659 245 574 90 z "},"1":{"ha":616,"x_min":0,"x_max":0,"o":"m 329 0 l 447 0 l 447 979 l 328 979 l 67 791 l 67 663 l 326 849 l 329 849 z "},"2":{"ha":786,"x_min":0,"x_max":0,"o":"m 73 696 l 73 696 l 191 696 l 191 696 b 393 888 191 806 278 888 b 587 719 500 888 587 813 b 424 447 587 637 555 585 l 79 84 l 79 0 l 725 0 l 725 109 l 248 109 l 248 111 l 496 367 b 709 726 659 536 709 617 b 396 995 709 876 571 995 b 73 696 212 995 73 867 z "},"3":{"ha":822,"x_min":0,"x_max":0,"o":"m 279 452 l 401 452 b 628 265 541 452 628 380 b 406 90 628 163 535 90 b 180 259 274 90 191 159 l 62 259 b 407 -16 71 97 202 -16 b 752 269 599 -16 752 101 b 509 507 752 407 657 498 l 509 510 b 710 743 631 532 710 620 b 403 995 710 890 578 995 b 82 722 219 995 96 888 l 199 722 b 397 889 210 825 285 889 b 587 726 522 889 587 823 b 396 555 587 627 509 555 l 279 555 z "},"4":{"ha":840,"x_min":0,"x_max":0,"o":"m 545 0 l 663 0 l 663 203 l 801 203 l 801 311 l 663 311 l 663 979 l 482 979 b 53 314 251 647 136 469 l 53 203 l 545 203 z m 174 313 b 543 877 251 449 357 612 l 545 877 l 545 311 l 174 311 z "},"5":{"ha":812,"x_min":0,"x_max":0,"o":"m 416 -16 b 764 318 620 -16 764 121 b 441 646 764 508 629 646 b 222 551 347 646 266 610 l 219 551 l 249 870 l 709 870 l 709 979 l 149 979 l 95 431 l 210 431 b 419 541 250 499 328 541 b 642 315 549 541 642 446 b 417 91 642 183 550 91 b 200 267 300 91 211 163 l 80 267 b 416 -16 90 100 229 -16 z "},"6":{"ha":831,"x_min":0,"x_max":0,"o":"m 433 -17 b 780 317 634 -17 780 124 b 455 641 780 503 642 641 b 182 482 334 641 226 578 b 180 482 182 482 180 482 b 440 888 184 743 277 888 b 642 742 537 888 616 831 l 766 742 b 441 996 735 896 608 996 b 62 473 202 996 62 802 b 110 203 62 367 77 279 b 433 -17 170 62 287 -17 z m 432 92 b 209 317 307 92 209 191 b 434 534 209 441 304 534 b 656 313 564 534 656 441 b 432 92 656 190 557 92 z "},"7":{"ha":760,"x_min":0,"x_max":0,"o":"m 136 0 l 264 0 l 699 865 l 699 979 l 52 979 l 52 870 l 578 870 l 578 867 z "},"8":{"ha":832,"x_min":0,"x_max":0,"o":"m 416 -16 b 771 264 623 -16 771 100 b 560 516 771 386 687 486 l 560 519 b 731 737 667 553 731 635 b 416 995 731 886 599 995 b 100 738 234 995 100 886 b 271 519 100 635 165 551 l 271 516 b 61 264 145 487 61 387 b 416 -16 61 101 209 -16 z m 416 90 b 185 273 281 90 185 167 b 416 457 185 380 281 457 b 646 273 551 457 646 381 b 416 90 646 167 551 90 z m 416 564 b 221 726 301 564 221 631 b 416 890 221 822 301 890 b 610 726 530 890 610 823 b 416 564 610 631 530 564 z "},"9":{"ha":831,"x_min":0,"x_max":0,"o":"m 391 -16 b 770 506 630 -16 770 176 b 722 776 770 612 754 701 b 398 996 662 916 545 996 b 52 661 197 996 52 854 b 376 338 52 475 190 338 b 650 498 501 338 608 401 b 650 498 650 498 650 498 b 651 498 650 498 650 498 b 652 498 651 498 652 498 b 392 90 648 238 555 90 b 190 237 295 90 216 149 l 66 237 b 391 -16 96 84 224 -16 z m 397 445 b 175 665 269 445 175 538 b 399 886 175 788 274 886 b 623 662 526 886 623 787 b 397 445 623 537 527 445 z "}," ":{"ha":285,"x_min":0,"x_max":0,"o":""},"A":{"ha":876,"x_min":0,"x_max":0,"o":"m 731 0 l 859 0 l 498 979 l 378 979 l 17 0 l 145 0 l 243 280 l 633 280 z m 436 830 l 440 830 l 597 384 l 279 384 z "},"À":{"ha":876,"x_min":0,"x_max":0,"o":"m 731 0 l 859 0 l 498 979 l 378 979 l 17 0 l 145 0 l 243 280 l 633 280 z m 436 830 l 440 830 l 597 384 l 279 384 z m 377 1058 l 481 1058 l 332 1254 l 201 1254 z "},"Á":{"ha":876,"x_min":0,"x_max":0,"o":"m 731 0 l 859 0 l 498 979 l 378 979 l 17 0 l 145 0 l 243 280 l 633 280 z m 436 830 l 440 830 l 597 384 l 279 384 z m 499 1058 l 675 1254 l 544 1254 l 395 1058 z "},"Ä":{"ha":876,"x_min":0,"x_max":0,"o":"m 731 0 l 859 0 l 498 979 l 378 979 l 17 0 l 145 0 l 243 280 l 633 280 z m 436 830 l 440 830 l 597 384 l 279 384 z m 312 1088 b 387 1162 353 1088 387 1121 b 312 1237 387 1204 353 1237 b 237 1162 271 1237 237 1204 b 312 1088 237 1121 271 1088 z m 564 1088 b 639 1162 605 1088 639 1121 b 564 1237 639 1204 605 1237 b 490 1162 524 1237 490 1204 b 564 1088 490 1121 524 1088 z "},"Ǟ":{"ha":876,"x_min":0,"x_max":0,"o":"m 731 0 l 859 0 l 498 979 l 378 979 l 17 0 l 145 0 l 243 280 l 633 280 z m 436 830 l 440 830 l 597 384 l 279 384 z m 318 1198 b 247 1126 279 1198 247 1166 b 318 1054 247 1086 279 1054 b 389 1126 357 1054 389 1086 b 318 1198 389 1166 357 1198 z m 223 1373 l 223 1295 l 653 1295 l 653 1373 z m 558 1198 b 488 1126 519 1198 488 1166 b 558 1054 488 1086 519 1054 b 629 1126 597 1054 629 1086 b 558 1198 629 1166 597 1198 z "},"Å":{"ha":876,"x_min":0,"x_max":0,"o":"m 731 0 l 859 0 l 498 979 l 378 979 l 17 0 l 145 0 l 243 280 l 633 280 z m 436 830 l 440 830 l 597 384 l 279 384 z m 438 1028 b 568 1158 509 1028 568 1086 b 438 1287 568 1229 509 1287 b 309 1158 367 1287 309 1229 b 438 1028 309 1086 367 1028 z m 438 1088 b 368 1158 399 1088 368 1119 b 438 1227 368 1196 399 1227 b 508 1158 477 1227 508 1196 b 438 1088 508 1119 477 1088 z "},"Ǻ":{"ha":876,"x_min":0,"x_max":0,"o":"m 731 0 l 859 0 l 498 979 l 378 979 l 17 0 l 145 0 l 243 280 l 633 280 z m 436 830 l 440 830 l 597 384 l 279 384 z m 438 1010 b 564 1136 507 1010 564 1067 b 438 1261 564 1205 507 1261 b 313 1136 369 1261 313 1205 b 438 1010 313 1067 369 1010 z m 438 1067 b 370 1136 400 1067 370 1098 b 438 1204 370 1174 400 1204 b 507 1136 476 1204 507 1174 b 438 1067 507 1098 476 1067 z m 480 1421 l 393 1295 l 487 1295 l 586 1421 z "},"Ã":{"ha":876,"x_min":0,"x_max":0,"o":"m 731 0 l 859 0 l 498 979 l 378 979 l 17 0 l 145 0 l 243 280 l 633 280 z m 436 830 l 440 830 l 597 384 l 279 384 z m 527 1072 b 654 1245 601 1072 654 1137 l 574 1245 b 528 1148 574 1180 556 1148 b 351 1251 477 1148 446 1251 b 222 1078 273 1251 222 1190 l 302 1078 b 350 1175 299 1141 319 1175 b 527 1072 404 1175 437 1072 z "},"Ằ":{"ha":876,"x_min":0,"x_max":0,"o":"m 731 0 l 859 0 l 498 979 l 378 979 l 17 0 l 145 0 l 243 280 l 633 280 z m 436 830 l 440 830 l 597 384 l 279 384 z m 656 1235 l 570 1235 b 438 1121 562 1166 509 1121 b 307 1235 367 1121 314 1166 l 220 1235 b 438 1046 229 1124 315 1046 b 656 1235 562 1046 648 1124 z m 503 1241 l 389 1388 l 274 1388 l 404 1241 z "},"Ǡ":{"ha":876,"x_min":0,"x_max":0,"o":"m 731 0 l 859 0 l 498 979 l 378 979 l 17 0 l 145 0 l 243 280 l 633 280 z m 436 830 l 440 830 l 597 384 l 279 384 z m 438 1067 b 517 1147 482 1067 517 1103 b 438 1225 517 1190 482 1225 b 359 1147 394 1225 359 1190 b 438 1067 359 1103 394 1067 z m 653 1373 l 223 1373 l 223 1295 l 653 1295 z "},"Ḁ":{"ha":876,"x_min":0,"x_max":0,"o":"m 731 0 l 859 0 l 498 979 l 378 979 l 17 0 l 145 0 l 243 280 l 633 280 z m 436 830 l 440 830 l 597 384 l 279 384 z m 438 -319 b 568 -190 509 -319 568 -261 b 438 -60 568 -119 509 -60 b 309 -190 367 -60 309 -119 b 438 -319 309 -261 367 -319 z m 438 -260 b 368 -190 399 -260 368 -229 b 438 -120 368 -151 399 -120 b 508 -190 477 -120 508 -151 b 438 -260 508 -229 477 -260 z "},"Â":{"ha":876,"x_min":0,"x_max":0,"o":"m 731 0 l 859 0 l 498 979 l 378 979 l 17 0 l 145 0 l 243 280 l 633 280 z m 436 830 l 440 830 l 597 384 l 279 384 z m 393 1246 l 201 1044 l 313 1044 l 436 1175 l 440 1175 l 563 1044 l 675 1044 l 484 1246 z "},"Ậ":{"ha":876,"x_min":0,"x_max":0,"o":"m 731 0 l 859 0 l 498 979 l 378 979 l 17 0 l 145 0 l 243 280 l 633 280 z m 436 830 l 440 830 l 597 384 l 279 384 z m 393 1246 l 201 1044 l 313 1044 l 436 1175 l 440 1175 l 563 1044 l 675 1044 l 484 1246 z m 438 -264 b 520 -182 484 -264 520 -227 b 438 -100 520 -136 484 -100 b 356 -182 393 -100 356 -136 b 438 -264 356 -227 393 -264 z "},"Ấ":{"ha":876,"x_min":0,"x_max":0,"o":"m 731 0 l 859 0 l 498 979 l 378 979 l 17 0 l 145 0 l 243 280 l 633 280 z m 436 830 l 440 830 l 597 384 l 279 384 z m 387 1219 l 195 1044 l 313 1044 l 436 1158 l 440 1158 l 563 1044 l 681 1044 l 490 1219 z m 556 1241 l 655 1241 l 785 1388 l 670 1388 z "},"Ẫ":{"ha":876,"x_min":0,"x_max":0,"o":"m 731 0 l 859 0 l 498 979 l 378 979 l 17 0 l 145 0 l 243 280 l 633 280 z m 436 830 l 440 830 l 597 384 l 279 384 z m 519 1245 b 649 1385 595 1245 649 1306 l 570 1385 b 517 1316 566 1341 544 1316 b 357 1401 471 1316 449 1401 b 227 1261 276 1401 227 1342 l 307 1261 b 359 1333 309 1306 329 1333 b 519 1245 406 1333 427 1245 z m 387 1213 l 195 1044 l 313 1044 l 436 1153 l 440 1153 l 563 1044 l 681 1044 l 490 1213 z "},"Ầ":{"ha":876,"x_min":0,"x_max":0,"o":"m 731 0 l 859 0 l 498 979 l 378 979 l 17 0 l 145 0 l 243 280 l 633 280 z m 436 830 l 440 830 l 597 384 l 279 384 z m 387 1219 l 195 1044 l 313 1044 l 436 1158 l 440 1158 l 563 1044 l 681 1044 l 490 1219 z m 684 1241 l 570 1388 l 454 1388 l 585 1241 z "},"Ẩ":{"ha":876,"x_min":0,"x_max":0,"o":"m 731 0 l 859 0 l 498 979 l 378 979 l 17 0 l 145 0 l 243 280 l 633 280 z m 436 830 l 440 830 l 597 384 l 279 384 z m 387 1219 l 195 1044 l 313 1044 l 436 1158 l 440 1158 l 563 1044 l 681 1044 l 490 1219 z m 522 1319 b 581 1331 537 1326 557 1331 b 631 1289 610 1331 631 1312 b 578 1228 631 1263 610 1239 l 631 1187 b 708 1293 678 1202 708 1245 b 593 1392 708 1353 661 1392 b 522 1377 570 1392 542 1387 z "},"Ă":{"ha":876,"x_min":0,"x_max":0,"o":"m 731 0 l 859 0 l 498 979 l 378 979 l 17 0 l 145 0 l 243 280 l 633 280 z m 436 830 l 440 830 l 597 384 l 279 384 z m 220 1253 b 438 1046 229 1142 308 1046 b 656 1253 568 1046 647 1142 l 570 1253 b 438 1122 562 1171 509 1122 b 307 1253 367 1122 315 1171 z "},"Ắ":{"ha":876,"x_min":0,"x_max":0,"o":"m 731 0 l 859 0 l 498 979 l 378 979 l 17 0 l 145 0 l 243 280 l 633 280 z m 436 830 l 440 830 l 597 384 l 279 384 z m 220 1235 b 438 1046 229 1124 315 1046 b 656 1235 562 1046 648 1124 l 570 1235 b 438 1121 562 1166 509 1121 b 307 1235 367 1121 314 1166 z m 373 1241 l 472 1241 l 602 1388 l 487 1388 z "},"Ẵ":{"ha":876,"x_min":0,"x_max":0,"o":"m 731 0 l 859 0 l 498 979 l 378 979 l 17 0 l 145 0 l 243 280 l 633 280 z m 436 830 l 440 830 l 597 384 l 279 384 z m 220 1221 b 438 1046 229 1131 315 1046 b 656 1221 562 1046 648 1131 l 570 1221 b 438 1121 562 1168 509 1121 b 307 1221 367 1121 314 1168 z m 519 1245 b 649 1385 595 1245 649 1306 l 570 1385 b 517 1316 566 1341 544 1316 b 357 1401 471 1316 449 1401 b 227 1261 276 1401 227 1342 l 307 1261 b 359 1333 309 1306 329 1333 b 519 1245 406 1333 427 1245 z "},"Ẳ":{"ha":876,"x_min":0,"x_max":0,"o":"m 731 0 l 859 0 l 498 979 l 378 979 l 17 0 l 145 0 l 243 280 l 633 280 z m 436 830 l 440 830 l 597 384 l 279 384 z m 334 1358 b 399 1373 350 1367 376 1373 b 458 1324 432 1373 458 1352 b 397 1257 458 1295 433 1267 l 436 1202 b 541 1329 500 1225 541 1275 b 412 1441 541 1397 490 1441 b 334 1423 380 1441 351 1434 z m 220 1235 b 438 1046 229 1124 315 1046 b 656 1235 562 1046 648 1124 l 570 1235 b 438 1121 562 1166 509 1121 b 307 1235 367 1121 314 1166 z "},"Ặ":{"ha":876,"x_min":0,"x_max":0,"o":"m 731 0 l 859 0 l 498 979 l 378 979 l 17 0 l 145 0 l 243 280 l 633 280 z m 436 830 l 440 830 l 597 384 l 279 384 z m 220 1253 b 438 1046 229 1142 308 1046 b 656 1253 568 1046 647 1142 l 570 1253 b 438 1122 562 1171 509 1122 b 307 1253 367 1122 315 1171 z m 438 -264 b 520 -182 484 -264 520 -227 b 438 -100 520 -136 484 -100 b 356 -182 393 -100 356 -136 b 438 -264 356 -227 393 -264 z "},"Ȃ":{"ha":876,"x_min":0,"x_max":0,"o":"m 731 0 l 859 0 l 498 979 l 378 979 l 17 0 l 145 0 l 243 280 l 633 280 z m 436 830 l 440 830 l 597 384 l 279 384 z m 220 1046 l 307 1046 b 438 1177 315 1128 367 1177 b 570 1046 509 1177 562 1128 l 656 1046 b 438 1253 647 1157 568 1253 b 220 1046 308 1253 229 1157 z "},"Ǎ":{"ha":876,"x_min":0,"x_max":0,"o":"m 731 0 l 859 0 l 498 979 l 378 979 l 17 0 l 145 0 l 243 280 l 633 280 z m 436 830 l 440 830 l 597 384 l 279 384 z m 393 1051 l 484 1051 l 675 1253 l 563 1253 l 440 1123 l 436 1123 l 313 1253 l 201 1253 z "},"Ȧ":{"ha":876,"x_min":0,"x_max":0,"o":"m 731 0 l 859 0 l 498 979 l 378 979 l 17 0 l 145 0 l 243 280 l 633 280 z m 436 830 l 440 830 l 597 384 l 279 384 z m 438 1075 b 520 1157 484 1075 520 1112 b 438 1239 520 1202 484 1239 b 356 1157 393 1239 356 1202 b 438 1075 356 1112 393 1075 z "},"Ạ":{"ha":876,"x_min":0,"x_max":0,"o":"m 731 0 l 859 0 l 498 979 l 378 979 l 17 0 l 145 0 l 243 280 l 633 280 z m 436 830 l 440 830 l 597 384 l 279 384 z m 438 -264 b 520 -182 484 -264 520 -227 b 438 -100 520 -136 484 -100 b 356 -182 393 -100 356 -136 b 438 -264 356 -227 393 -264 z "},"Ả":{"ha":876,"x_min":0,"x_max":0,"o":"m 731 0 l 859 0 l 498 979 l 378 979 l 17 0 l 145 0 l 243 280 l 633 280 z m 436 830 l 440 830 l 597 384 l 279 384 z m 330 1189 b 397 1202 349 1198 375 1202 b 456 1156 431 1202 456 1181 b 395 1088 456 1126 432 1100 l 436 1036 b 544 1160 500 1057 544 1105 b 412 1269 544 1227 489 1269 b 330 1254 382 1269 353 1264 z "},"Ȁ":{"ha":876,"x_min":0,"x_max":0,"o":"m 731 0 l 859 0 l 498 979 l 378 979 l 17 0 l 145 0 l 243 280 l 633 280 z m 436 830 l 440 830 l 597 384 l 279 384 z m 486 1058 l 590 1058 l 441 1254 l 309 1254 z m 269 1058 l 373 1058 l 224 1254 l 92 1254 z "},"Ā":{"ha":876,"x_min":0,"x_max":0,"o":"m 731 0 l 859 0 l 498 979 l 378 979 l 17 0 l 145 0 l 243 280 l 633 280 z m 436 830 l 440 830 l 597 384 l 279 384 z m 653 1187 l 223 1187 l 223 1108 l 653 1108 z "},"Ą":{"ha":876,"x_min":0,"x_max":0,"o":"m 436 830 l 440 830 l 597 384 l 279 384 z m 849 -280 l 849 -198 b 794 -204 833 -201 813 -204 b 713 -138 750 -204 713 -182 b 852 -1 713 -92 760 -41 l 859 2 l 498 979 l 378 979 l 17 0 l 145 0 l 243 280 l 633 280 l 728 7 b 614 -164 644 -46 614 -104 b 769 -292 614 -241 681 -292 b 849 -280 806 -292 837 -286 z "},"B":{"ha":840,"x_min":0,"x_max":0,"o":"m 465 0 b 796 275 673 0 796 102 b 578 515 796 405 711 498 l 578 521 b 747 734 672 538 747 633 b 466 979 747 881 633 979 l 95 979 l 95 0 z m 217 871 l 438 871 b 623 720 557 871 623 817 b 400 557 623 614 545 557 l 217 557 z m 217 108 l 217 452 l 435 452 b 671 281 591 452 671 394 b 446 108 671 168 593 108 z "},"Ḇ":{"ha":840,"x_min":0,"x_max":0,"o":"m 465 0 b 796 275 673 0 796 102 b 578 515 796 405 711 498 l 578 521 b 747 734 672 538 747 633 b 466 979 747 881 633 979 l 95 979 l 95 0 z m 217 871 l 438 871 b 623 720 557 871 623 817 b 400 557 623 614 545 557 l 217 557 z m 217 108 l 217 452 l 435 452 b 671 281 591 452 671 394 b 446 108 671 168 593 108 z m 595 -147 l 165 -147 l 165 -226 l 595 -226 z "},"Ḅ":{"ha":840,"x_min":0,"x_max":0,"o":"m 465 0 b 796 275 673 0 796 102 b 578 515 796 405 711 498 l 578 521 b 747 734 672 538 747 633 b 466 979 747 881 633 979 l 95 979 l 95 0 z m 217 871 l 438 871 b 623 720 557 871 623 817 b 400 557 623 614 545 557 l 217 557 z m 217 108 l 217 452 l 435 452 b 671 281 591 452 671 394 b 446 108 671 168 593 108 z m 380 -264 b 463 -182 426 -264 463 -227 b 380 -100 463 -136 426 -100 b 298 -182 335 -100 298 -136 b 380 -264 298 -227 335 -264 z "},"Ḃ":{"ha":840,"x_min":0,"x_max":0,"o":"m 465 0 b 796 275 673 0 796 102 b 578 515 796 405 711 498 l 578 521 b 747 734 672 538 747 633 b 466 979 747 881 633 979 l 95 979 l 95 0 z m 217 871 l 438 871 b 623 720 557 871 623 817 b 400 557 623 614 545 557 l 217 557 z m 217 108 l 217 452 l 435 452 b 671 281 591 452 671 394 b 446 108 671 168 593 108 z m 380 1075 b 463 1157 426 1075 463 1112 b 380 1239 463 1202 426 1239 b 298 1157 335 1239 298 1202 b 380 1075 298 1112 335 1075 z "},"C":{"ha":953,"x_min":0,"x_max":0,"o":"m 498 -16 b 904 285 714 -16 859 92 l 781 285 b 498 96 745 165 642 96 b 182 490 305 96 182 250 b 498 882 182 728 307 882 b 781 670 637 882 749 798 l 904 670 b 498 995 873 865 711 995 b 57 490 230 995 57 797 b 498 -16 57 180 228 -16 z "},"Ć":{"ha":953,"x_min":0,"x_max":0,"o":"m 498 -16 b 904 285 714 -16 859 92 l 781 285 b 498 96 745 165 642 96 b 182 490 305 96 182 250 b 498 882 182 728 307 882 b 781 670 637 882 749 798 l 904 670 b 498 995 873 865 711 995 b 57 490 230 995 57 797 b 498 -16 57 180 228 -16 z m 559 1059 l 735 1255 l 604 1255 l 454 1059 z "},"Č":{"ha":953,"x_min":0,"x_max":0,"o":"m 498 -16 b 904 285 714 -16 859 92 l 781 285 b 498 96 745 165 642 96 b 182 490 305 96 182 250 b 498 882 182 728 307 882 b 781 670 637 882 749 798 l 904 670 b 498 995 873 865 711 995 b 57 490 230 995 57 797 b 498 -16 57 180 228 -16 z m 452 1053 l 543 1053 l 735 1255 l 623 1255 l 500 1124 l 496 1124 l 373 1255 l 260 1255 z "},"Ĉ":{"ha":953,"x_min":0,"x_max":0,"o":"m 498 -16 b 904 285 714 -16 859 92 l 781 285 b 498 96 745 165 642 96 b 182 490 305 96 182 250 b 498 882 182 728 307 882 b 781 670 637 882 749 798 l 904 670 b 498 995 873 865 711 995 b 57 490 230 995 57 797 b 498 -16 57 180 228 -16 z m 452 1248 l 260 1046 l 373 1046 l 496 1176 l 500 1176 l 623 1046 l 735 1046 l 543 1248 z "},"Ċ":{"ha":953,"x_min":0,"x_max":0,"o":"m 498 -16 b 904 285 714 -16 859 92 l 781 285 b 498 96 745 165 642 96 b 182 490 305 96 182 250 b 498 882 182 728 307 882 b 781 670 637 882 749 798 l 904 670 b 498 995 873 865 711 995 b 57 490 230 995 57 797 b 498 -16 57 180 228 -16 z m 498 1076 b 580 1158 543 1076 580 1113 b 498 1240 580 1204 543 1240 b 416 1158 452 1240 416 1204 b 498 1076 416 1113 452 1076 z "},"Ç":{"ha":953,"x_min":0,"x_max":0,"o":"m 904 670 b 498 995 873 865 711 995 b 57 490 230 995 57 797 b 460 -15 57 195 212 3 l 423 -108 l 423 -155 l 471 -155 b 570 -198 540 -155 570 -167 b 484 -247 570 -229 540 -247 b 399 -239 455 -247 414 -242 l 399 -308 b 500 -317 416 -313 461 -318 b 659 -197 589 -316 659 -274 b 514 -88 659 -127 602 -90 l 546 -14 b 904 285 736 1 863 106 l 781 285 b 498 96 745 165 642 96 b 182 490 305 96 182 250 b 498 882 182 728 307 882 b 781 670 637 882 749 798 z "},"Ḉ":{"ha":953,"x_min":0,"x_max":0,"o":"m 735 1255 l 604 1255 l 454 1059 l 559 1059 z m 904 670 b 498 995 873 865 711 995 b 57 490 230 995 57 797 b 460 -15 57 195 212 3 l 423 -108 l 423 -155 l 471 -155 b 570 -198 540 -155 570 -167 b 484 -247 570 -229 540 -247 b 399 -239 455 -247 414 -242 l 399 -308 b 500 -317 416 -313 461 -318 b 659 -197 589 -316 659 -274 b 514 -88 659 -127 602 -90 l 546 -14 b 904 285 736 1 863 106 l 781 285 b 498 96 745 165 642 96 b 182 490 305 96 182 250 b 498 882 182 728 307 882 b 781 670 637 882 749 798 z "},"D":{"ha":942,"x_min":0,"x_max":0,"o":"m 95 979 l 95 0 l 424 0 b 886 490 715 0 886 181 b 424 979 886 798 714 979 z m 217 869 l 416 869 b 761 488 638 869 761 733 b 416 110 761 245 637 110 l 217 110 z "},"Ḋ":{"ha":942,"x_min":0,"x_max":0,"o":"m 95 979 l 95 0 l 424 0 b 886 490 715 0 886 181 b 424 979 886 798 714 979 z m 217 869 l 416 869 b 761 488 638 869 761 733 b 416 110 761 245 637 110 l 217 110 z m 373 1075 b 455 1157 418 1075 455 1112 b 373 1239 455 1202 418 1239 b 291 1157 328 1239 291 1202 b 373 1075 291 1112 328 1075 z "},"Ḓ":{"ha":942,"x_min":0,"x_max":0,"o":"m 95 979 l 95 0 l 424 0 b 886 490 715 0 886 181 b 424 979 886 798 714 979 z m 217 869 l 416 869 b 761 488 638 869 761 733 b 416 110 761 245 637 110 l 217 110 z m 328 -86 l 136 -288 l 248 -288 l 371 -158 l 375 -158 l 498 -288 l 610 -288 l 418 -86 z "},"Ḑ":{"ha":942,"x_min":0,"x_max":0,"o":"m 95 979 l 95 0 l 424 0 b 886 490 715 0 886 181 b 424 979 886 798 714 979 z m 217 869 l 416 869 b 761 488 638 869 761 733 b 416 110 761 245 637 110 l 217 110 z m 354 -330 l 445 -86 l 342 -86 l 269 -330 z "},"Ḏ":{"ha":942,"x_min":0,"x_max":0,"o":"m 95 979 l 95 0 l 424 0 b 886 490 715 0 886 181 b 424 979 886 798 714 979 z m 217 869 l 416 869 b 761 488 638 869 761 733 b 416 110 761 245 637 110 l 217 110 z m 588 -147 l 158 -147 l 158 -226 l 588 -226 z "},"Ď":{"ha":942,"x_min":0,"x_max":0,"o":"m 95 979 l 95 0 l 424 0 b 886 490 715 0 886 181 b 424 979 886 798 714 979 z m 217 869 l 416 869 b 761 488 638 869 761 733 b 416 110 761 245 637 110 l 217 110 z m 328 1051 l 418 1051 l 610 1253 l 498 1253 l 375 1123 l 371 1123 l 248 1253 l 136 1253 z "},"Ḍ":{"ha":942,"x_min":0,"x_max":0,"o":"m 95 979 l 95 0 l 424 0 b 886 490 715 0 886 181 b 424 979 886 798 714 979 z m 217 869 l 416 869 b 761 488 638 869 761 733 b 416 110 761 245 637 110 l 217 110 z m 373 -264 b 455 -182 418 -264 455 -227 b 373 -100 455 -136 418 -100 b 291 -182 328 -100 291 -136 b 373 -264 291 -227 328 -264 z "},"Đ":{"ha":951,"x_min":0,"x_max":0,"o":"m 226 110 l 226 450 l 414 450 l 414 560 l 226 560 l 226 869 l 425 869 b 770 488 647 869 770 733 b 425 110 770 245 646 110 z m 104 979 l 104 560 l 16 560 l 16 450 l 104 450 l 104 0 l 433 0 b 895 490 724 0 895 181 b 433 979 895 798 723 979 z "},"E":{"ha":767,"x_min":0,"x_max":0,"o":"m 701 110 l 217 110 l 217 446 l 676 446 l 676 555 l 217 555 l 217 869 l 701 869 l 701 979 l 95 979 l 95 0 l 701 0 z "},"È":{"ha":767,"x_min":0,"x_max":0,"o":"m 701 110 l 217 110 l 217 446 l 676 446 l 676 555 l 217 555 l 217 869 l 701 869 l 701 979 l 95 979 l 95 0 l 701 0 z m 337 1058 l 441 1058 l 292 1254 l 161 1254 z "},"Ȅ":{"ha":767,"x_min":0,"x_max":0,"o":"m 701 110 l 217 110 l 217 446 l 676 446 l 676 555 l 217 555 l 217 869 l 701 869 l 701 979 l 95 979 l 95 0 l 701 0 z m 446 1058 l 550 1058 l 401 1254 l 269 1254 z m 229 1058 l 333 1058 l 184 1254 l 52 1254 z "},"É":{"ha":767,"x_min":0,"x_max":0,"o":"m 701 110 l 217 110 l 217 446 l 676 446 l 676 555 l 217 555 l 217 869 l 701 869 l 701 979 l 95 979 l 95 0 l 701 0 z m 459 1058 l 635 1254 l 504 1254 l 355 1058 z "},"Ê":{"ha":767,"x_min":0,"x_max":0,"o":"m 701 110 l 217 110 l 217 446 l 676 446 l 676 555 l 217 555 l 217 869 l 701 869 l 701 979 l 95 979 l 95 0 l 701 0 z m 353 1246 l 161 1044 l 273 1044 l 396 1175 l 400 1175 l 523 1044 l 635 1044 l 444 1246 z "},"Ể":{"ha":767,"x_min":0,"x_max":0,"o":"m 701 110 l 217 110 l 217 446 l 676 446 l 676 555 l 217 555 l 217 869 l 701 869 l 701 979 l 95 979 l 95 0 l 701 0 z m 347 1219 l 155 1044 l 273 1044 l 396 1158 l 400 1158 l 523 1044 l 641 1044 l 450 1219 z m 482 1319 b 541 1331 497 1326 517 1331 b 591 1289 570 1331 591 1312 b 538 1228 591 1263 570 1239 l 591 1187 b 668 1293 638 1202 668 1245 b 553 1392 668 1353 621 1392 b 482 1377 530 1392 502 1387 z "},"Ề":{"ha":767,"x_min":0,"x_max":0,"o":"m 701 110 l 217 110 l 217 446 l 676 446 l 676 555 l 217 555 l 217 869 l 701 869 l 701 979 l 95 979 l 95 0 l 701 0 z m 347 1219 l 155 1044 l 273 1044 l 396 1158 l 400 1158 l 523 1044 l 641 1044 l 450 1219 z m 644 1241 l 530 1388 l 414 1388 l 545 1241 z "},"Ễ":{"ha":767,"x_min":0,"x_max":0,"o":"m 701 110 l 217 110 l 217 446 l 676 446 l 676 555 l 217 555 l 217 869 l 701 869 l 701 979 l 95 979 l 95 0 l 701 0 z m 479 1245 b 609 1385 555 1245 609 1306 l 530 1385 b 477 1316 526 1341 504 1316 b 317 1401 431 1316 409 1401 b 187 1261 236 1401 187 1342 l 267 1261 b 319 1333 269 1306 289 1333 b 479 1245 366 1333 387 1245 z m 347 1213 l 155 1044 l 273 1044 l 396 1153 l 400 1153 l 523 1044 l 641 1044 l 450 1213 z "},"Ệ":{"ha":767,"x_min":0,"x_max":0,"o":"m 701 110 l 217 110 l 217 446 l 676 446 l 676 555 l 217 555 l 217 869 l 701 869 l 701 979 l 95 979 l 95 0 l 701 0 z m 353 1246 l 161 1044 l 273 1044 l 396 1175 l 400 1175 l 523 1044 l 635 1044 l 444 1246 z m 398 -264 b 480 -182 444 -264 480 -227 b 398 -100 480 -136 444 -100 b 316 -182 353 -100 316 -136 b 398 -264 316 -227 353 -264 z "},"Ế":{"ha":767,"x_min":0,"x_max":0,"o":"m 701 110 l 217 110 l 217 446 l 676 446 l 676 555 l 217 555 l 217 869 l 701 869 l 701 979 l 95 979 l 95 0 l 701 0 z m 347 1219 l 155 1044 l 273 1044 l 396 1158 l 400 1158 l 523 1044 l 641 1044 l 450 1219 z m 516 1241 l 615 1241 l 745 1388 l 630 1388 z "},"Ë":{"ha":767,"x_min":0,"x_max":0,"o":"m 701 110 l 217 110 l 217 446 l 676 446 l 676 555 l 217 555 l 217 869 l 701 869 l 701 979 l 95 979 l 95 0 l 701 0 z m 272 1088 b 347 1162 313 1088 347 1121 b 272 1237 347 1204 313 1237 b 197 1162 231 1237 197 1204 b 272 1088 197 1121 231 1088 z m 524 1088 b 599 1162 565 1088 599 1121 b 524 1237 599 1204 565 1237 b 450 1162 484 1237 450 1204 b 524 1088 450 1121 484 1088 z "},"Ẹ":{"ha":767,"x_min":0,"x_max":0,"o":"m 701 110 l 217 110 l 217 446 l 676 446 l 676 555 l 217 555 l 217 869 l 701 869 l 701 979 l 95 979 l 95 0 l 701 0 z m 398 -264 b 480 -182 444 -264 480 -227 b 398 -100 480 -136 444 -100 b 316 -182 353 -100 316 -136 b 398 -264 316 -227 353 -264 z "},"Ȇ":{"ha":767,"x_min":0,"x_max":0,"o":"m 701 110 l 217 110 l 217 446 l 676 446 l 676 555 l 217 555 l 217 869 l 701 869 l 701 979 l 95 979 l 95 0 l 701 0 z m 180 1046 l 267 1046 b 398 1177 275 1128 327 1177 b 530 1046 469 1177 522 1128 l 616 1046 b 398 1253 607 1157 528 1253 b 180 1046 268 1253 189 1157 z "},"Ẻ":{"ha":767,"x_min":0,"x_max":0,"o":"m 701 110 l 217 110 l 217 446 l 676 446 l 676 555 l 217 555 l 217 869 l 701 869 l 701 979 l 95 979 l 95 0 l 701 0 z m 290 1189 b 357 1202 309 1198 335 1202 b 416 1156 391 1202 416 1181 b 355 1088 416 1126 392 1100 l 396 1036 b 504 1160 460 1057 504 1105 b 372 1269 504 1227 449 1269 b 290 1254 342 1269 313 1264 z "},"Ě":{"ha":767,"x_min":0,"x_max":0,"o":"m 701 110 l 217 110 l 217 446 l 676 446 l 676 555 l 217 555 l 217 869 l 701 869 l 701 979 l 95 979 l 95 0 l 701 0 z m 353 1051 l 444 1051 l 635 1253 l 523 1253 l 400 1123 l 396 1123 l 273 1253 l 161 1253 z "},"Ē":{"ha":767,"x_min":0,"x_max":0,"o":"m 701 110 l 217 110 l 217 446 l 676 446 l 676 555 l 217 555 l 217 869 l 701 869 l 701 979 l 95 979 l 95 0 l 701 0 z m 613 1187 l 183 1187 l 183 1108 l 613 1108 z "},"Ḕ":{"ha":767,"x_min":0,"x_max":0,"o":"m 701 110 l 217 110 l 217 446 l 676 446 l 676 555 l 217 555 l 217 869 l 701 869 l 701 979 l 95 979 l 95 0 l 701 0 z m 183 1080 l 613 1080 l 613 1158 l 183 1158 z m 447 1241 l 333 1388 l 218 1388 l 348 1241 z "},"Ḗ":{"ha":767,"x_min":0,"x_max":0,"o":"m 701 110 l 217 110 l 217 446 l 676 446 l 676 555 l 217 555 l 217 869 l 701 869 l 701 979 l 95 979 l 95 0 l 701 0 z m 613 1080 l 613 1158 l 183 1158 l 183 1080 z m 353 1241 l 452 1241 l 583 1388 l 467 1388 z "},"Ẽ":{"ha":767,"x_min":0,"x_max":0,"o":"m 701 110 l 217 110 l 217 446 l 676 446 l 676 555 l 217 555 l 217 869 l 701 869 l 701 979 l 95 979 l 95 0 l 701 0 z m 487 1072 b 614 1245 561 1072 614 1137 l 534 1245 b 488 1148 534 1180 516 1148 b 311 1251 437 1148 406 1251 b 182 1078 233 1251 182 1190 l 262 1078 b 310 1175 259 1141 279 1175 b 487 1072 363 1175 397 1072 z "},"Ḙ":{"ha":767,"x_min":0,"x_max":0,"o":"m 701 110 l 217 110 l 217 446 l 676 446 l 676 555 l 217 555 l 217 869 l 701 869 l 701 979 l 95 979 l 95 0 l 701 0 z m 353 -86 l 161 -288 l 273 -288 l 396 -158 l 400 -158 l 523 -288 l 635 -288 l 444 -86 z "},"Ĕ":{"ha":767,"x_min":0,"x_max":0,"o":"m 701 110 l 217 110 l 217 446 l 676 446 l 676 555 l 217 555 l 217 869 l 701 869 l 701 979 l 95 979 l 95 0 l 701 0 z m 180 1253 b 398 1046 189 1142 268 1046 b 616 1253 528 1046 607 1142 l 530 1253 b 398 1122 522 1171 469 1122 b 267 1253 327 1122 275 1171 z "},"Ḛ":{"ha":767,"x_min":0,"x_max":0,"o":"m 701 110 l 217 110 l 217 446 l 676 446 l 676 555 l 217 555 l 217 869 l 701 869 l 701 979 l 95 979 l 95 0 l 701 0 z m 487 -233 b 614 -60 561 -233 614 -168 l 534 -60 b 488 -157 534 -125 516 -157 b 311 -54 437 -157 406 -54 b 182 -227 233 -54 182 -115 l 262 -227 b 310 -130 259 -163 279 -130 b 487 -233 363 -130 397 -233 z "},"Ė":{"ha":767,"x_min":0,"x_max":0,"o":"m 701 110 l 217 110 l 217 446 l 676 446 l 676 555 l 217 555 l 217 869 l 701 869 l 701 979 l 95 979 l 95 0 l 701 0 z m 398 1075 b 480 1157 444 1075 480 1112 b 398 1239 480 1202 444 1239 b 316 1157 353 1239 316 1202 b 398 1075 316 1112 353 1075 z "},"Ȩ":{"ha":767,"x_min":0,"x_max":0,"o":"m 701 869 l 701 979 l 95 979 l 95 0 l 366 0 l 323 -108 l 323 -155 l 371 -155 b 470 -198 440 -155 470 -167 b 384 -247 470 -229 440 -247 b 299 -239 355 -247 314 -242 l 299 -308 b 401 -317 317 -313 361 -318 b 559 -197 489 -316 559 -274 b 414 -88 559 -127 503 -90 l 452 0 l 701 0 l 701 110 l 217 110 l 217 446 l 676 446 l 676 555 l 217 555 l 217 869 z "},"Ḝ":{"ha":767,"x_min":0,"x_max":0,"o":"m 530 1253 b 398 1122 522 1171 469 1122 b 267 1253 327 1122 275 1171 l 180 1253 b 398 1046 189 1142 268 1046 b 616 1253 528 1046 607 1142 z m 701 869 l 701 979 l 95 979 l 95 0 l 366 0 l 323 -108 l 323 -155 l 371 -155 b 470 -198 440 -155 470 -167 b 384 -247 470 -229 440 -247 b 299 -239 355 -247 314 -242 l 299 -308 b 401 -317 317 -313 361 -318 b 559 -197 489 -316 559 -274 b 414 -88 559 -127 503 -90 l 452 0 l 701 0 l 701 110 l 217 110 l 217 446 l 676 446 l 676 555 l 217 555 l 217 869 z "},"Ę":{"ha":767,"x_min":0,"x_max":0,"o":"m 95 0 l 536 0 l 536 -3 b 438 -164 472 -52 438 -104 b 593 -292 438 -241 505 -292 b 673 -280 630 -292 661 -286 l 673 -198 b 618 -204 656 -201 637 -204 b 537 -138 574 -204 537 -182 b 688 4 537 -91 590 -35 l 701 9 l 701 110 l 217 110 l 217 446 l 676 446 l 676 555 l 217 555 l 217 869 l 701 869 l 701 979 l 95 979 z "},"F":{"ha":733,"x_min":0,"x_max":0,"o":"m 217 0 l 217 424 l 650 424 l 650 532 l 217 532 l 217 869 l 689 869 l 689 979 l 95 979 l 95 0 z "},"Ḟ":{"ha":733,"x_min":0,"x_max":0,"o":"m 217 0 l 217 424 l 650 424 l 650 532 l 217 532 l 217 869 l 689 869 l 689 979 l 95 979 l 95 0 z m 392 1075 b 474 1157 437 1075 474 1112 b 392 1239 474 1202 437 1239 b 310 1157 347 1239 310 1202 b 392 1075 310 1112 347 1075 z "},"G":{"ha":981,"x_min":0,"x_max":0,"o":"m 920 405 l 920 498 l 522 498 l 522 391 l 798 391 l 798 373 b 505 96 798 209 679 96 b 182 495 306 96 182 249 b 505 882 182 737 304 882 b 786 675 643 882 745 807 l 914 675 b 505 995 878 869 717 995 b 57 494 231 995 57 800 b 505 -16 57 183 232 -16 b 920 405 766 -16 920 140 z "},"Ǵ":{"ha":981,"x_min":0,"x_max":0,"o":"m 920 405 l 920 498 l 522 498 l 522 391 l 798 391 l 798 373 b 505 96 798 209 679 96 b 182 495 306 96 182 249 b 505 882 182 737 304 882 b 786 675 643 882 745 807 l 914 675 b 505 995 878 869 717 995 b 57 494 231 995 57 800 b 505 -16 57 183 232 -16 b 920 405 766 -16 920 140 z m 566 1058 l 743 1254 l 611 1254 l 462 1058 z "},"Ǧ":{"ha":981,"x_min":0,"x_max":0,"o":"m 920 405 l 920 498 l 522 498 l 522 391 l 798 391 l 798 373 b 505 96 798 209 679 96 b 182 495 306 96 182 249 b 505 882 182 737 304 882 b 786 675 643 882 745 807 l 914 675 b 505 995 878 869 717 995 b 57 494 231 995 57 800 b 505 -16 57 183 232 -16 b 920 405 766 -16 920 140 z m 460 1051 l 551 1051 l 743 1253 l 630 1253 l 507 1123 l 503 1123 l 380 1253 l 268 1253 z "},"Ĝ":{"ha":981,"x_min":0,"x_max":0,"o":"m 920 405 l 920 498 l 522 498 l 522 391 l 798 391 l 798 373 b 505 96 798 209 679 96 b 182 495 306 96 182 249 b 505 882 182 737 304 882 b 786 675 643 882 745 807 l 914 675 b 505 995 878 869 717 995 b 57 494 231 995 57 800 b 505 -16 57 183 232 -16 b 920 405 766 -16 920 140 z m 460 1246 l 268 1044 l 380 1044 l 503 1175 l 507 1175 l 630 1044 l 743 1044 l 551 1246 z "},"Ğ":{"ha":981,"x_min":0,"x_max":0,"o":"m 920 405 l 920 498 l 522 498 l 522 391 l 798 391 l 798 373 b 505 96 798 209 679 96 b 182 495 306 96 182 249 b 505 882 182 737 304 882 b 786 675 643 882 745 807 l 914 675 b 505 995 878 869 717 995 b 57 494 231 995 57 800 b 505 -16 57 183 232 -16 b 920 405 766 -16 920 140 z m 288 1253 b 505 1046 296 1142 375 1046 b 723 1253 635 1046 714 1142 l 637 1253 b 505 1122 629 1171 576 1122 b 374 1253 434 1122 382 1171 z "},"Ḡ":{"ha":981,"x_min":0,"x_max":0,"o":"m 920 405 l 920 498 l 522 498 l 522 391 l 798 391 l 798 373 b 505 96 798 209 679 96 b 182 495 306 96 182 249 b 505 882 182 737 304 882 b 786 675 643 882 745 807 l 914 675 b 505 995 878 869 717 995 b 57 494 231 995 57 800 b 505 -16 57 183 232 -16 b 920 405 766 -16 920 140 z m 720 1187 l 290 1187 l 290 1108 l 720 1108 z "},"Ġ":{"ha":981,"x_min":0,"x_max":0,"o":"m 920 405 l 920 498 l 522 498 l 522 391 l 798 391 l 798 373 b 505 96 798 209 679 96 b 182 495 306 96 182 249 b 505 882 182 737 304 882 b 786 675 643 882 745 807 l 914 675 b 505 995 878 869 717 995 b 57 494 231 995 57 800 b 505 -16 57 183 232 -16 b 920 405 766 -16 920 140 z m 505 1075 b 587 1157 551 1075 587 1112 b 505 1239 587 1202 551 1239 b 423 1157 460 1239 423 1202 b 505 1075 423 1112 460 1075 z "},"Ģ":{"ha":981,"x_min":0,"x_max":0,"o":"m 920 405 l 920 498 l 522 498 l 522 391 l 798 391 l 798 373 b 505 96 798 209 679 96 b 182 495 306 96 182 249 b 505 882 182 737 304 882 b 786 675 643 882 745 807 l 914 675 b 505 995 878 869 717 995 b 57 494 231 995 57 800 b 505 -16 57 183 232 -16 b 920 405 766 -16 920 140 z m 486 -330 l 577 -86 l 474 -86 l 401 -330 z "},"H":{"ha":971,"x_min":0,"x_max":0,"o":"m 876 0 l 876 979 l 754 979 l 754 555 l 217 555 l 217 979 l 95 979 l 95 0 l 217 0 l 217 446 l 754 446 l 754 0 z "},"Ḧ":{"ha":971,"x_min":0,"x_max":0,"o":"m 876 0 l 876 979 l 754 979 l 754 555 l 217 555 l 217 979 l 95 979 l 95 0 l 217 0 l 217 446 l 754 446 l 754 0 z m 359 1088 b 434 1162 400 1088 434 1121 b 359 1237 434 1204 400 1237 b 285 1162 319 1237 285 1204 b 359 1088 285 1121 319 1088 z m 612 1088 b 686 1162 652 1088 686 1121 b 612 1237 686 1204 652 1237 b 537 1162 571 1237 537 1204 b 612 1088 537 1121 571 1088 z "},"Ȟ":{"ha":971,"x_min":0,"x_max":0,"o":"m 876 0 l 876 979 l 754 979 l 754 555 l 217 555 l 217 979 l 95 979 l 95 0 l 217 0 l 217 446 l 754 446 l 754 0 z m 440 1051 l 531 1051 l 723 1253 l 610 1253 l 488 1123 l 484 1123 l 361 1253 l 248 1253 z "},"Ĥ":{"ha":971,"x_min":0,"x_max":0,"o":"m 876 0 l 876 979 l 754 979 l 754 555 l 217 555 l 217 979 l 95 979 l 95 0 l 217 0 l 217 446 l 754 446 l 754 0 z m 440 1246 l 248 1044 l 361 1044 l 484 1175 l 488 1175 l 610 1044 l 723 1044 l 531 1246 z "},"Ḥ":{"ha":971,"x_min":0,"x_max":0,"o":"m 876 0 l 876 979 l 754 979 l 754 555 l 217 555 l 217 979 l 95 979 l 95 0 l 217 0 l 217 446 l 754 446 l 754 0 z m 486 -264 b 568 -182 531 -264 568 -227 b 486 -100 568 -136 531 -100 b 404 -182 440 -100 404 -136 b 486 -264 404 -227 440 -264 z "},"Ḣ":{"ha":971,"x_min":0,"x_max":0,"o":"m 876 0 l 876 979 l 754 979 l 754 555 l 217 555 l 217 979 l 95 979 l 95 0 l 217 0 l 217 446 l 754 446 l 754 0 z m 486 1075 b 568 1157 531 1075 568 1112 b 486 1239 568 1202 531 1239 b 404 1157 440 1239 404 1202 b 486 1075 404 1112 440 1075 z "},"Ḫ":{"ha":971,"x_min":0,"x_max":0,"o":"m 876 0 l 876 979 l 754 979 l 754 555 l 217 555 l 217 979 l 95 979 l 95 0 l 217 0 l 217 446 l 754 446 l 754 0 z m 268 -68 b 486 -275 277 -179 355 -275 b 703 -68 616 -275 694 -179 l 617 -68 b 486 -199 609 -150 557 -199 b 354 -68 414 -199 362 -150 z "},"Ḩ":{"ha":971,"x_min":0,"x_max":0,"o":"m 754 979 l 754 555 l 217 555 l 217 979 l 95 979 l 95 0 l 131 0 l 88 -108 l 88 -155 l 136 -155 b 235 -198 205 -155 235 -167 b 149 -247 235 -229 205 -247 b 64 -239 120 -247 79 -242 l 64 -308 b 165 -317 81 -313 126 -318 b 324 -197 254 -316 324 -274 b 179 -88 324 -127 267 -90 l 217 0 l 217 5 l 217 446 l 754 446 l 754 0 l 876 0 l 876 979 z "},"Ħ":{"ha":971,"x_min":0,"x_max":0,"o":"m 754 555 l 217 555 l 217 729 l 754 729 z m 968 826 l 876 826 l 876 979 l 754 979 l 754 826 l 217 826 l 217 979 l 95 979 l 95 826 l 3 826 l 3 729 l 95 729 l 95 0 l 217 0 l 217 446 l 754 446 l 754 0 l 876 0 l 876 729 l 968 729 z "},"I":{"ha":312,"x_min":0,"x_max":0,"o":"m 217 0 l 217 979 l 95 979 l 95 0 z "},"İ":{"ha":312,"x_min":0,"x_max":0,"o":"m 217 0 l 217 979 l 95 979 l 95 0 z m 156 1075 b 238 1157 201 1075 238 1112 b 156 1239 238 1202 201 1239 b 74 1157 111 1239 74 1202 b 156 1075 74 1112 111 1075 z "},"Ì":{"ha":312,"x_min":0,"x_max":0,"o":"m 217 0 l 217 979 l 95 979 l 95 0 z m 95 1058 l 199 1058 l 50 1254 l -81 1254 z "},"Ȉ":{"ha":312,"x_min":0,"x_max":0,"o":"m 217 0 l 217 979 l 95 979 l 95 0 z m 203 1058 l 308 1058 l 159 1254 l 27 1254 z m -14 1058 l 91 1058 l -58 1254 l -190 1254 z "},"Í":{"ha":312,"x_min":0,"x_max":0,"o":"m 217 0 l 217 979 l 95 979 l 95 0 z m 217 1058 l 393 1254 l 262 1254 l 113 1058 z "},"Î":{"ha":312,"x_min":0,"x_max":0,"o":"m 217 0 l 217 979 l 95 979 l 95 0 z m 111 1246 l -81 1044 l 31 1044 l 154 1175 l 158 1175 l 281 1044 l 393 1044 l 201 1246 z "},"Ǐ":{"ha":312,"x_min":0,"x_max":0,"o":"m 217 0 l 217 979 l 95 979 l 95 0 z m 111 1051 l 201 1051 l 393 1253 l 281 1253 l 158 1123 l 154 1123 l 31 1253 l -81 1253 z "},"Ï":{"ha":312,"x_min":0,"x_max":0,"o":"m 217 0 l 217 979 l 95 979 l 95 0 z m 30 1088 b 104 1162 71 1088 104 1121 b 30 1237 104 1204 71 1237 b -45 1162 -11 1237 -45 1204 b 30 1088 -45 1121 -11 1088 z m 282 1088 b 357 1162 323 1088 357 1121 b 282 1237 357 1204 323 1237 b 208 1162 241 1237 208 1204 b 282 1088 208 1121 241 1088 z "},"Ḯ":{"ha":312,"x_min":0,"x_max":0,"o":"m 217 0 l 217 979 l 95 979 l 95 0 z m 100 1241 l 199 1241 l 330 1388 l 214 1388 z m 36 1054 b 106 1126 75 1054 106 1086 b 36 1198 106 1166 75 1198 b -35 1126 -3 1198 -35 1166 b 36 1054 -35 1086 -3 1054 z m 276 1054 b 347 1126 315 1054 347 1086 b 276 1198 347 1166 315 1198 b 205 1126 237 1198 205 1166 b 276 1054 205 1086 237 1054 z "},"Ĭ":{"ha":312,"x_min":0,"x_max":0,"o":"m 217 0 l 217 979 l 95 979 l 95 0 z m -62 1253 b 156 1046 -53 1142 26 1046 b 374 1253 286 1046 365 1142 l 288 1253 b 156 1122 279 1171 227 1122 b 24 1253 85 1122 33 1171 z "},"Ị":{"ha":312,"x_min":0,"x_max":0,"o":"m 217 0 l 217 979 l 95 979 l 95 0 z m 156 -264 b 238 -182 201 -264 238 -227 b 156 -100 238 -136 201 -100 b 74 -182 111 -100 74 -136 b 156 -264 74 -227 111 -264 z "},"Ȋ":{"ha":312,"x_min":0,"x_max":0,"o":"m 217 0 l 217 979 l 95 979 l 95 0 z m -62 1046 l 24 1046 b 156 1177 33 1128 85 1177 b 288 1046 227 1177 279 1128 l 374 1046 b 156 1253 365 1157 286 1253 b -62 1046 26 1253 -53 1157 z "},"Ī":{"ha":312,"x_min":0,"x_max":0,"o":"m 217 0 l 217 979 l 95 979 l 95 0 z m 371 1187 l -59 1187 l -59 1108 l 371 1108 z "},"Ḭ":{"ha":312,"x_min":0,"x_max":0,"o":"m 217 0 l 217 979 l 95 979 l 95 0 z m 245 -233 b 372 -60 319 -233 372 -168 l 292 -60 b 245 -157 292 -125 274 -157 b 68 -54 195 -157 164 -54 b -60 -227 -9 -54 -60 -115 l 20 -227 b 68 -130 17 -163 37 -130 b 245 -233 121 -130 155 -233 z "},"Ỉ":{"ha":312,"x_min":0,"x_max":0,"o":"m 217 0 l 217 979 l 95 979 l 95 0 z m 47 1189 b 115 1202 67 1198 93 1202 b 174 1156 149 1202 174 1181 b 113 1088 174 1126 150 1100 l 154 1036 b 262 1160 218 1057 262 1105 b 130 1269 262 1227 207 1269 b 47 1254 100 1269 71 1264 z "},"Ĩ":{"ha":312,"x_min":0,"x_max":0,"o":"m 217 0 l 217 979 l 95 979 l 95 0 z m 245 1072 b 372 1245 319 1072 372 1137 l 292 1245 b 245 1148 292 1180 274 1148 b 68 1251 195 1148 164 1251 b -60 1078 -9 1251 -60 1190 l 20 1078 b 68 1175 17 1141 37 1175 b 245 1072 121 1175 155 1072 z "},"Į":{"ha":312,"x_min":0,"x_max":0,"o":"m 95 -3 b 1 -164 35 -50 1 -104 b 156 -292 1 -241 68 -292 b 236 -280 193 -292 224 -286 l 236 -198 b 181 -204 220 -201 200 -204 b 100 -138 137 -204 100 -182 b 213 0 100 -92 150 -42 l 217 3 l 217 979 l 95 979 z "},"J":{"ha":688,"x_min":0,"x_max":0,"o":"m 28 230 b 305 -23 28 81 142 -23 b 593 273 486 -23 593 87 l 593 979 l 471 979 l 471 273 b 304 90 471 154 412 90 b 150 230 216 90 153 147 z "},"Ĵ":{"ha":688,"x_min":0,"x_max":0,"o":"m 28 230 b 305 -23 28 81 142 -23 b 593 273 486 -23 593 87 l 593 979 l 471 979 l 471 273 b 304 90 471 154 412 90 b 150 230 216 90 153 147 z m 486 1246 l 294 1044 l 407 1044 l 530 1175 l 534 1175 l 656 1044 l 769 1044 l 577 1246 z "},"K":{"ha":854,"x_min":0,"x_max":0,"o":"m 217 0 l 217 342 l 323 458 l 690 0 l 846 0 l 408 545 l 810 979 l 656 979 l 224 501 l 217 501 l 217 979 l 95 979 l 95 0 z "},"Ḱ":{"ha":854,"x_min":0,"x_max":0,"o":"m 217 0 l 217 342 l 323 458 l 690 0 l 846 0 l 408 545 l 810 979 l 656 979 l 224 501 l 217 501 l 217 979 l 95 979 l 95 0 z m 474 1058 l 650 1254 l 519 1254 l 370 1058 z "},"Ǩ":{"ha":854,"x_min":0,"x_max":0,"o":"m 217 0 l 217 342 l 323 458 l 690 0 l 846 0 l 408 545 l 810 979 l 656 979 l 224 501 l 217 501 l 217 979 l 95 979 l 95 0 z m 368 1051 l 458 1051 l 650 1253 l 538 1253 l 415 1123 l 411 1123 l 288 1253 l 176 1253 z "},"Ḳ":{"ha":854,"x_min":0,"x_max":0,"o":"m 217 0 l 217 342 l 323 458 l 690 0 l 846 0 l 408 545 l 810 979 l 656 979 l 224 501 l 217 501 l 217 979 l 95 979 l 95 0 z m 413 -264 b 495 -182 458 -264 495 -227 b 413 -100 495 -136 458 -100 b 331 -182 368 -100 331 -136 b 413 -264 331 -227 368 -264 z "},"Ḵ":{"ha":854,"x_min":0,"x_max":0,"o":"m 217 0 l 217 342 l 323 458 l 690 0 l 846 0 l 408 545 l 810 979 l 656 979 l 224 501 l 217 501 l 217 979 l 95 979 l 95 0 z m 628 -147 l 198 -147 l 198 -226 l 628 -226 z "},"Ķ":{"ha":854,"x_min":0,"x_max":0,"o":"m 217 0 l 217 342 l 323 458 l 690 0 l 846 0 l 408 545 l 810 979 l 656 979 l 224 501 l 217 501 l 217 979 l 95 979 l 95 0 z m 394 -330 l 485 -86 l 382 -86 l 309 -330 z "},"L":{"ha":728,"x_min":0,"x_max":0,"o":"m 689 110 l 217 110 l 217 979 l 95 979 l 95 0 l 689 0 z "},"Ĺ":{"ha":728,"x_min":0,"x_max":0,"o":"m 689 110 l 217 110 l 217 979 l 95 979 l 95 0 l 689 0 z m 217 1058 l 393 1254 l 262 1254 l 113 1058 z "},"Ḽ":{"ha":728,"x_min":0,"x_max":0,"o":"m 689 110 l 217 110 l 217 979 l 95 979 l 95 0 l 689 0 z m 347 -86 l 155 -288 l 267 -288 l 390 -158 l 394 -158 l 517 -288 l 629 -288 l 437 -86 z "},"Ḷ":{"ha":728,"x_min":0,"x_max":0,"o":"m 689 110 l 217 110 l 217 979 l 95 979 l 95 0 l 689 0 z m 392 -264 b 474 -182 437 -264 474 -227 b 392 -100 474 -136 437 -100 b 310 -182 347 -100 310 -136 b 392 -264 310 -227 347 -264 z "},"Ḹ":{"ha":728,"x_min":0,"x_max":0,"o":"m 689 110 l 217 110 l 217 979 l 95 979 l 95 0 l 689 0 z m 392 -264 b 474 -182 437 -264 474 -227 b 392 -100 474 -136 437 -100 b 310 -182 347 -100 310 -136 b 392 -264 310 -227 347 -264 z m 371 1187 l -59 1187 l -59 1108 l 371 1108 z "},"Ḻ":{"ha":728,"x_min":0,"x_max":0,"o":"m 689 110 l 217 110 l 217 979 l 95 979 l 95 0 l 689 0 z m 607 -147 l 177 -147 l 177 -226 l 607 -226 z "},"Ļ":{"ha":728,"x_min":0,"x_max":0,"o":"m 689 110 l 217 110 l 217 979 l 95 979 l 95 0 l 689 0 z m 373 -330 l 464 -86 l 361 -86 l 288 -330 z "},"Ľ":{"ha":728,"x_min":0,"x_max":0,"o":"m 399 979 l 399 648 l 481 648 l 515 979 z m 689 110 l 217 110 l 217 979 l 95 979 l 95 0 l 689 0 z "},"Ł":{"ha":728,"x_min":0,"x_max":0,"o":"m 217 110 l 217 530 l 445 633 l 445 730 l 217 627 l 217 979 l 95 979 l 95 571 l 12 533 l 12 436 l 95 474 l 95 0 l 689 0 l 689 110 z "},"M":{"ha":1154,"x_min":0,"x_max":0,"o":"m 1059 0 l 1059 979 l 918 979 l 580 162 l 574 162 l 237 979 l 95 979 l 95 0 l 209 0 l 209 754 l 214 754 l 526 7 l 629 7 l 941 754 l 945 754 l 945 0 z "},"Ḿ":{"ha":1154,"x_min":0,"x_max":0,"o":"m 1059 0 l 1059 979 l 918 979 l 580 162 l 574 162 l 237 979 l 95 979 l 95 0 l 209 0 l 209 754 l 214 754 l 526 7 l 629 7 l 941 754 l 945 754 l 945 0 z m 638 1058 l 814 1254 l 683 1254 l 534 1058 z "},"Ṁ":{"ha":1154,"x_min":0,"x_max":0,"o":"m 1059 0 l 1059 979 l 918 979 l 580 162 l 574 162 l 237 979 l 95 979 l 95 0 l 209 0 l 209 754 l 214 754 l 526 7 l 629 7 l 941 754 l 945 754 l 945 0 z m 577 1075 b 659 1157 623 1075 659 1112 b 577 1239 659 1202 623 1239 b 495 1157 532 1239 495 1202 b 577 1075 495 1112 532 1075 z "},"Ṃ":{"ha":1154,"x_min":0,"x_max":0,"o":"m 1059 0 l 1059 979 l 918 979 l 580 162 l 574 162 l 237 979 l 95 979 l 95 0 l 209 0 l 209 754 l 214 754 l 526 7 l 629 7 l 941 754 l 945 754 l 945 0 z m 577 -264 b 659 -182 623 -264 659 -227 b 577 -100 659 -136 623 -100 b 495 -182 532 -100 495 -136 b 577 -264 495 -227 532 -264 z "},"N":{"ha":971,"x_min":0,"x_max":0,"o":"m 216 0 l 216 766 l 222 766 l 758 0 l 876 0 l 876 979 l 755 979 l 755 210 l 749 210 l 214 979 l 95 979 l 95 0 z "},"Ǹ":{"ha":971,"x_min":0,"x_max":0,"o":"m 216 0 l 216 766 l 222 766 l 758 0 l 876 0 l 876 979 l 755 979 l 755 210 l 749 210 l 214 979 l 95 979 l 95 0 z m 425 1058 l 529 1058 l 380 1254 l 248 1254 z "},"Ń":{"ha":971,"x_min":0,"x_max":0,"o":"m 216 0 l 216 766 l 222 766 l 758 0 l 876 0 l 876 979 l 755 979 l 755 210 l 749 210 l 214 979 l 95 979 l 95 0 z m 547 1058 l 723 1254 l 591 1254 l 442 1058 z "},"Ñ":{"ha":971,"x_min":0,"x_max":0,"o":"m 216 0 l 216 766 l 222 766 l 758 0 l 876 0 l 876 979 l 755 979 l 755 210 l 749 210 l 214 979 l 95 979 l 95 0 z m 574 1072 b 702 1245 648 1072 702 1137 l 622 1245 b 575 1148 622 1180 604 1148 b 398 1251 524 1148 494 1251 b 269 1078 321 1251 269 1190 l 349 1078 b 397 1175 347 1141 366 1175 b 574 1072 451 1175 485 1072 z "},"Ṇ":{"ha":971,"x_min":0,"x_max":0,"o":"m 216 0 l 216 766 l 222 766 l 758 0 l 876 0 l 876 979 l 755 979 l 755 210 l 749 210 l 214 979 l 95 979 l 95 0 z m 486 -264 b 568 -182 531 -264 568 -227 b 486 -100 568 -136 531 -100 b 404 -182 440 -100 404 -136 b 486 -264 404 -227 440 -264 z "},"Ṅ":{"ha":971,"x_min":0,"x_max":0,"o":"m 216 0 l 216 766 l 222 766 l 758 0 l 876 0 l 876 979 l 755 979 l 755 210 l 749 210 l 214 979 l 95 979 l 95 0 z m 486 1075 b 568 1157 531 1075 568 1112 b 486 1239 568 1202 531 1239 b 404 1157 440 1239 404 1202 b 486 1075 404 1112 440 1075 z "},"Ň":{"ha":971,"x_min":0,"x_max":0,"o":"m 216 0 l 216 766 l 222 766 l 758 0 l 876 0 l 876 979 l 755 979 l 755 210 l 749 210 l 214 979 l 95 979 l 95 0 z m 440 1051 l 531 1051 l 723 1253 l 610 1253 l 488 1123 l 484 1123 l 361 1253 l 248 1253 z "},"Ṋ":{"ha":971,"x_min":0,"x_max":0,"o":"m 216 0 l 216 766 l 222 766 l 758 0 l 876 0 l 876 979 l 755 979 l 755 210 l 749 210 l 214 979 l 95 979 l 95 0 z m 440 -86 l 248 -288 l 361 -288 l 484 -158 l 488 -158 l 610 -288 l 723 -288 l 531 -86 z "},"Ṉ":{"ha":971,"x_min":0,"x_max":0,"o":"m 216 0 l 216 766 l 222 766 l 758 0 l 876 0 l 876 979 l 755 979 l 755 210 l 749 210 l 214 979 l 95 979 l 95 0 z m 701 -147 l 271 -147 l 271 -226 l 701 -226 z "},"Ņ":{"ha":971,"x_min":0,"x_max":0,"o":"m 216 0 l 216 766 l 222 766 l 758 0 l 876 0 l 876 979 l 755 979 l 755 210 l 749 210 l 214 979 l 95 979 l 95 0 z m 467 -330 l 557 -86 l 454 -86 l 381 -330 z "},"O":{"ha":1016,"x_min":0,"x_max":0,"o":"m 508 995 b 57 489 231 995 57 800 b 508 -16 57 178 231 -16 b 959 489 785 -16 959 178 b 508 995 959 800 785 995 z m 508 882 b 833 489 708 882 833 730 b 508 96 833 248 708 96 b 182 489 308 96 182 248 b 508 882 182 730 308 882 z "},"Ö":{"ha":1016,"x_min":0,"x_max":0,"o":"m 508 995 b 57 489 231 995 57 800 b 508 -16 57 178 231 -16 b 959 489 785 -16 959 178 b 508 995 959 800 785 995 z m 508 882 b 833 489 708 882 833 730 b 508 96 833 248 708 96 b 182 489 308 96 182 248 b 508 882 182 730 308 882 z m 382 1088 b 456 1162 422 1088 456 1121 b 382 1237 456 1204 422 1237 b 307 1162 341 1237 307 1204 b 382 1088 307 1121 341 1088 z m 634 1088 b 709 1162 675 1088 709 1121 b 634 1237 709 1204 675 1237 b 559 1162 593 1237 559 1204 b 634 1088 559 1121 593 1088 z "},"Ø":{"ha":1016,"x_min":0,"x_max":0,"o":"m 770 743 b 833 489 811 678 833 591 b 508 96 833 248 708 96 b 319 156 434 96 370 117 z m 259 216 b 182 489 210 283 182 376 b 508 882 182 730 308 882 b 715 808 591 882 662 856 z m 937 962 l 871 1009 l 789 904 b 508 995 716 963 621 995 b 57 489 231 995 57 800 b 182 116 57 332 102 204 l 107 20 l 175 -32 l 245 60 b 508 -16 316 11 405 -16 b 959 489 785 -16 959 178 b 848 846 959 637 920 759 z "},"Õ":{"ha":1016,"x_min":0,"x_max":0,"o":"m 508 995 b 57 489 231 995 57 800 b 508 -16 57 178 231 -16 b 959 489 785 -16 959 178 b 508 995 959 800 785 995 z m 508 882 b 833 489 708 882 833 730 b 508 96 833 248 708 96 b 182 489 308 96 182 248 b 508 882 182 730 308 882 z m 597 1072 b 724 1245 671 1072 724 1137 l 644 1245 b 597 1148 644 1180 626 1148 b 420 1251 547 1148 516 1251 b 292 1078 343 1251 292 1190 l 372 1078 b 420 1175 369 1141 389 1175 b 597 1072 473 1175 507 1072 z "},"Ó":{"ha":1016,"x_min":0,"x_max":0,"o":"m 508 995 b 57 489 231 995 57 800 b 508 -16 57 178 231 -16 b 959 489 785 -16 959 178 b 508 995 959 800 785 995 z m 508 882 b 833 489 708 882 833 730 b 508 96 833 248 708 96 b 182 489 308 96 182 248 b 508 882 182 730 308 882 z m 569 1058 l 745 1254 l 614 1254 l 465 1058 z "},"Ô":{"ha":1016,"x_min":0,"x_max":0,"o":"m 508 995 b 57 489 231 995 57 800 b 508 -16 57 178 231 -16 b 959 489 785 -16 959 178 b 508 995 959 800 785 995 z m 508 882 b 833 489 708 882 833 730 b 508 96 833 248 708 96 b 182 489 308 96 182 248 b 508 882 182 730 308 882 z m 463 1246 l 271 1044 l 383 1044 l 506 1175 l 510 1175 l 633 1044 l 745 1044 l 553 1246 z "},"Ò":{"ha":1016,"x_min":0,"x_max":0,"o":"m 508 995 b 57 489 231 995 57 800 b 508 -16 57 178 231 -16 b 959 489 785 -16 959 178 b 508 995 959 800 785 995 z m 508 882 b 833 489 708 882 833 730 b 508 96 833 248 708 96 b 182 489 308 96 182 248 b 508 882 182 730 308 882 z m 447 1058 l 551 1058 l 402 1254 l 271 1254 z "},"Ổ":{"ha":1016,"x_min":0,"x_max":0,"o":"m 508 995 b 57 489 231 995 57 800 b 508 -16 57 178 231 -16 b 959 489 785 -16 959 178 b 508 995 959 800 785 995 z m 508 882 b 833 489 708 882 833 730 b 508 96 833 248 708 96 b 182 489 308 96 182 248 b 508 882 182 730 308 882 z m 456 1219 l 265 1044 l 383 1044 l 506 1158 l 510 1158 l 633 1044 l 751 1044 l 559 1219 z m 592 1319 b 650 1331 607 1326 627 1331 b 701 1289 680 1331 701 1312 b 648 1228 701 1263 680 1239 l 701 1187 b 778 1293 748 1202 778 1245 b 663 1392 778 1353 731 1392 b 592 1377 640 1392 612 1387 z "},"Ồ":{"ha":1016,"x_min":0,"x_max":0,"o":"m 508 995 b 57 489 231 995 57 800 b 508 -16 57 178 231 -16 b 959 489 785 -16 959 178 b 508 995 959 800 785 995 z m 508 882 b 833 489 708 882 833 730 b 508 96 833 248 708 96 b 182 489 308 96 182 248 b 508 882 182 730 308 882 z m 456 1219 l 265 1044 l 383 1044 l 506 1158 l 510 1158 l 633 1044 l 751 1044 l 559 1219 z m 753 1241 l 640 1388 l 524 1388 l 654 1241 z "},"Ọ":{"ha":1016,"x_min":0,"x_max":0,"o":"m 508 995 b 57 489 231 995 57 800 b 508 -16 57 178 231 -16 b 959 489 785 -16 959 178 b 508 995 959 800 785 995 z m 508 882 b 833 489 708 882 833 730 b 508 96 833 248 708 96 b 182 489 308 96 182 248 b 508 882 182 730 308 882 z m 508 -264 b 590 -182 553 -264 590 -227 b 508 -100 590 -136 553 -100 b 426 -182 463 -100 426 -136 b 508 -264 426 -227 463 -264 z "},"Ȍ":{"ha":1016,"x_min":0,"x_max":0,"o":"m 508 995 b 57 489 231 995 57 800 b 508 -16 57 178 231 -16 b 959 489 785 -16 959 178 b 508 995 959 800 785 995 z m 508 882 b 833 489 708 882 833 730 b 508 96 833 248 708 96 b 182 489 308 96 182 248 b 508 882 182 730 308 882 z m 555 1058 l 660 1058 l 511 1254 l 379 1254 z m 338 1058 l 443 1058 l 294 1254 l 162 1254 z "},"Ṍ":{"ha":1016,"x_min":0,"x_max":0,"o":"m 508 995 b 57 489 231 995 57 800 b 508 -16 57 178 231 -16 b 959 489 785 -16 959 178 b 508 995 959 800 785 995 z m 508 882 b 833 489 708 882 833 730 b 508 96 833 248 708 96 b 182 489 308 96 182 248 b 508 882 182 730 308 882 z m 593 1046 b 715 1208 664 1046 715 1109 l 640 1208 b 594 1120 640 1151 623 1120 b 424 1220 541 1120 509 1220 b 301 1059 350 1220 301 1160 l 376 1059 b 423 1146 374 1114 393 1146 b 593 1046 475 1146 507 1046 z m 463 1255 l 562 1255 l 692 1388 l 577 1388 z "},"Ṓ":{"ha":1016,"x_min":0,"x_max":0,"o":"m 508 995 b 57 489 231 995 57 800 b 508 -16 57 178 231 -16 b 959 489 785 -16 959 178 b 508 995 959 800 785 995 z m 508 882 b 833 489 708 882 833 730 b 508 96 833 248 708 96 b 182 489 308 96 182 248 b 508 882 182 730 308 882 z m 723 1080 l 723 1158 l 293 1158 l 293 1080 z m 463 1241 l 562 1241 l 692 1388 l 577 1388 z "},"Ỗ":{"ha":1016,"x_min":0,"x_max":0,"o":"m 508 995 b 57 489 231 995 57 800 b 508 -16 57 178 231 -16 b 959 489 785 -16 959 178 b 508 995 959 800 785 995 z m 508 882 b 833 489 708 882 833 730 b 508 96 833 248 708 96 b 182 489 308 96 182 248 b 508 882 182 730 308 882 z m 589 1245 b 719 1385 665 1245 719 1306 l 640 1385 b 587 1316 636 1341 614 1316 b 427 1401 541 1316 519 1401 b 297 1261 346 1401 297 1342 l 376 1261 b 429 1333 379 1306 399 1333 b 589 1245 475 1333 497 1245 z m 456 1213 l 265 1044 l 383 1044 l 506 1153 l 510 1153 l 633 1044 l 751 1044 l 559 1213 z "},"Ȱ":{"ha":1016,"x_min":0,"x_max":0,"o":"m 508 995 b 57 489 231 995 57 800 b 508 -16 57 178 231 -16 b 959 489 785 -16 959 178 b 508 995 959 800 785 995 z m 508 882 b 833 489 708 882 833 730 b 508 96 833 248 708 96 b 182 489 308 96 182 248 b 508 882 182 730 308 882 z m 508 1067 b 587 1147 552 1067 587 1103 b 508 1225 587 1190 552 1225 b 429 1147 464 1225 429 1190 b 508 1067 429 1103 464 1067 z m 723 1373 l 293 1373 l 293 1295 l 723 1295 z "},"Ṑ":{"ha":1016,"x_min":0,"x_max":0,"o":"m 508 995 b 57 489 231 995 57 800 b 508 -16 57 178 231 -16 b 959 489 785 -16 959 178 b 508 995 959 800 785 995 z m 508 882 b 833 489 708 882 833 730 b 508 96 833 248 708 96 b 182 489 308 96 182 248 b 508 882 182 730 308 882 z m 293 1080 l 723 1080 l 723 1158 l 293 1158 z m 557 1241 l 443 1388 l 328 1388 l 458 1241 z "},"Ǒ":{"ha":1016,"x_min":0,"x_max":0,"o":"m 508 995 b 57 489 231 995 57 800 b 508 -16 57 178 231 -16 b 959 489 785 -16 959 178 b 508 995 959 800 785 995 z m 508 882 b 833 489 708 882 833 730 b 508 96 833 248 708 96 b 182 489 308 96 182 248 b 508 882 182 730 308 882 z m 463 1051 l 553 1051 l 745 1253 l 633 1253 l 510 1123 l 506 1123 l 383 1253 l 271 1253 z "},"Ǿ":{"ha":1016,"x_min":0,"x_max":0,"o":"m 764 1254 l 632 1254 l 483 1058 l 587 1058 z m 770 743 b 833 489 811 678 833 591 b 508 96 833 248 708 96 b 319 156 434 96 370 117 z m 259 216 b 182 489 210 283 182 376 b 508 882 182 730 308 882 b 715 808 591 882 662 856 z m 937 962 l 871 1009 l 789 904 b 508 995 716 963 621 995 b 57 489 231 995 57 800 b 182 116 57 332 102 204 l 107 20 l 175 -32 l 245 60 b 508 -16 316 11 405 -16 b 959 489 785 -16 959 178 b 848 846 959 637 920 759 z "},"Ő":{"ha":1016,"x_min":0,"x_max":0,"o":"m 508 995 b 57 489 231 995 57 800 b 508 -16 57 178 231 -16 b 959 489 785 -16 959 178 b 508 995 959 800 785 995 z m 508 882 b 833 489 708 882 833 730 b 508 96 833 248 708 96 b 182 489 308 96 182 248 b 508 882 182 730 308 882 z m 677 1058 l 854 1254 l 722 1254 l 573 1058 z m 460 1058 l 637 1254 l 505 1254 l 356 1058 z "},"Ŏ":{"ha":1016,"x_min":0,"x_max":0,"o":"m 508 995 b 57 489 231 995 57 800 b 508 -16 57 178 231 -16 b 959 489 785 -16 959 178 b 508 995 959 800 785 995 z m 508 882 b 833 489 708 882 833 730 b 508 96 833 248 708 96 b 182 489 308 96 182 248 b 508 882 182 730 308 882 z m 290 1253 b 508 1046 299 1142 378 1046 b 726 1253 638 1046 717 1142 l 640 1253 b 508 1122 631 1171 579 1122 b 376 1253 437 1122 385 1171 z "},"Ȏ":{"ha":1016,"x_min":0,"x_max":0,"o":"m 508 995 b 57 489 231 995 57 800 b 508 -16 57 178 231 -16 b 959 489 785 -16 959 178 b 508 995 959 800 785 995 z m 508 882 b 833 489 708 882 833 730 b 508 96 833 248 708 96 b 182 489 308 96 182 248 b 508 882 182 730 308 882 z m 290 1046 l 376 1046 b 508 1177 385 1128 437 1177 b 640 1046 579 1177 631 1128 l 726 1046 b 508 1253 717 1157 638 1253 b 290 1046 378 1253 299 1157 z "},"Ỏ":{"ha":1016,"x_min":0,"x_max":0,"o":"m 508 995 b 57 489 231 995 57 800 b 508 -16 57 178 231 -16 b 959 489 785 -16 959 178 b 508 995 959 800 785 995 z m 508 882 b 833 489 708 882 833 730 b 508 96 833 248 708 96 b 182 489 308 96 182 248 b 508 882 182 730 308 882 z m 399 1189 b 467 1202 419 1198 445 1202 b 526 1156 501 1202 526 1181 b 465 1088 526 1126 502 1100 l 506 1036 b 614 1160 570 1057 614 1105 b 481 1269 614 1227 559 1269 b 399 1254 452 1269 422 1264 z "},"Ȫ":{"ha":1016,"x_min":0,"x_max":0,"o":"m 508 995 b 57 489 231 995 57 800 b 508 -16 57 178 231 -16 b 959 489 785 -16 959 178 b 508 995 959 800 785 995 z m 508 882 b 833 489 708 882 833 730 b 508 96 833 248 708 96 b 182 489 308 96 182 248 b 508 882 182 730 308 882 z m 388 1198 b 317 1126 349 1198 317 1166 b 388 1054 317 1086 349 1054 b 458 1126 427 1054 458 1086 b 388 1198 458 1166 427 1198 z m 293 1373 l 293 1295 l 723 1295 l 723 1373 z m 628 1198 b 557 1126 589 1198 557 1166 b 628 1054 557 1086 589 1054 b 699 1126 667 1054 699 1086 b 628 1198 699 1166 667 1198 z "},"Ȭ":{"ha":1016,"x_min":0,"x_max":0,"o":"m 508 995 b 57 489 231 995 57 800 b 508 -16 57 178 231 -16 b 959 489 785 -16 959 178 b 508 995 959 800 785 995 z m 508 882 b 833 489 708 882 833 730 b 508 96 833 248 708 96 b 182 489 308 96 182 248 b 508 882 182 730 308 882 z m 593 1046 b 715 1208 664 1046 715 1109 l 640 1208 b 594 1120 640 1151 623 1120 b 424 1220 541 1120 509 1220 b 301 1059 350 1220 301 1160 l 376 1059 b 423 1146 374 1114 393 1146 b 593 1046 475 1146 507 1046 z m 723 1373 l 293 1373 l 293 1295 l 723 1295 z "},"Ȯ":{"ha":1016,"x_min":0,"x_max":0,"o":"m 508 995 b 57 489 231 995 57 800 b 508 -16 57 178 231 -16 b 959 489 785 -16 959 178 b 508 995 959 800 785 995 z m 508 882 b 833 489 708 882 833 730 b 508 96 833 248 708 96 b 182 489 308 96 182 248 b 508 882 182 730 308 882 z m 508 1075 b 590 1157 553 1075 590 1112 b 508 1239 590 1202 553 1239 b 426 1157 463 1239 426 1202 b 508 1075 426 1112 463 1075 z "},"Ộ":{"ha":1016,"x_min":0,"x_max":0,"o":"m 508 995 b 57 489 231 995 57 800 b 508 -16 57 178 231 -16 b 959 489 785 -16 959 178 b 508 995 959 800 785 995 z m 508 882 b 833 489 708 882 833 730 b 508 96 833 248 708 96 b 182 489 308 96 182 248 b 508 882 182 730 308 882 z m 463 1246 l 271 1044 l 383 1044 l 506 1175 l 510 1175 l 633 1044 l 745 1044 l 553 1246 z m 508 -264 b 590 -182 553 -264 590 -227 b 508 -100 590 -136 553 -100 b 426 -182 463 -100 426 -136 b 508 -264 426 -227 463 -264 z "},"Ố":{"ha":1016,"x_min":0,"x_max":0,"o":"m 508 995 b 57 489 231 995 57 800 b 508 -16 57 178 231 -16 b 959 489 785 -16 959 178 b 508 995 959 800 785 995 z m 508 882 b 833 489 708 882 833 730 b 508 96 833 248 708 96 b 182 489 308 96 182 248 b 508 882 182 730 308 882 z m 456 1219 l 265 1044 l 383 1044 l 506 1158 l 510 1158 l 633 1044 l 751 1044 l 559 1219 z m 626 1241 l 725 1241 l 855 1388 l 740 1388 z "},"Ṏ":{"ha":1016,"x_min":0,"x_max":0,"o":"m 508 995 b 57 489 231 995 57 800 b 508 -16 57 178 231 -16 b 959 489 785 -16 959 178 b 508 995 959 800 785 995 z m 508 882 b 833 489 708 882 833 730 b 508 96 833 248 708 96 b 182 489 308 96 182 248 b 508 882 182 730 308 882 z m 593 1048 b 715 1206 664 1048 715 1109 l 640 1206 b 594 1120 640 1150 623 1120 b 424 1218 541 1120 509 1218 b 301 1060 350 1218 301 1160 l 376 1060 b 423 1146 374 1114 393 1146 b 593 1048 475 1146 507 1048 z m 388 1408 b 317 1336 349 1408 317 1376 b 388 1264 317 1296 349 1264 b 458 1336 427 1264 458 1296 b 388 1408 458 1376 427 1408 z m 628 1408 b 557 1336 589 1408 557 1376 b 628 1264 557 1296 589 1264 b 699 1336 667 1264 699 1296 b 628 1408 699 1376 667 1408 z "},"Ō":{"ha":1016,"x_min":0,"x_max":0,"o":"m 508 995 b 57 489 231 995 57 800 b 508 -16 57 178 231 -16 b 959 489 785 -16 959 178 b 508 995 959 800 785 995 z m 508 882 b 833 489 708 882 833 730 b 508 96 833 248 708 96 b 182 489 308 96 182 248 b 508 882 182 730 308 882 z m 723 1187 l 293 1187 l 293 1108 l 723 1108 z "},"Ǫ":{"ha":1016,"x_min":0,"x_max":0,"o":"m 665 -292 b 745 -280 702 -292 732 -286 l 745 -198 b 690 -204 728 -201 709 -204 b 609 -140 646 -204 609 -184 b 732 15 609 -92 661 -47 b 959 489 887 149 959 290 b 508 995 959 800 785 995 b 57 489 231 995 57 800 b 508 -16 57 178 231 -16 b 604 -4 538 -16 576 -9 l 604 -7 b 510 -164 544 -52 510 -104 b 665 -292 510 -241 576 -292 z m 508 882 b 833 489 708 882 833 730 b 508 96 833 248 708 96 b 182 489 308 96 182 248 b 508 882 182 730 308 882 z "},"Ǭ":{"ha":1015,"x_min":0,"x_max":0,"o":"m 665 -292 b 745 -280 702 -292 732 -286 l 745 -198 b 690 -204 728 -201 709 -204 b 609 -140 646 -204 609 -184 b 732 15 609 -92 661 -47 b 959 489 887 149 959 290 b 508 995 959 800 785 995 b 57 489 231 995 57 800 b 508 -16 57 178 231 -16 b 604 -4 538 -16 576 -9 l 604 -7 b 510 -164 544 -52 510 -104 b 665 -292 510 -241 576 -292 z m 508 882 b 833 489 708 882 833 730 b 508 96 833 248 708 96 b 182 489 308 96 182 248 b 508 882 182 730 308 882 z m 723 1187 l 293 1187 l 293 1108 l 723 1108 z "},"Ơ":{"ha":1016,"x_min":0,"x_max":0,"o":"m 508 -16 b 959 489 785 -16 959 178 b 808 876 959 650 895 814 l 808 880 l 848 880 b 972 996 922 880 972 927 l 972 1126 l 864 1126 l 864 1031 b 790 968 864 984 845 968 b 508 995 688 968 609 995 b 57 489 231 995 57 800 b 508 -16 57 178 231 -16 z m 508 96 b 182 489 308 96 182 248 b 508 882 182 730 308 882 b 833 489 708 882 833 731 b 508 96 833 248 708 96 z "},"Ợ":{"ha":1016,"x_min":0,"x_max":0,"o":"m 508 -16 b 959 489 785 -16 959 178 b 808 876 959 650 895 814 l 808 880 l 848 880 b 972 996 922 880 972 927 l 972 1126 l 864 1126 l 864 1031 b 790 968 864 984 845 968 b 508 995 688 968 609 995 b 57 489 231 995 57 800 b 508 -16 57 178 231 -16 z m 508 96 b 182 489 308 96 182 248 b 508 882 182 730 308 882 b 833 489 708 882 833 731 b 508 96 833 248 708 96 z m 508 -264 b 590 -182 553 -264 590 -227 b 508 -100 590 -136 553 -100 b 426 -182 463 -100 426 -136 b 508 -264 426 -227 463 -264 z "},"Ở":{"ha":1016,"x_min":0,"x_max":0,"o":"m 508 -16 b 959 489 785 -16 959 178 b 808 876 959 650 895 814 l 808 880 l 848 880 b 972 996 922 880 972 927 l 972 1126 l 864 1126 l 864 1031 b 790 968 864 984 845 968 b 508 995 688 968 609 995 b 57 489 231 995 57 800 b 508 -16 57 178 231 -16 z m 508 96 b 182 489 308 96 182 248 b 508 882 182 730 308 882 b 833 489 708 882 833 731 b 508 96 833 248 708 96 z m 399 1189 b 467 1202 419 1198 445 1202 b 526 1156 501 1202 526 1181 b 465 1088 526 1126 502 1100 l 506 1036 b 614 1160 570 1057 614 1105 b 481 1269 614 1227 559 1269 b 399 1254 452 1269 422 1264 z "},"Ỡ":{"ha":1016,"x_min":0,"x_max":0,"o":"m 508 -16 b 959 489 785 -16 959 178 b 808 876 959 650 895 814 l 808 880 l 848 880 b 972 996 922 880 972 927 l 972 1126 l 864 1126 l 864 1031 b 790 968 864 984 845 968 b 508 995 688 968 609 995 b 57 489 231 995 57 800 b 508 -16 57 178 231 -16 z m 508 96 b 182 489 308 96 182 248 b 508 882 182 730 308 882 b 833 489 708 882 833 731 b 508 96 833 248 708 96 z m 597 1072 b 724 1245 671 1072 724 1137 l 644 1245 b 597 1148 644 1180 626 1148 b 420 1251 547 1148 516 1251 b 292 1078 343 1251 292 1190 l 372 1078 b 420 1175 369 1141 389 1175 b 597 1072 473 1175 507 1072 z "},"Ờ":{"ha":1016,"x_min":0,"x_max":0,"o":"m 508 -16 b 959 489 785 -16 959 178 b 808 876 959 650 895 814 l 808 880 l 848 880 b 972 996 922 880 972 927 l 972 1126 l 864 1126 l 864 1031 b 790 968 864 984 845 968 b 508 995 688 968 609 995 b 57 489 231 995 57 800 b 508 -16 57 178 231 -16 z m 508 96 b 182 489 308 96 182 248 b 508 882 182 730 308 882 b 833 489 708 882 833 731 b 508 96 833 248 708 96 z m 447 1058 l 551 1058 l 402 1254 l 271 1254 z "},"Ớ":{"ha":1016,"x_min":0,"x_max":0,"o":"m 508 -16 b 959 489 785 -16 959 178 b 808 876 959 650 895 814 l 808 880 l 848 880 b 972 996 922 880 972 927 l 972 1126 l 864 1126 l 864 1031 b 790 968 864 984 845 968 b 508 995 688 968 609 995 b 57 489 231 995 57 800 b 508 -16 57 178 231 -16 z m 508 96 b 182 489 308 96 182 248 b 508 882 182 730 308 882 b 833 489 708 882 833 731 b 508 96 833 248 708 96 z m 569 1058 l 745 1254 l 614 1254 l 465 1058 z "},"P":{"ha":802,"x_min":0,"x_max":0,"o":"m 95 979 l 95 0 l 217 0 l 217 349 l 443 349 b 758 665 627 349 758 479 b 444 979 758 850 628 979 z m 217 870 l 412 870 b 632 665 553 870 632 794 b 412 458 632 534 552 458 l 217 458 z "},"Ṗ":{"ha":802,"x_min":0,"x_max":0,"o":"m 95 979 l 95 0 l 217 0 l 217 349 l 443 349 b 758 665 627 349 758 479 b 444 979 758 850 628 979 z m 217 870 l 412 870 b 632 665 553 870 632 794 b 412 458 632 534 552 458 l 217 458 z m 342 1075 b 425 1157 388 1075 425 1112 b 342 1239 425 1202 388 1239 b 260 1157 297 1239 260 1202 b 342 1075 260 1112 297 1075 z "},"Ṕ":{"ha":802,"x_min":0,"x_max":0,"o":"m 95 979 l 95 0 l 217 0 l 217 349 l 443 349 b 758 665 627 349 758 479 b 444 979 758 850 628 979 z m 217 870 l 412 870 b 632 665 553 870 632 794 b 412 458 632 534 552 458 l 217 458 z m 404 1058 l 580 1254 l 448 1254 l 299 1058 z "},"Q":{"ha":1016,"x_min":0,"x_max":0,"o":"m 508 -16 b 683 14 572 -16 631 -6 l 774 -111 l 911 -111 l 781 68 b 959 489 895 153 959 300 b 508 995 959 800 785 995 b 57 489 231 995 57 800 b 508 -16 57 178 231 -16 z m 508 96 b 182 489 308 96 182 248 b 508 882 182 730 308 882 b 833 489 708 882 833 730 b 710 166 833 345 789 233 l 627 280 l 490 280 l 612 112 b 508 96 580 102 545 96 z "},"R":{"ha":832,"x_min":0,"x_max":0,"o":"m 217 870 l 446 870 b 648 683 572 870 648 800 b 451 495 648 563 576 495 l 217 495 z m 217 387 l 451 387 l 451 387 l 661 0 l 804 0 l 577 406 b 774 687 700 445 774 551 b 462 979 774 863 650 979 l 95 979 l 95 0 l 217 0 z "},"Ř":{"ha":832,"x_min":0,"x_max":0,"o":"m 217 870 l 446 870 b 648 683 572 870 648 800 b 451 495 648 563 576 495 l 217 495 z m 217 387 l 451 387 l 451 387 l 661 0 l 804 0 l 577 406 b 774 687 700 445 774 551 b 462 979 774 863 650 979 l 95 979 l 95 0 l 217 0 z m 317 1051 l 408 1051 l 600 1253 l 488 1253 l 365 1123 l 361 1123 l 238 1253 l 125 1253 z "},"Ṟ":{"ha":832,"x_min":0,"x_max":0,"o":"m 217 870 l 446 870 b 648 683 572 870 648 800 b 451 495 648 563 576 495 l 217 495 z m 217 387 l 451 387 l 451 387 l 661 0 l 804 0 l 577 406 b 774 687 700 445 774 551 b 462 979 774 863 650 979 l 95 979 l 95 0 l 217 0 z m 578 -147 l 148 -147 l 148 -226 l 578 -226 z "},"Ṝ":{"ha":832,"x_min":0,"x_max":0,"o":"m 217 870 l 446 870 b 648 683 572 870 648 800 b 451 495 648 563 576 495 l 217 495 z m 217 387 l 451 387 l 451 387 l 661 0 l 804 0 l 577 406 b 774 687 700 445 774 551 b 462 979 774 863 650 979 l 95 979 l 95 0 l 217 0 z m 363 -264 b 445 -182 408 -264 445 -227 b 363 -100 445 -136 408 -100 b 281 -182 317 -100 281 -136 b 363 -264 281 -227 317 -264 z m 578 1187 l 148 1187 l 148 1108 l 578 1108 z "},"Ȑ":{"ha":832,"x_min":0,"x_max":0,"o":"m 217 870 l 446 870 b 648 683 572 870 648 800 b 451 495 648 563 576 495 l 217 495 z m 217 387 l 451 387 l 451 387 l 661 0 l 804 0 l 577 406 b 774 687 700 445 774 551 b 462 979 774 863 650 979 l 95 979 l 95 0 l 217 0 z m 410 1058 l 515 1058 l 366 1254 l 234 1254 z m 193 1058 l 298 1058 l 149 1254 l 17 1254 z "},"Ȓ":{"ha":832,"x_min":0,"x_max":0,"o":"m 217 870 l 446 870 b 648 683 572 870 648 800 b 451 495 648 563 576 495 l 217 495 z m 217 387 l 451 387 l 451 387 l 661 0 l 804 0 l 577 406 b 774 687 700 445 774 551 b 462 979 774 863 650 979 l 95 979 l 95 0 l 217 0 z m 145 1046 l 231 1046 b 363 1177 239 1128 292 1177 b 494 1046 434 1177 486 1128 l 581 1046 b 363 1253 572 1157 493 1253 b 145 1046 233 1253 154 1157 z "},"Ŕ":{"ha":832,"x_min":0,"x_max":0,"o":"m 217 870 l 446 870 b 648 683 572 870 648 800 b 451 495 648 563 576 495 l 217 495 z m 217 387 l 451 387 l 451 387 l 661 0 l 804 0 l 577 406 b 774 687 700 445 774 551 b 462 979 774 863 650 979 l 95 979 l 95 0 l 217 0 z m 424 1058 l 600 1254 l 469 1254 l 319 1058 z "},"Ṛ":{"ha":832,"x_min":0,"x_max":0,"o":"m 217 870 l 446 870 b 648 683 572 870 648 800 b 451 495 648 563 576 495 l 217 495 z m 217 387 l 451 387 l 451 387 l 661 0 l 804 0 l 577 406 b 774 687 700 445 774 551 b 462 979 774 863 650 979 l 95 979 l 95 0 l 217 0 z m 363 -264 b 445 -182 408 -264 445 -227 b 363 -100 445 -136 408 -100 b 281 -182 317 -100 281 -136 b 363 -264 281 -227 317 -264 z "},"Ṙ":{"ha":832,"x_min":0,"x_max":0,"o":"m 217 870 l 446 870 b 648 683 572 870 648 800 b 451 495 648 563 576 495 l 217 495 z m 217 387 l 451 387 l 451 387 l 661 0 l 804 0 l 577 406 b 774 687 700 445 774 551 b 462 979 774 863 650 979 l 95 979 l 95 0 l 217 0 z m 363 1075 b 445 1157 408 1075 445 1112 b 363 1239 445 1202 408 1239 b 281 1157 317 1239 281 1202 b 363 1075 281 1112 317 1075 z "},"Ŗ":{"ha":832,"x_min":0,"x_max":0,"o":"m 217 870 l 446 870 b 648 683 572 870 648 800 b 451 495 648 563 576 495 l 217 495 z m 217 387 l 451 387 l 451 387 l 661 0 l 804 0 l 577 406 b 774 687 700 445 774 551 b 462 979 774 863 650 979 l 95 979 l 95 0 l 217 0 z m 344 -330 l 435 -86 l 332 -86 l 258 -330 z "},"S":{"ha":825,"x_min":0,"x_max":0,"o":"m 48 269 b 411 -16 60 96 203 -16 b 777 275 636 -16 777 96 b 492 544 777 415 695 493 l 390 571 b 203 724 257 606 203 650 b 418 885 203 819 291 885 b 641 715 545 885 630 821 l 763 715 b 422 995 758 880 616 995 b 76 718 218 995 76 881 b 336 460 76 585 156 506 l 462 427 b 651 260 593 393 651 342 b 422 94 651 163 555 94 b 171 269 283 94 182 163 z "},"Š":{"ha":825,"x_min":0,"x_max":0,"o":"m 48 269 b 411 -16 60 96 203 -16 b 777 275 636 -16 777 96 b 492 544 777 415 695 493 l 390 571 b 203 724 257 606 203 650 b 418 885 203 819 291 885 b 641 715 545 885 630 821 l 763 715 b 422 995 758 880 616 995 b 76 718 218 995 76 881 b 336 460 76 585 156 506 l 462 427 b 651 260 593 393 651 342 b 422 94 651 163 555 94 b 171 269 283 94 182 163 z m 376 1051 l 467 1051 l 659 1253 l 547 1253 l 424 1123 l 420 1123 l 297 1253 l 184 1253 z "},"Ş":{"ha":825,"x_min":0,"x_max":0,"o":"m 390 571 b 203 724 257 606 203 650 b 418 885 203 819 291 885 b 641 715 545 885 630 821 l 763 715 b 422 995 758 880 616 995 b 76 718 218 995 76 881 b 336 460 76 585 156 506 l 462 427 b 651 260 593 393 651 342 b 422 94 651 163 555 94 b 171 269 283 94 182 163 l 48 269 b 373 -15 59 107 186 -2 l 336 -108 l 336 -155 l 384 -155 b 483 -198 453 -155 483 -167 b 397 -247 483 -229 453 -247 b 312 -239 368 -247 327 -242 l 312 -308 b 414 -317 330 -313 374 -318 b 572 -197 502 -316 572 -274 b 427 -88 572 -127 515 -90 l 459 -14 b 777 275 656 1 777 109 b 492 544 777 415 695 493 z "},"Ṡ":{"ha":825,"x_min":0,"x_max":0,"o":"m 48 269 b 411 -16 60 96 203 -16 b 777 275 636 -16 777 96 b 492 544 777 415 695 493 l 390 571 b 203 724 257 606 203 650 b 418 885 203 819 291 885 b 641 715 545 885 630 821 l 763 715 b 422 995 758 880 616 995 b 76 718 218 995 76 881 b 336 460 76 585 156 506 l 462 427 b 651 260 593 393 651 342 b 422 94 651 163 555 94 b 171 269 283 94 182 163 z m 422 1075 b 504 1157 467 1075 504 1112 b 422 1239 504 1202 467 1239 b 340 1157 376 1239 340 1202 b 422 1075 340 1112 376 1075 z "},"Ṣ":{"ha":825,"x_min":0,"x_max":0,"o":"m 48 269 b 411 -16 60 96 203 -16 b 777 275 636 -16 777 96 b 492 544 777 415 695 493 l 390 571 b 203 724 257 606 203 650 b 418 885 203 819 291 885 b 641 715 545 885 630 821 l 763 715 b 422 995 758 880 616 995 b 76 718 218 995 76 881 b 336 460 76 585 156 506 l 462 427 b 651 260 593 393 651 342 b 422 94 651 163 555 94 b 171 269 283 94 182 163 z m 411 -264 b 493 -182 456 -264 493 -227 b 411 -100 493 -136 456 -100 b 329 -182 366 -100 329 -136 b 411 -264 329 -227 366 -264 z "},"Ș":{"ha":825,"x_min":0,"x_max":0,"o":"m 48 269 b 411 -16 60 96 203 -16 b 777 275 636 -16 777 96 b 492 544 777 415 695 493 l 390 571 b 203 724 257 606 203 650 b 418 885 203 819 291 885 b 641 715 545 885 630 821 l 763 715 b 422 995 758 880 616 995 b 76 718 218 995 76 881 b 336 460 76 585 156 506 l 462 427 b 651 260 593 393 651 342 b 422 94 651 163 555 94 b 171 269 283 94 182 163 z m 392 -330 l 483 -86 l 380 -86 l 307 -330 z "},"Ṩ":{"ha":825,"x_min":0,"x_max":0,"o":"m 48 269 b 411 -16 60 96 203 -16 b 777 275 636 -16 777 96 b 492 544 777 415 695 493 l 390 571 b 203 724 257 606 203 650 b 418 885 203 819 291 885 b 641 715 545 885 630 821 l 763 715 b 422 995 758 880 616 995 b 76 718 218 995 76 881 b 336 460 76 585 156 506 l 462 427 b 651 260 593 393 651 342 b 422 94 651 163 555 94 b 171 269 283 94 182 163 z m 411 -264 b 493 -182 456 -264 493 -227 b 411 -100 493 -136 456 -100 b 329 -182 366 -100 329 -136 b 411 -264 329 -227 366 -264 z m 422 1075 b 504 1157 467 1075 504 1112 b 422 1239 504 1202 467 1239 b 340 1157 376 1239 340 1202 b 422 1075 340 1112 376 1075 z "},"Ṧ":{"ha":825,"x_min":0,"x_max":0,"o":"m 48 269 b 411 -16 60 96 203 -16 b 777 275 636 -16 777 96 b 492 544 777 415 695 493 l 390 571 b 203 724 257 606 203 650 b 418 885 203 819 291 885 b 641 715 545 885 630 821 l 763 715 b 422 995 758 880 616 995 b 76 718 218 995 76 881 b 336 460 76 585 156 506 l 462 427 b 651 260 593 393 651 342 b 422 94 651 163 555 94 b 171 269 283 94 182 163 z m 370 1044 l 473 1044 l 665 1219 l 547 1219 l 424 1105 l 420 1105 l 297 1219 l 179 1219 z m 422 1244 b 496 1318 463 1244 496 1277 b 422 1392 496 1360 463 1392 b 348 1318 380 1392 348 1360 b 422 1244 348 1277 380 1244 z "},"Ŝ":{"ha":825,"x_min":0,"x_max":0,"o":"m 48 269 b 411 -16 60 96 203 -16 b 777 275 636 -16 777 96 b 492 544 777 415 695 493 l 390 571 b 203 724 257 606 203 650 b 418 885 203 819 291 885 b 641 715 545 885 630 821 l 763 715 b 422 995 758 880 616 995 b 76 718 218 995 76 881 b 336 460 76 585 156 506 l 462 427 b 651 260 593 393 651 342 b 422 94 651 163 555 94 b 171 269 283 94 182 163 z m 376 1246 l 184 1044 l 297 1044 l 420 1175 l 424 1175 l 547 1044 l 659 1044 l 467 1246 z "},"Ṥ":{"ha":825,"x_min":0,"x_max":0,"o":"m 48 269 b 411 -16 60 96 203 -16 b 777 275 636 -16 777 96 b 492 544 777 415 695 493 l 390 571 b 203 724 257 606 203 650 b 418 885 203 819 291 885 b 641 715 545 885 630 821 l 763 715 b 422 995 758 880 616 995 b 76 718 218 995 76 881 b 336 460 76 585 156 506 l 462 427 b 651 260 593 393 651 342 b 422 94 651 163 555 94 b 171 269 283 94 182 163 z m 553 1058 l 729 1254 l 597 1254 l 448 1058 z m 302 1085 b 384 1167 347 1085 384 1122 b 302 1249 384 1213 347 1249 b 220 1167 256 1249 220 1213 b 302 1085 220 1122 256 1085 z "},"Ś":{"ha":825,"x_min":0,"x_max":0,"o":"m 48 269 b 411 -16 60 96 203 -16 b 777 275 636 -16 777 96 b 492 544 777 415 695 493 l 390 571 b 203 724 257 606 203 650 b 418 885 203 819 291 885 b 641 715 545 885 630 821 l 763 715 b 422 995 758 880 616 995 b 76 718 218 995 76 881 b 336 460 76 585 156 506 l 462 427 b 651 260 593 393 651 342 b 422 94 651 163 555 94 b 171 269 283 94 182 163 z m 483 1058 l 659 1254 l 528 1254 l 378 1058 z "},"ẞ":{"ha":1649,"x_min":0,"x_max":0,"o":"m 48 269 b 411 -16 60 96 203 -16 b 777 275 636 -16 777 96 b 492 544 777 415 695 493 l 390 571 b 203 724 257 606 203 650 b 418 885 203 819 291 885 b 641 715 545 885 630 821 l 763 715 b 422 995 758 880 616 995 b 76 718 218 995 76 881 b 336 460 76 585 156 506 l 462 427 b 651 260 593 393 651 342 b 422 94 651 163 555 94 b 171 269 283 94 182 163 z m 873 269 b 1236 -16 884 96 1028 -16 b 1602 275 1461 -16 1602 96 b 1317 544 1602 415 1520 493 l 1215 571 b 1027 724 1082 606 1027 650 b 1242 885 1027 819 1116 885 b 1466 715 1370 885 1455 821 l 1588 715 b 1246 995 1582 880 1441 995 b 901 718 1043 995 901 881 b 1161 460 901 585 981 506 l 1286 427 b 1476 260 1418 393 1476 342 b 1247 94 1476 163 1379 94 b 996 269 1107 94 1007 163 z "},"T":{"ha":807,"x_min":0,"x_max":0,"o":"m 465 0 l 465 869 l 773 869 l 773 979 l 34 979 l 34 869 l 342 869 l 342 0 z "},"Ṱ":{"ha":807,"x_min":0,"x_max":0,"o":"m 465 0 l 465 869 l 773 869 l 773 979 l 34 979 l 34 869 l 342 869 l 342 0 z m 358 -86 l 166 -288 l 279 -288 l 401 -158 l 406 -158 l 528 -288 l 641 -288 l 449 -86 z "},"Ṭ":{"ha":807,"x_min":0,"x_max":0,"o":"m 465 0 l 465 869 l 773 869 l 773 979 l 34 979 l 34 869 l 342 869 l 342 0 z m 404 -264 b 486 -182 449 -264 486 -227 b 404 -100 486 -136 449 -100 b 321 -182 358 -100 321 -136 b 404 -264 321 -227 358 -264 z "},"Ț":{"ha":807,"x_min":0,"x_max":0,"o":"m 465 0 l 465 869 l 773 869 l 773 979 l 34 979 l 34 869 l 342 869 l 342 0 z m 365 -330 l 456 -86 l 353 -86 l 279 -330 z "},"Ṫ":{"ha":807,"x_min":0,"x_max":0,"o":"m 465 0 l 465 869 l 773 869 l 773 979 l 34 979 l 34 869 l 342 869 l 342 0 z m 404 1075 b 486 1157 449 1075 486 1112 b 404 1239 486 1202 449 1239 b 321 1157 358 1239 321 1202 b 404 1075 321 1112 358 1075 z "},"Ţ":{"ha":807,"x_min":0,"x_max":0,"o":"m 465 5 l 465 869 l 773 869 l 773 979 l 34 979 l 34 869 l 342 869 l 342 0 l 378 0 l 336 -108 l 336 -155 l 383 -155 b 482 -198 452 -155 482 -167 b 396 -247 482 -229 452 -247 b 311 -239 368 -247 326 -242 l 311 -308 b 413 -317 329 -313 374 -318 b 572 -197 501 -316 572 -274 b 427 -88 572 -127 515 -90 l 465 0 z "},"Ṯ":{"ha":807,"x_min":0,"x_max":0,"o":"m 465 0 l 465 869 l 773 869 l 773 979 l 34 979 l 34 869 l 342 869 l 342 0 z m 618 -147 l 189 -147 l 189 -226 l 618 -226 z "},"Ť":{"ha":807,"x_min":0,"x_max":0,"o":"m 465 0 l 465 869 l 773 869 l 773 979 l 34 979 l 34 869 l 342 869 l 342 0 z m 358 1051 l 449 1051 l 641 1253 l 528 1253 l 406 1123 l 401 1123 l 279 1253 l 166 1253 z "},"Ŧ":{"ha":807,"x_min":0,"x_max":0,"o":"m 773 869 l 773 979 l 34 979 l 34 869 l 342 869 l 342 538 l 136 538 l 136 441 l 342 441 l 342 0 l 465 0 l 465 441 l 671 441 l 671 538 l 465 538 l 465 869 z "},"U":{"ha":967,"x_min":0,"x_max":0,"o":"m 217 979 l 95 979 l 95 343 b 484 -16 95 134 241 -16 b 872 343 726 -16 872 134 l 872 979 l 750 979 l 750 351 b 484 96 750 203 653 96 b 217 351 314 96 217 203 z "},"Ù":{"ha":967,"x_min":0,"x_max":0,"o":"m 217 979 l 95 979 l 95 343 b 484 -16 95 134 241 -16 b 872 343 726 -16 872 134 l 872 979 l 750 979 l 750 351 b 484 96 750 203 653 96 b 217 351 314 96 217 203 z m 422 1058 l 527 1058 l 378 1254 l 246 1254 z "},"Ȕ":{"ha":967,"x_min":0,"x_max":0,"o":"m 217 979 l 95 979 l 95 343 b 484 -16 95 134 241 -16 b 872 343 726 -16 872 134 l 872 979 l 750 979 l 750 351 b 484 96 750 203 653 96 b 217 351 314 96 217 203 z m 531 1058 l 635 1058 l 486 1254 l 355 1254 z m 314 1058 l 418 1058 l 269 1254 l 138 1254 z "},"Ú":{"ha":967,"x_min":0,"x_max":0,"o":"m 217 979 l 95 979 l 95 343 b 484 -16 95 134 241 -16 b 872 343 726 -16 872 134 l 872 979 l 750 979 l 750 351 b 484 96 750 203 653 96 b 217 351 314 96 217 203 z m 545 1058 l 721 1254 l 589 1254 l 440 1058 z "},"Ű":{"ha":967,"x_min":0,"x_max":0,"o":"m 217 979 l 95 979 l 95 343 b 484 -16 95 134 241 -16 b 872 343 726 -16 872 134 l 872 979 l 750 979 l 750 351 b 484 96 750 203 653 96 b 217 351 314 96 217 203 z m 653 1058 l 829 1254 l 698 1254 l 549 1058 z m 436 1058 l 612 1254 l 481 1254 l 332 1058 z "},"Û":{"ha":967,"x_min":0,"x_max":0,"o":"m 217 979 l 95 979 l 95 343 b 484 -16 95 134 241 -16 b 872 343 726 -16 872 134 l 872 979 l 750 979 l 750 351 b 484 96 750 203 653 96 b 217 351 314 96 217 203 z m 438 1246 l 246 1044 l 359 1044 l 481 1175 l 486 1175 l 608 1044 l 721 1044 l 529 1246 z "},"Ǔ":{"ha":967,"x_min":0,"x_max":0,"o":"m 217 979 l 95 979 l 95 343 b 484 -16 95 134 241 -16 b 872 343 726 -16 872 134 l 872 979 l 750 979 l 750 351 b 484 96 750 203 653 96 b 217 351 314 96 217 203 z m 438 1051 l 529 1051 l 721 1253 l 608 1253 l 486 1123 l 481 1123 l 359 1253 l 246 1253 z "},"Ṷ":{"ha":967,"x_min":0,"x_max":0,"o":"m 217 979 l 95 979 l 95 343 b 484 -16 95 134 241 -16 b 872 343 726 -16 872 134 l 872 979 l 750 979 l 750 351 b 484 96 750 203 653 96 b 217 351 314 96 217 203 z m 438 -86 l 246 -288 l 359 -288 l 481 -158 l 486 -158 l 608 -288 l 721 -288 l 529 -86 z "},"Ü":{"ha":967,"x_min":0,"x_max":0,"o":"m 217 979 l 95 979 l 95 343 b 484 -16 95 134 241 -16 b 872 343 726 -16 872 134 l 872 979 l 750 979 l 750 351 b 484 96 750 203 653 96 b 217 351 314 96 217 203 z m 357 1088 b 432 1162 398 1088 432 1121 b 357 1237 432 1204 398 1237 b 283 1162 317 1237 283 1204 b 357 1088 283 1121 317 1088 z m 610 1088 b 684 1162 650 1088 684 1121 b 610 1237 684 1204 650 1237 b 535 1162 569 1237 535 1204 b 610 1088 535 1121 569 1088 z "},"Ǜ":{"ha":967,"x_min":0,"x_max":0,"o":"m 217 979 l 95 979 l 95 343 b 484 -16 95 134 241 -16 b 872 343 726 -16 872 134 l 872 979 l 750 979 l 750 351 b 484 96 750 203 653 96 b 217 351 314 96 217 203 z m 532 1241 l 418 1388 l 303 1388 l 433 1241 z m 363 1054 b 434 1126 402 1054 434 1086 b 363 1198 434 1166 402 1198 b 292 1126 324 1198 292 1166 b 363 1054 292 1086 324 1054 z m 604 1054 b 675 1126 643 1054 675 1086 b 604 1198 675 1166 643 1198 b 533 1126 565 1198 533 1166 b 604 1054 533 1086 565 1054 z "},"Ǘ":{"ha":967,"x_min":0,"x_max":0,"o":"m 217 979 l 95 979 l 95 343 b 484 -16 95 134 241 -16 b 872 343 726 -16 872 134 l 872 979 l 750 979 l 750 351 b 484 96 750 203 653 96 b 217 351 314 96 217 203 z m 428 1241 l 527 1241 l 657 1388 l 542 1388 z m 363 1054 b 434 1126 402 1054 434 1086 b 363 1198 434 1166 402 1198 b 292 1126 324 1198 292 1166 b 363 1054 292 1086 324 1054 z m 604 1054 b 675 1126 643 1054 675 1086 b 604 1198 675 1166 643 1198 b 533 1126 565 1198 533 1166 b 604 1054 533 1086 565 1054 z "},"Ǖ":{"ha":967,"x_min":0,"x_max":0,"o":"m 217 979 l 95 979 l 95 343 b 484 -16 95 134 241 -16 b 872 343 726 -16 872 134 l 872 979 l 750 979 l 750 351 b 484 96 750 203 653 96 b 217 351 314 96 217 203 z m 363 1198 b 292 1126 324 1198 292 1166 b 363 1054 292 1086 324 1054 b 434 1126 402 1054 434 1086 b 363 1198 434 1166 402 1198 z m 269 1373 l 269 1295 l 699 1295 l 699 1373 z m 604 1198 b 533 1126 565 1198 533 1166 b 604 1054 533 1086 565 1054 b 675 1126 643 1054 675 1086 b 604 1198 675 1166 643 1198 z "},"Ǚ":{"ha":967,"x_min":0,"x_max":0,"o":"m 217 979 l 95 979 l 95 343 b 484 -16 95 134 241 -16 b 872 343 726 -16 872 134 l 872 979 l 750 979 l 750 351 b 484 96 750 203 653 96 b 217 351 314 96 217 203 z m 432 1232 l 535 1232 l 714 1389 l 596 1389 l 486 1291 l 481 1291 l 371 1389 l 253 1389 z m 363 1198 b 292 1126 324 1198 292 1166 b 363 1054 292 1086 324 1054 b 434 1126 402 1054 434 1086 b 363 1198 434 1166 402 1198 z m 604 1198 b 533 1126 565 1198 533 1166 b 604 1054 533 1086 565 1054 b 675 1126 643 1054 675 1086 b 604 1198 675 1166 643 1198 z "},"Ṳ":{"ha":967,"x_min":0,"x_max":0,"o":"m 217 979 l 95 979 l 95 343 b 484 -16 95 134 241 -16 b 872 343 726 -16 872 134 l 872 979 l 750 979 l 750 351 b 484 96 750 203 653 96 b 217 351 314 96 217 203 z m 357 -230 b 432 -155 398 -230 432 -197 b 357 -81 432 -114 398 -81 b 283 -155 317 -81 283 -114 b 357 -230 283 -197 317 -230 z m 610 -230 b 684 -155 650 -230 684 -197 b 610 -81 684 -114 650 -81 b 535 -155 569 -81 535 -114 b 610 -230 535 -197 569 -230 z "},"Ṵ":{"ha":967,"x_min":0,"x_max":0,"o":"m 217 979 l 95 979 l 95 343 b 484 -16 95 134 241 -16 b 872 343 726 -16 872 134 l 872 979 l 750 979 l 750 351 b 484 96 750 203 653 96 b 217 351 314 96 217 203 z m 572 -233 b 700 -60 646 -233 700 -168 l 620 -60 b 573 -157 620 -125 602 -157 b 396 -54 522 -157 492 -54 b 267 -227 319 -54 267 -115 l 347 -227 b 395 -130 345 -163 364 -130 b 572 -233 449 -130 483 -233 z "},"Ủ":{"ha":967,"x_min":0,"x_max":0,"o":"m 217 979 l 95 979 l 95 343 b 484 -16 95 134 241 -16 b 872 343 726 -16 872 134 l 872 979 l 750 979 l 750 351 b 484 96 750 203 653 96 b 217 351 314 96 217 203 z m 375 1189 b 443 1202 395 1198 420 1202 b 502 1156 477 1202 502 1181 b 441 1088 502 1126 477 1100 l 481 1036 b 589 1160 546 1057 589 1105 b 457 1269 589 1227 534 1269 b 375 1254 428 1269 398 1264 z "},"Ŭ":{"ha":967,"x_min":0,"x_max":0,"o":"m 217 979 l 95 979 l 95 343 b 484 -16 95 134 241 -16 b 872 343 726 -16 872 134 l 872 979 l 750 979 l 750 351 b 484 96 750 203 653 96 b 217 351 314 96 217 203 z m 266 1253 b 484 1046 275 1142 353 1046 b 701 1253 614 1046 692 1142 l 615 1253 b 484 1122 607 1171 555 1122 b 352 1253 412 1122 360 1171 z "},"Ȗ":{"ha":967,"x_min":0,"x_max":0,"o":"m 217 979 l 95 979 l 95 343 b 484 -16 95 134 241 -16 b 872 343 726 -16 872 134 l 872 979 l 750 979 l 750 351 b 484 96 750 203 653 96 b 217 351 314 96 217 203 z m 266 1046 l 352 1046 b 484 1177 360 1128 412 1177 b 615 1046 555 1177 607 1128 l 701 1046 b 484 1253 692 1157 614 1253 b 266 1046 353 1253 275 1157 z "},"Ṹ":{"ha":967,"x_min":0,"x_max":0,"o":"m 217 979 l 95 979 l 95 343 b 484 -16 95 134 241 -16 b 872 343 726 -16 872 134 l 872 979 l 750 979 l 750 351 b 484 96 750 203 653 96 b 217 351 314 96 217 203 z m 569 1046 b 690 1208 640 1046 690 1109 l 615 1208 b 570 1120 615 1151 598 1120 b 399 1220 517 1120 484 1220 b 277 1059 326 1220 277 1160 l 352 1059 b 399 1146 349 1114 369 1146 b 569 1046 450 1146 483 1046 z m 439 1255 l 538 1255 l 668 1388 l 553 1388 z "},"Ụ":{"ha":967,"x_min":0,"x_max":0,"o":"m 217 979 l 95 979 l 95 343 b 484 -16 95 134 241 -16 b 872 343 726 -16 872 134 l 872 979 l 750 979 l 750 351 b 484 96 750 203 653 96 b 217 351 314 96 217 203 z m 484 -264 b 566 -182 529 -264 566 -227 b 484 -100 566 -136 529 -100 b 401 -182 438 -100 401 -136 b 484 -264 401 -227 438 -264 z "},"Ũ":{"ha":967,"x_min":0,"x_max":0,"o":"m 217 979 l 95 979 l 95 343 b 484 -16 95 134 241 -16 b 872 343 726 -16 872 134 l 872 979 l 750 979 l 750 351 b 484 96 750 203 653 96 b 217 351 314 96 217 203 z m 572 1072 b 700 1245 646 1072 700 1137 l 620 1245 b 573 1148 620 1180 602 1148 b 396 1251 522 1148 492 1251 b 267 1078 319 1251 267 1190 l 347 1078 b 395 1175 345 1141 364 1175 b 572 1072 449 1175 483 1072 z "},"Ū":{"ha":967,"x_min":0,"x_max":0,"o":"m 217 979 l 95 979 l 95 343 b 484 -16 95 134 241 -16 b 872 343 726 -16 872 134 l 872 979 l 750 979 l 750 351 b 484 96 750 203 653 96 b 217 351 314 96 217 203 z m 699 1187 l 269 1187 l 269 1108 l 699 1108 z "},"Ṻ":{"ha":967,"x_min":0,"x_max":0,"o":"m 217 979 l 95 979 l 95 343 b 484 -16 95 134 241 -16 b 872 343 726 -16 872 134 l 872 979 l 750 979 l 750 351 b 484 96 750 203 653 96 b 217 351 314 96 217 203 z m 699 1080 l 699 1158 l 269 1158 l 269 1080 z m 363 1244 b 434 1316 402 1244 434 1276 b 363 1388 434 1356 402 1388 b 292 1316 324 1388 292 1356 b 363 1244 292 1276 324 1244 z m 604 1244 b 675 1316 643 1244 675 1276 b 604 1388 675 1356 643 1388 b 533 1316 565 1388 533 1356 b 604 1244 533 1276 565 1244 z "},"Ů":{"ha":967,"x_min":0,"x_max":0,"o":"m 217 979 l 95 979 l 95 343 b 484 -16 95 134 241 -16 b 872 343 726 -16 872 134 l 872 979 l 750 979 l 750 351 b 484 96 750 203 653 96 b 217 351 314 96 217 203 z m 484 1028 b 613 1158 555 1028 613 1086 b 484 1287 613 1229 555 1287 b 354 1158 412 1287 354 1229 b 484 1028 354 1086 412 1028 z m 484 1088 b 414 1158 445 1088 414 1119 b 484 1227 414 1196 445 1227 b 553 1158 522 1227 553 1196 b 484 1088 553 1119 522 1088 z "},"Ų":{"ha":967,"x_min":0,"x_max":0,"o":"m 640 -292 b 720 -280 677 -292 708 -286 l 720 -198 b 665 -204 704 -201 684 -204 b 585 -138 621 -204 585 -182 b 696 15 585 -91 631 -41 b 872 343 817 120 872 214 l 872 979 l 750 979 l 750 351 b 484 96 750 196 646 96 b 217 351 321 96 217 196 l 217 979 l 95 979 l 95 343 b 484 -16 95 126 250 -16 b 579 0 513 -16 548 -9 l 579 -3 b 486 -164 519 -52 486 -104 b 640 -292 486 -241 552 -292 z "},"Ư":{"ha":1067,"x_min":0,"x_max":0,"o":"m 484 -16 b 872 343 718 -16 872 126 l 872 892 l 906 892 b 1043 1018 991 892 1043 939 l 1043 1146 l 935 1146 l 935 1038 b 873 979 935 998 916 979 l 750 979 l 750 351 b 484 96 750 196 646 96 b 217 351 321 96 217 196 l 217 979 l 95 979 l 95 343 b 484 -16 95 126 250 -16 z "},"Ừ":{"ha":1067,"x_min":0,"x_max":0,"o":"m 484 -16 b 872 343 718 -16 872 126 l 872 892 l 906 892 b 1043 1018 991 892 1043 939 l 1043 1146 l 935 1146 l 935 1038 b 873 979 935 998 916 979 l 750 979 l 750 351 b 484 96 750 196 646 96 b 217 351 321 96 217 196 l 217 979 l 95 979 l 95 343 b 484 -16 95 126 250 -16 z m 422 1058 l 527 1058 l 378 1254 l 246 1254 z "},"Ứ":{"ha":1067,"x_min":0,"x_max":0,"o":"m 484 -16 b 872 343 718 -16 872 126 l 872 892 l 906 892 b 1043 1018 991 892 1043 939 l 1043 1146 l 935 1146 l 935 1038 b 873 979 935 998 916 979 l 750 979 l 750 351 b 484 96 750 196 646 96 b 217 351 321 96 217 196 l 217 979 l 95 979 l 95 343 b 484 -16 95 126 250 -16 z m 545 1058 l 721 1254 l 589 1254 l 440 1058 z "},"Ự":{"ha":1067,"x_min":0,"x_max":0,"o":"m 484 -16 b 872 343 718 -16 872 126 l 872 892 l 906 892 b 1043 1018 991 892 1043 939 l 1043 1146 l 935 1146 l 935 1038 b 873 979 935 998 916 979 l 750 979 l 750 351 b 484 96 750 196 646 96 b 217 351 321 96 217 196 l 217 979 l 95 979 l 95 343 b 484 -16 95 126 250 -16 z m 484 -264 b 566 -182 529 -264 566 -227 b 484 -100 566 -136 529 -100 b 401 -182 438 -100 401 -136 b 484 -264 401 -227 438 -264 z "},"Ử":{"ha":1067,"x_min":0,"x_max":0,"o":"m 484 -16 b 872 343 718 -16 872 126 l 872 892 l 906 892 b 1043 1018 991 892 1043 939 l 1043 1146 l 935 1146 l 935 1038 b 873 979 935 998 916 979 l 750 979 l 750 351 b 484 96 750 196 646 96 b 217 351 321 96 217 196 l 217 979 l 95 979 l 95 343 b 484 -16 95 126 250 -16 z m 375 1189 b 443 1202 395 1198 420 1202 b 502 1156 477 1202 502 1181 b 441 1088 502 1126 477 1100 l 481 1036 b 589 1160 546 1057 589 1105 b 457 1269 589 1227 534 1269 b 375 1254 428 1269 398 1264 z "},"Ữ":{"ha":1067,"x_min":0,"x_max":0,"o":"m 484 -16 b 872 343 718 -16 872 126 l 872 892 l 906 892 b 1043 1018 991 892 1043 939 l 1043 1146 l 935 1146 l 935 1038 b 873 979 935 998 916 979 l 750 979 l 750 351 b 484 96 750 196 646 96 b 217 351 321 96 217 196 l 217 979 l 95 979 l 95 343 b 484 -16 95 126 250 -16 z m 572 1072 b 700 1245 646 1072 700 1137 l 620 1245 b 573 1148 620 1180 602 1148 b 396 1251 522 1148 492 1251 b 267 1078 319 1251 267 1190 l 347 1078 b 395 1175 345 1141 364 1175 b 572 1072 449 1175 483 1072 z "},"V":{"ha":876,"x_min":0,"x_max":0,"o":"m 498 0 l 859 979 l 731 979 l 440 149 l 436 149 l 145 979 l 17 979 l 378 0 z "},"Ṽ":{"ha":876,"x_min":0,"x_max":0,"o":"m 498 0 l 859 979 l 731 979 l 440 149 l 436 149 l 145 979 l 17 979 l 378 0 z m 527 1072 b 654 1245 601 1072 654 1137 l 574 1245 b 528 1148 574 1180 556 1148 b 351 1251 477 1148 446 1251 b 222 1078 273 1251 222 1190 l 302 1078 b 350 1175 299 1141 319 1175 b 527 1072 404 1175 437 1072 z "},"Ṿ":{"ha":876,"x_min":0,"x_max":0,"o":"m 498 0 l 859 979 l 731 979 l 440 149 l 436 149 l 145 979 l 17 979 l 378 0 z m 438 -264 b 520 -182 484 -264 520 -227 b 438 -100 520 -136 484 -100 b 356 -182 393 -100 356 -136 b 438 -264 356 -227 393 -264 z "},"W":{"ha":1283,"x_min":0,"x_max":0,"o":"m 638 777 l 645 777 l 871 0 l 986 0 l 1253 979 l 1125 979 l 929 180 l 924 180 l 703 979 l 580 979 l 359 180 l 354 180 l 158 979 l 31 979 l 297 0 l 412 0 z "},"Ẁ":{"ha":1283,"x_min":0,"x_max":0,"o":"m 638 777 l 645 777 l 871 0 l 986 0 l 1253 979 l 1125 979 l 929 180 l 924 180 l 703 979 l 580 979 l 359 180 l 354 180 l 158 979 l 31 979 l 297 0 l 412 0 z m 581 1058 l 685 1058 l 536 1254 l 404 1254 z "},"Ẃ":{"ha":1283,"x_min":0,"x_max":0,"o":"m 638 777 l 645 777 l 871 0 l 986 0 l 1253 979 l 1125 979 l 929 180 l 924 180 l 703 979 l 580 979 l 359 180 l 354 180 l 158 979 l 31 979 l 297 0 l 412 0 z m 703 1058 l 879 1254 l 747 1254 l 598 1058 z "},"Ẇ":{"ha":1283,"x_min":0,"x_max":0,"o":"m 638 777 l 645 777 l 871 0 l 986 0 l 1253 979 l 1125 979 l 929 180 l 924 180 l 703 979 l 580 979 l 359 180 l 354 180 l 158 979 l 31 979 l 297 0 l 412 0 z m 642 1075 b 724 1157 687 1075 724 1112 b 642 1239 724 1202 687 1239 b 559 1157 596 1239 559 1202 b 642 1075 559 1112 596 1075 z "},"Ẉ":{"ha":1283,"x_min":0,"x_max":0,"o":"m 638 777 l 645 777 l 871 0 l 986 0 l 1253 979 l 1125 979 l 929 180 l 924 180 l 703 979 l 580 979 l 359 180 l 354 180 l 158 979 l 31 979 l 297 0 l 412 0 z m 642 -264 b 724 -182 687 -264 724 -227 b 642 -100 724 -136 687 -100 b 559 -182 596 -100 559 -136 b 642 -264 559 -227 596 -264 z "},"Ẅ":{"ha":1283,"x_min":0,"x_max":0,"o":"m 638 777 l 645 777 l 871 0 l 986 0 l 1253 979 l 1125 979 l 929 180 l 924 180 l 703 979 l 580 979 l 359 180 l 354 180 l 158 979 l 31 979 l 297 0 l 412 0 z m 515 1088 b 590 1162 556 1088 590 1121 b 515 1237 590 1204 556 1237 b 441 1162 475 1237 441 1204 b 515 1088 441 1121 475 1088 z m 768 1088 b 842 1162 808 1088 842 1121 b 768 1237 842 1204 808 1237 b 693 1162 727 1237 693 1204 b 768 1088 693 1121 727 1088 z "},"Ŵ":{"ha":1283,"x_min":0,"x_max":0,"o":"m 638 777 l 645 777 l 871 0 l 986 0 l 1253 979 l 1125 979 l 929 180 l 924 180 l 703 979 l 580 979 l 359 180 l 354 180 l 158 979 l 31 979 l 297 0 l 412 0 z m 596 1246 l 404 1044 l 517 1044 l 640 1175 l 644 1175 l 766 1044 l 879 1044 l 687 1246 z "},"X":{"ha":882,"x_min":0,"x_max":0,"o":"m 31 0 l 169 0 l 433 390 l 437 390 l 697 0 l 844 0 l 513 485 l 513 489 l 851 979 l 712 979 l 448 585 l 443 585 l 182 979 l 35 979 l 363 495 l 363 490 z "},"Ẋ":{"ha":882,"x_min":0,"x_max":0,"o":"m 31 0 l 169 0 l 433 390 l 437 390 l 697 0 l 844 0 l 513 485 l 513 489 l 851 979 l 712 979 l 448 585 l 443 585 l 182 979 l 35 979 l 363 495 l 363 490 z m 441 1075 b 523 1157 486 1075 523 1112 b 441 1239 523 1202 486 1239 b 359 1157 395 1239 359 1202 b 441 1075 359 1112 395 1075 z "},"Ẍ":{"ha":882,"x_min":0,"x_max":0,"o":"m 31 0 l 169 0 l 433 390 l 437 390 l 697 0 l 844 0 l 513 485 l 513 489 l 851 979 l 712 979 l 448 585 l 443 585 l 182 979 l 35 979 l 363 495 l 363 490 z m 315 1088 b 389 1162 355 1088 389 1121 b 315 1237 389 1204 355 1237 b 240 1162 274 1237 240 1204 b 315 1088 240 1121 274 1088 z m 567 1088 b 642 1162 608 1088 642 1121 b 567 1237 642 1204 608 1237 b 492 1162 526 1237 492 1204 b 567 1088 492 1121 526 1088 z "},"Y":{"ha":850,"x_min":0,"x_max":0,"o":"m 486 0 l 486 421 l 833 979 l 694 979 l 427 539 l 423 539 l 156 979 l 17 979 l 364 421 l 364 0 z "},"Ỳ":{"ha":850,"x_min":0,"x_max":0,"o":"m 486 0 l 486 421 l 833 979 l 694 979 l 427 539 l 423 539 l 156 979 l 17 979 l 364 421 l 364 0 z m 364 1058 l 469 1058 l 319 1254 l 188 1254 z "},"Ý":{"ha":850,"x_min":0,"x_max":0,"o":"m 486 0 l 486 421 l 833 979 l 694 979 l 427 539 l 423 539 l 156 979 l 17 979 l 364 421 l 364 0 z m 486 1058 l 663 1254 l 531 1254 l 382 1058 z "},"Ẏ":{"ha":850,"x_min":0,"x_max":0,"o":"m 486 0 l 486 421 l 833 979 l 694 979 l 427 539 l 423 539 l 156 979 l 17 979 l 364 421 l 364 0 z m 425 1075 b 507 1157 471 1075 507 1112 b 425 1239 507 1202 471 1239 b 343 1157 380 1239 343 1202 b 425 1075 343 1112 380 1075 z "},"Ỵ":{"ha":850,"x_min":0,"x_max":0,"o":"m 486 0 l 486 421 l 833 979 l 694 979 l 427 539 l 423 539 l 156 979 l 17 979 l 364 421 l 364 0 z m 425 -264 b 507 -182 471 -264 507 -227 b 425 -100 507 -136 471 -100 b 343 -182 380 -100 343 -136 b 425 -264 343 -227 380 -264 z "},"Ÿ":{"ha":850,"x_min":0,"x_max":0,"o":"m 486 0 l 486 421 l 833 979 l 694 979 l 427 539 l 423 539 l 156 979 l 17 979 l 364 421 l 364 0 z m 299 1088 b 374 1162 340 1088 374 1121 b 299 1237 374 1204 340 1237 b 224 1162 258 1237 224 1204 b 299 1088 224 1121 258 1088 z m 551 1088 b 626 1162 592 1088 626 1121 b 551 1237 626 1204 592 1237 b 477 1162 511 1237 477 1204 b 551 1088 477 1121 511 1088 z "},"Ỹ":{"ha":850,"x_min":0,"x_max":0,"o":"m 486 0 l 486 421 l 833 979 l 694 979 l 427 539 l 423 539 l 156 979 l 17 979 l 364 421 l 364 0 z m 514 1072 b 642 1245 588 1072 642 1137 l 562 1245 b 515 1148 562 1180 543 1148 b 338 1251 464 1148 433 1251 b 209 1078 260 1251 209 1190 l 289 1078 b 337 1175 286 1141 306 1175 b 514 1072 391 1175 425 1072 z "},"Ŷ":{"ha":850,"x_min":0,"x_max":0,"o":"m 486 0 l 486 421 l 833 979 l 694 979 l 427 539 l 423 539 l 156 979 l 17 979 l 364 421 l 364 0 z m 380 1246 l 188 1044 l 300 1044 l 423 1175 l 427 1175 l 550 1044 l 663 1044 l 471 1246 z "},"Ȳ":{"ha":850,"x_min":0,"x_max":0,"o":"m 486 0 l 486 421 l 833 979 l 694 979 l 427 539 l 423 539 l 156 979 l 17 979 l 364 421 l 364 0 z m 640 1187 l 210 1187 l 210 1108 l 640 1108 z "},"Ỷ":{"ha":850,"x_min":0,"x_max":0,"o":"m 486 0 l 486 421 l 833 979 l 694 979 l 427 539 l 423 539 l 156 979 l 17 979 l 364 421 l 364 0 z m 317 1189 b 385 1202 336 1198 362 1202 b 444 1156 418 1202 444 1181 b 382 1088 444 1126 419 1100 l 423 1036 b 531 1160 488 1057 531 1105 b 399 1269 531 1227 476 1269 b 317 1254 370 1269 340 1264 z "},"Z":{"ha":857,"x_min":0,"x_max":0,"o":"m 66 0 l 790 0 l 790 110 l 223 110 l 223 115 l 779 892 l 779 979 l 85 979 l 85 869 l 625 869 l 625 864 l 66 87 z "},"Ź":{"ha":857,"x_min":0,"x_max":0,"o":"m 66 0 l 790 0 l 790 110 l 223 110 l 223 115 l 779 892 l 779 979 l 85 979 l 85 869 l 625 869 l 625 864 l 66 87 z m 490 1058 l 666 1254 l 534 1254 l 385 1058 z "},"Ž":{"ha":857,"x_min":0,"x_max":0,"o":"m 66 0 l 790 0 l 790 110 l 223 110 l 223 115 l 779 892 l 779 979 l 85 979 l 85 869 l 625 869 l 625 864 l 66 87 z m 383 1051 l 474 1051 l 666 1253 l 553 1253 l 431 1123 l 427 1123 l 304 1253 l 191 1253 z "},"Ẑ":{"ha":857,"x_min":0,"x_max":0,"o":"m 66 0 l 790 0 l 790 110 l 223 110 l 223 115 l 779 892 l 779 979 l 85 979 l 85 869 l 625 869 l 625 864 l 66 87 z m 383 1246 l 191 1044 l 304 1044 l 427 1175 l 431 1175 l 553 1044 l 666 1044 l 474 1246 z "},"Ẕ":{"ha":857,"x_min":0,"x_max":0,"o":"m 66 0 l 790 0 l 790 110 l 223 110 l 223 115 l 779 892 l 779 979 l 85 979 l 85 869 l 625 869 l 625 864 l 66 87 z m 644 -147 l 214 -147 l 214 -226 l 644 -226 z "},"Ẓ":{"ha":857,"x_min":0,"x_max":0,"o":"m 66 0 l 790 0 l 790 110 l 223 110 l 223 115 l 779 892 l 779 979 l 85 979 l 85 869 l 625 869 l 625 864 l 66 87 z m 429 -264 b 511 -182 474 -264 511 -227 b 429 -100 511 -136 474 -100 b 347 -182 383 -100 347 -136 b 429 -264 347 -227 383 -264 z "},"Ż":{"ha":857,"x_min":0,"x_max":0,"o":"m 66 0 l 790 0 l 790 110 l 223 110 l 223 115 l 779 892 l 779 979 l 85 979 l 85 869 l 625 869 l 625 864 l 66 87 z m 429 1075 b 511 1157 474 1075 511 1112 b 429 1239 511 1202 474 1239 b 347 1157 383 1239 347 1202 b 429 1075 347 1112 383 1075 z "},"Æ":{"ha":1338,"x_min":0,"x_max":0,"o":"m 544 876 l 652 876 l 652 415 l 326 415 z m 652 0 l 1245 0 l 1245 110 l 774 110 l 774 439 l 1220 439 l 1220 548 l 774 548 l 774 869 l 1245 869 l 1245 979 l 469 979 l 3 0 l 129 0 l 276 311 l 652 311 z "},"Ǣ":{"ha":1338,"x_min":0,"x_max":0,"o":"m 544 876 l 652 876 l 652 415 l 326 415 z m 652 0 l 1245 0 l 1245 110 l 774 110 l 774 439 l 1220 439 l 1220 548 l 774 548 l 774 869 l 1245 869 l 1245 979 l 469 979 l 3 0 l 129 0 l 276 311 l 652 311 z m 1164 1187 l 734 1187 l 734 1108 l 1164 1108 z "},"Ǽ":{"ha":1338,"x_min":0,"x_max":0,"o":"m 544 876 l 652 876 l 652 415 l 326 415 z m 652 0 l 1245 0 l 1245 110 l 774 110 l 774 439 l 1220 439 l 1220 548 l 774 548 l 774 869 l 1245 869 l 1245 979 l 469 979 l 3 0 l 129 0 l 276 311 l 652 311 z m 874 1058 l 1050 1254 l 919 1254 l 770 1058 z "},"Œ":{"ha":1503,"x_min":0,"x_max":0,"o":"m 513 882 b 842 489 714 882 842 730 b 513 96 842 248 715 96 b 182 489 310 96 182 248 b 513 882 182 730 310 882 z m 844 0 l 1437 0 l 1437 110 l 966 110 l 966 446 l 1411 446 l 1411 555 l 966 555 l 966 869 l 1437 869 l 1437 979 l 844 979 l 844 827 l 844 827 b 513 995 777 935 659 995 b 57 489 233 995 57 800 b 513 -16 57 178 233 -16 b 844 155 656 -16 777 46 l 844 155 z "},"Ð":{"ha":958,"x_min":0,"x_max":0,"o":"m 226 110 l 226 450 l 414 450 l 414 560 l 226 560 l 226 869 l 425 869 b 770 488 647 869 770 733 b 425 110 770 245 646 110 z m 104 979 l 104 560 l 16 560 l 16 450 l 104 450 l 104 0 l 433 0 b 895 490 724 0 895 181 b 433 979 895 798 723 979 z "},"Þ":{"ha":836,"x_min":0,"x_max":0,"o":"m 109 979 l 109 0 l 231 0 l 231 234 l 482 234 b 770 517 631 234 770 338 b 484 798 770 696 633 798 l 231 798 l 231 979 z m 231 690 l 449 690 b 644 517 562 690 644 633 b 449 342 644 400 562 342 l 231 342 z "},"Α":{"ha":876,"x_min":0,"x_max":0,"o":"m 731 0 l 859 0 l 498 979 l 378 979 l 17 0 l 145 0 l 243 280 l 633 280 z m 436 830 l 440 830 l 597 384 l 279 384 z "},"Β":{"ha":840,"x_min":0,"x_max":0,"o":"m 465 0 b 796 275 673 0 796 102 b 578 515 796 405 711 498 l 578 521 b 747 734 672 538 747 633 b 466 979 747 881 633 979 l 95 979 l 95 0 z m 217 871 l 438 871 b 623 720 557 871 623 817 b 400 557 623 614 545 557 l 217 557 z m 217 108 l 217 452 l 435 452 b 671 281 591 452 671 394 b 446 108 671 168 593 108 z "},"Γ":{"ha":720,"x_min":0,"x_max":0,"o":"m 217 0 l 217 869 l 675 869 l 675 979 l 95 979 l 95 0 z "},"Δ":{"ha":880,"x_min":0,"x_max":0,"o":"m 843 0 l 843 86 l 500 979 l 380 979 l 37 86 l 37 0 z m 174 115 l 438 837 l 442 837 l 707 115 l 707 110 l 174 110 z "},"Ε":{"ha":767,"x_min":0,"x_max":0,"o":"m 701 110 l 217 110 l 217 446 l 676 446 l 676 555 l 217 555 l 217 869 l 701 869 l 701 979 l 95 979 l 95 0 l 701 0 z "},"Ζ":{"ha":857,"x_min":0,"x_max":0,"o":"m 66 0 l 790 0 l 790 110 l 223 110 l 223 115 l 779 892 l 779 979 l 85 979 l 85 869 l 625 869 l 625 864 l 66 87 z "},"Η":{"ha":971,"x_min":0,"x_max":0,"o":"m 876 0 l 876 979 l 754 979 l 754 555 l 217 555 l 217 979 l 95 979 l 95 0 l 217 0 l 217 446 l 754 446 l 754 0 z "},"Θ":{"ha":1023,"x_min":0,"x_max":0,"o":"m 717 433 l 717 543 l 307 543 l 307 433 z m 511 995 b 57 489 230 995 57 800 b 511 -16 57 178 229 -16 b 966 489 795 -16 966 178 b 511 995 966 800 795 995 z m 511 882 b 840 489 718 882 840 730 b 511 96 840 248 717 96 b 182 489 307 96 182 248 b 511 882 182 730 307 882 z "},"Ι":{"ha":312,"x_min":0,"x_max":0,"o":"m 217 0 l 217 979 l 95 979 l 95 0 z "},"Κ":{"ha":854,"x_min":0,"x_max":0,"o":"m 217 0 l 217 342 l 323 458 l 690 0 l 846 0 l 408 545 l 810 979 l 656 979 l 224 501 l 217 501 l 217 979 l 95 979 l 95 0 z "},"Λ":{"ha":849,"x_min":0,"x_max":0,"o":"m 704 0 l 832 0 l 485 979 l 364 979 l 17 0 l 145 0 l 422 823 l 427 823 z "},"Μ":{"ha":1154,"x_min":0,"x_max":0,"o":"m 1059 0 l 1059 979 l 918 979 l 580 162 l 574 162 l 237 979 l 95 979 l 95 0 l 209 0 l 209 754 l 214 754 l 526 7 l 629 7 l 941 754 l 945 754 l 945 0 z "},"Ν":{"ha":971,"x_min":0,"x_max":0,"o":"m 216 0 l 216 766 l 222 766 l 758 0 l 876 0 l 876 979 l 755 979 l 755 210 l 749 210 l 214 979 l 95 979 l 95 0 z "},"Ξ":{"ha":850,"x_min":0,"x_max":0,"o":"m 66 979 l 66 867 l 784 867 l 784 979 z m 725 444 l 725 553 l 125 553 l 125 444 z m 66 111 l 66 0 l 784 0 l 784 111 z "},"Ο":{"ha":1016,"x_min":0,"x_max":0,"o":"m 508 995 b 57 489 231 995 57 800 b 508 -16 57 178 231 -16 b 959 489 785 -16 959 178 b 508 995 959 800 785 995 z m 508 882 b 833 489 708 882 833 730 b 508 96 833 248 708 96 b 182 489 308 96 182 248 b 508 882 182 730 308 882 z "},"Π":{"ha":958,"x_min":0,"x_max":0,"o":"m 863 0 l 863 979 l 95 979 l 95 0 l 217 0 l 217 869 l 741 869 l 741 0 z "},"Ρ":{"ha":802,"x_min":0,"x_max":0,"o":"m 95 979 l 95 0 l 217 0 l 217 349 l 443 349 b 758 665 627 349 758 479 b 444 979 758 850 628 979 z m 217 870 l 412 870 b 632 665 553 870 632 794 b 412 458 632 534 552 458 l 217 458 z "},"Σ":{"ha":836,"x_min":0,"x_max":0,"o":"m 214 115 l 481 498 l 481 503 l 229 864 l 229 869 l 751 869 l 751 979 l 78 979 l 78 882 l 351 492 l 66 87 l 66 0 l 770 0 l 770 110 l 214 110 z "},"Τ":{"ha":807,"x_min":0,"x_max":0,"o":"m 465 0 l 465 869 l 773 869 l 773 979 l 34 979 l 34 869 l 342 869 l 342 0 z "},"Υ":{"ha":850,"x_min":0,"x_max":0,"o":"m 486 0 l 486 421 l 833 979 l 694 979 l 427 539 l 423 539 l 156 979 l 17 979 l 364 421 l 364 0 z "},"Φ":{"ha":1104,"x_min":0,"x_max":0,"o":"m 929 487 b 613 167 929 294 810 174 l 613 807 b 929 487 810 800 929 680 z m 175 487 b 491 807 175 680 294 800 l 491 167 b 175 487 294 174 175 294 z m 613 -39 l 613 58 b 1054 487 883 70 1054 237 b 613 916 1054 737 883 904 l 613 1015 l 491 1015 l 491 916 b 50 487 221 904 50 737 b 491 58 50 237 221 70 l 491 -39 z "},"Χ":{"ha":882,"x_min":0,"x_max":0,"o":"m 31 0 l 169 0 l 433 390 l 437 390 l 697 0 l 844 0 l 513 485 l 513 489 l 851 979 l 712 979 l 448 585 l 443 585 l 182 979 l 35 979 l 363 495 l 363 490 z "},"Ψ":{"ha":1070,"x_min":0,"x_max":0,"o":"m 596 0 l 596 230 b 989 609 831 230 989 382 l 989 979 l 867 979 l 867 613 b 596 342 867 444 770 347 l 596 979 l 474 979 l 474 342 b 203 613 300 347 203 444 l 203 979 l 81 979 l 81 609 b 474 230 81 382 238 231 l 474 0 z "},"Ω":{"ha":1036,"x_min":0,"x_max":0,"o":"m 840 538 b 609 131 840 363 767 236 l 609 0 l 966 0 l 966 110 l 755 110 l 755 115 b 966 541 888 207 966 361 b 518 995 966 809 785 995 b 71 541 251 995 71 809 b 281 115 71 361 148 207 l 281 110 l 71 110 l 71 0 l 427 0 l 427 131 b 196 538 269 236 196 363 b 518 882 196 749 318 882 b 840 538 718 882 840 749 z "},"Ά":{"ha":876,"x_min":0,"x_max":0,"o":"m 731 0 l 859 0 l 498 979 l 378 979 l 17 0 l 145 0 l 243 280 l 633 280 z m 436 830 l 440 830 l 597 384 l 279 384 z m 62 775 l 159 775 l 260 979 l 113 979 z "},"Έ":{"ha":998,"x_min":0,"x_max":0,"o":"m 32 775 l 129 775 l 231 979 l 83 979 z m 932 110 l 448 110 l 448 446 l 907 446 l 907 555 l 448 555 l 448 869 l 932 869 l 932 979 l 326 979 l 326 0 l 932 0 z "},"Ή":{"ha":1202,"x_min":0,"x_max":0,"o":"m 32 743 l 129 743 l 231 947 l 83 947 z m 1107 0 l 1107 979 l 985 979 l 985 555 l 448 555 l 448 979 l 326 979 l 326 0 l 448 0 l 448 446 l 985 446 l 985 0 z "},"Ί":{"ha":543,"x_min":0,"x_max":0,"o":"m 32 743 l 129 743 l 231 947 l 83 947 z m 448 0 l 448 979 l 326 979 l 326 0 z "},"Ϊ":{"ha":312,"x_min":0,"x_max":0,"o":"m 217 0 l 217 979 l 95 979 l 95 0 z m 30 1088 b 104 1162 71 1088 104 1121 b 30 1237 104 1204 71 1237 b -45 1162 -11 1237 -45 1204 b 30 1088 -45 1121 -11 1088 z m 282 1088 b 357 1162 323 1088 357 1121 b 282 1237 357 1204 323 1237 b 208 1162 241 1237 208 1204 b 282 1088 208 1121 241 1088 z "},"Ό":{"ha":1139,"x_min":0,"x_max":0,"o":"m 16 743 l 113 743 l 214 947 l 66 947 z m 631 995 b 180 489 353 995 180 800 b 631 -16 180 178 353 -16 b 1082 489 908 -16 1082 178 b 631 995 1082 800 908 995 z m 631 882 b 956 489 831 882 956 730 b 631 96 956 248 831 96 b 305 489 431 96 305 248 b 631 882 305 730 431 882 z "},"Ύ":{"ha":1102,"x_min":0,"x_max":0,"o":"m 18 743 l 115 743 l 217 947 l 69 947 z m 738 0 l 738 421 l 1085 979 l 946 979 l 679 539 l 675 539 l 408 979 l 269 979 l 616 421 l 616 0 z "},"Ϋ":{"ha":850,"x_min":0,"x_max":0,"o":"m 486 0 l 486 421 l 833 979 l 694 979 l 427 539 l 423 539 l 156 979 l 17 979 l 364 421 l 364 0 z m 299 1088 b 374 1162 340 1088 374 1121 b 299 1237 374 1204 340 1237 b 224 1162 258 1237 224 1204 b 299 1088 224 1121 258 1088 z m 551 1088 b 626 1162 592 1088 626 1121 b 551 1237 626 1204 592 1237 b 477 1162 511 1237 477 1204 b 551 1088 477 1121 511 1088 z "},"Ώ":{"ha":1161,"x_min":0,"x_max":0,"o":"m 36 743 l 133 743 l 235 947 l 87 947 z m 965 538 b 734 131 965 363 892 236 l 734 0 l 1090 0 l 1090 110 l 880 110 l 880 115 b 1090 541 1013 207 1090 361 b 643 995 1090 809 910 995 b 195 541 376 995 195 809 b 406 115 195 361 273 207 l 406 110 l 195 110 l 195 0 l 552 0 l 552 131 b 321 538 394 236 321 363 b 643 882 321 749 443 882 b 965 538 843 882 965 749 z "},"А":{"ha":890,"x_min":0,"x_max":0,"o":"m 738 0 l 866 0 l 505 979 l 385 979 l 24 0 l 152 0 l 250 280 l 640 280 z m 443 830 l 447 830 l 604 384 l 286 384 z "},"Ӑ":{"ha":890,"x_min":0,"x_max":0,"o":"m 738 0 l 866 0 l 505 979 l 385 979 l 24 0 l 152 0 l 250 280 l 640 280 z m 443 830 l 447 830 l 604 384 l 286 384 z m 229 1254 b 439 1051 229 1135 315 1051 b 650 1254 564 1051 650 1135 l 566 1254 b 439 1118 566 1178 513 1118 b 313 1254 366 1118 313 1178 z "},"Ӓ":{"ha":890,"x_min":0,"x_max":0,"o":"m 738 0 l 866 0 l 505 979 l 385 979 l 24 0 l 152 0 l 250 280 l 640 280 z m 443 830 l 447 830 l 604 384 l 286 384 z m 319 1088 b 393 1162 359 1088 393 1121 b 319 1237 393 1204 359 1237 b 244 1162 278 1237 244 1204 b 319 1088 244 1121 278 1088 z m 571 1088 b 646 1162 612 1088 646 1121 b 571 1237 646 1204 612 1237 b 496 1162 530 1237 496 1204 b 571 1088 496 1121 530 1088 z "},"Б":{"ha":852,"x_min":0,"x_max":0,"o":"m 771 294 b 456 589 771 467 640 589 l 224 589 l 224 869 l 673 869 l 673 979 l 102 979 l 102 0 l 458 0 b 771 294 642 0 771 121 z m 224 110 l 224 479 l 426 479 b 646 294 566 479 646 412 b 426 110 646 176 566 110 z "},"В":{"ha":853,"x_min":0,"x_max":0,"o":"m 471 0 b 803 275 680 0 803 102 b 585 515 803 405 718 498 l 585 521 b 753 734 679 538 753 633 b 473 979 753 881 640 979 l 102 979 l 102 0 z m 224 871 l 445 871 b 630 720 564 871 630 817 b 407 557 630 614 551 557 l 224 557 z m 224 108 l 224 452 l 441 452 b 677 281 597 452 677 394 b 453 108 677 168 600 108 z "},"Г":{"ha":726,"x_min":0,"x_max":0,"o":"m 224 0 l 224 867 l 682 867 l 682 979 l 102 979 l 102 0 z "},"Ѓ":{"ha":726,"x_min":0,"x_max":0,"o":"m 224 0 l 224 867 l 682 867 l 682 979 l 102 979 l 102 0 z m 456 1058 l 633 1254 l 501 1254 l 352 1058 z "},"Ґ":{"ha":726,"x_min":0,"x_max":0,"o":"m 224 867 l 682 867 l 682 1172 l 569 1172 l 569 979 l 102 979 l 102 0 l 224 0 z "},"Ӷ":{"ha":726,"x_min":0,"x_max":0,"o":"m 682 867 l 682 979 l 102 979 l 102 0 l 132 0 l 224 0 l 263 0 l 263 -193 l 376 -193 l 376 110 l 224 110 l 224 867 z "},"Ғ":{"ha":728,"x_min":0,"x_max":0,"o":"m 684 867 l 684 979 l 104 979 l 104 526 l 16 526 l 16 431 l 104 431 l 104 0 l 227 0 l 227 431 l 582 431 l 582 526 l 227 526 l 227 867 z "},"Ӻ":{"ha":728,"x_min":0,"x_max":0,"o":"m 684 867 l 684 979 l 104 979 l 104 526 l 16 526 l 16 431 l 104 431 l 104 201 l 104 0 l 104 -38 b -6 -151 104 -119 77 -151 l -24 -151 l -24 -254 l -3 -254 b 227 -36 156 -254 227 -190 l 227 0 l 227 201 l 227 431 l 582 431 l 582 526 l 227 526 l 227 867 z "},"Д":{"ha":1004,"x_min":0,"x_max":0,"o":"m 313 360 l 345 869 l 719 869 l 719 110 l 244 110 l 244 115 b 313 360 292 174 306 248 z m 134 0 l 850 0 l 850 -193 l 963 -193 l 963 110 l 841 110 l 841 979 l 235 979 l 198 363 b 93 110 191 235 164 148 l 20 110 l 20 -193 l 134 -193 z "},"Е":{"ha":781,"x_min":0,"x_max":0,"o":"m 708 110 l 224 110 l 224 446 l 683 446 l 683 555 l 224 555 l 224 869 l 708 869 l 708 979 l 102 979 l 102 0 l 708 0 z "},"Ё":{"ha":781,"x_min":0,"x_max":0,"o":"m 708 110 l 224 110 l 224 446 l 683 446 l 683 555 l 224 555 l 224 869 l 708 869 l 708 979 l 102 979 l 102 0 l 708 0 z m 279 1088 b 353 1162 319 1088 353 1121 b 279 1237 353 1204 319 1237 b 204 1162 238 1237 204 1204 b 279 1088 204 1121 238 1088 z m 531 1088 b 606 1162 572 1088 606 1121 b 531 1237 606 1204 572 1237 b 456 1162 490 1237 456 1204 b 531 1088 456 1121 490 1088 z "},"Ӗ":{"ha":781,"x_min":0,"x_max":0,"o":"m 708 110 l 224 110 l 224 446 l 683 446 l 683 555 l 224 555 l 224 869 l 708 869 l 708 979 l 102 979 l 102 0 l 708 0 z m 198 1254 b 408 1051 198 1135 284 1051 b 618 1254 532 1051 618 1135 l 535 1254 b 408 1118 535 1178 482 1118 b 281 1254 334 1118 281 1178 z "},"Ѐ":{"ha":781,"x_min":0,"x_max":0,"o":"m 708 110 l 224 110 l 224 446 l 683 446 l 683 555 l 224 555 l 224 869 l 708 869 l 708 979 l 102 979 l 102 0 l 708 0 z m 344 1058 l 448 1058 l 299 1254 l 168 1254 z "},"Ж":{"ha":1334,"x_min":0,"x_max":0,"o":"m 859 510 l 1276 979 l 1125 979 l 732 528 l 726 528 l 726 979 l 604 979 l 604 528 l 599 528 l 207 979 l 52 979 l 471 509 l 14 0 l 171 0 l 599 475 l 604 475 l 604 0 l 726 0 l 726 475 l 732 475 l 1156 0 l 1320 0 z "},"Ӂ":{"ha":1334,"x_min":0,"x_max":0,"o":"m 798 1253 b 667 1122 790 1171 738 1122 b 535 1253 595 1122 543 1171 l 449 1253 b 667 1046 458 1142 536 1046 b 884 1253 797 1046 876 1142 z m 859 510 l 1276 979 l 1125 979 l 732 528 l 726 528 l 726 979 l 604 979 l 604 528 l 599 528 l 207 979 l 52 979 l 471 509 l 14 0 l 171 0 l 599 475 l 604 475 l 604 0 l 726 0 l 726 475 l 732 475 l 1156 0 l 1320 0 z "},"Ӝ":{"ha":1334,"x_min":0,"x_max":0,"o":"m 793 1088 b 868 1162 834 1088 868 1121 b 793 1237 868 1204 834 1237 b 719 1162 753 1237 719 1204 b 793 1088 719 1121 753 1088 z m 541 1088 b 616 1162 582 1088 616 1121 b 541 1237 616 1204 582 1237 b 467 1162 500 1237 467 1204 b 541 1088 467 1121 500 1088 z m 859 510 l 1276 979 l 1125 979 l 732 528 l 726 528 l 726 979 l 604 979 l 604 528 l 599 528 l 207 979 l 52 979 l 471 509 l 14 0 l 171 0 l 599 475 l 604 475 l 604 0 l 726 0 l 726 475 l 732 475 l 1156 0 l 1320 0 z "},"Җ":{"ha":1339,"x_min":0,"x_max":0,"o":"m 1221 110 l 859 510 l 1276 979 l 1125 979 l 732 528 l 726 528 l 726 979 l 604 979 l 604 528 l 599 528 l 207 979 l 52 979 l 471 509 l 14 0 l 171 0 l 599 475 l 604 475 l 604 0 l 726 0 l 726 475 l 732 475 l 1156 0 l 1222 0 l 1222 -193 l 1335 -193 l 1335 110 z "},"З":{"ha":804,"x_min":0,"x_max":0,"o":"m 265 446 l 403 446 b 628 267 544 446 628 379 b 408 85 628 159 538 85 b 169 255 273 85 180 152 l 51 255 b 409 -23 60 88 203 -23 b 753 264 602 -23 753 102 b 543 507 753 397 673 490 l 543 513 b 725 740 651 539 725 631 b 411 1002 725 892 594 1002 b 77 728 216 1002 90 897 l 196 728 b 406 893 206 831 285 893 b 601 729 526 893 601 830 b 397 554 601 627 517 554 l 265 554 z "},"Ӟ":{"ha":804,"x_min":0,"x_max":0,"o":"m 265 446 l 403 446 b 628 267 544 446 628 379 b 408 85 628 159 538 85 b 169 255 273 85 180 152 l 51 255 b 409 -23 60 88 203 -23 b 753 264 602 -23 753 102 b 543 507 753 397 673 490 l 543 513 b 725 740 651 539 725 631 b 411 1002 725 892 594 1002 b 77 728 216 1002 90 897 l 196 728 b 406 893 206 831 285 893 b 601 729 526 893 601 830 b 397 554 601 627 517 554 l 265 554 z m 276 1088 b 351 1162 317 1088 351 1121 b 276 1237 351 1204 317 1237 b 201 1162 235 1237 201 1204 b 276 1088 201 1121 235 1088 z m 528 1088 b 603 1162 569 1088 603 1121 b 528 1237 603 1204 569 1237 b 454 1162 488 1237 454 1204 b 528 1088 454 1121 488 1088 z "},"Ҙ":{"ha":804,"x_min":0,"x_max":0,"o":"m 543 513 b 725 740 651 539 725 631 b 411 1002 725 892 594 1002 b 77 728 216 1002 90 897 l 196 728 b 406 893 206 831 285 893 b 601 729 526 893 601 830 b 397 554 601 627 517 554 l 265 554 l 265 446 l 403 446 b 628 267 544 446 628 379 b 408 85 628 159 538 85 b 169 255 273 85 180 152 l 51 255 b 351 -20 59 104 176 -1 l 351 -193 l 464 -193 l 464 -20 b 753 264 630 1 753 118 b 543 507 753 397 673 490 z "},"И":{"ha":985,"x_min":0,"x_max":0,"o":"m 762 0 l 883 0 l 883 979 l 762 979 l 233 197 l 222 197 l 222 979 l 102 979 l 102 0 l 222 0 l 751 779 l 762 779 z "},"Й":{"ha":985,"x_min":0,"x_max":0,"o":"m 762 0 l 883 0 l 883 979 l 762 979 l 233 197 l 222 197 l 222 979 l 102 979 l 102 0 l 222 0 l 751 779 l 762 779 z m 281 1254 b 492 1051 281 1135 368 1051 b 702 1254 616 1051 702 1135 l 618 1254 b 492 1118 618 1178 566 1118 b 365 1254 418 1118 365 1178 z "},"Ѝ":{"ha":985,"x_min":0,"x_max":0,"o":"m 762 0 l 883 0 l 883 979 l 762 979 l 233 197 l 222 197 l 222 979 l 102 979 l 102 0 l 222 0 l 751 779 l 762 779 z m 452 1058 l 556 1058 l 407 1254 l 275 1254 z "},"Ӣ":{"ha":985,"x_min":0,"x_max":0,"o":"m 762 0 l 883 0 l 883 979 l 762 979 l 233 197 l 222 197 l 222 979 l 102 979 l 102 0 l 222 0 l 751 779 l 762 779 z m 712 1187 l 282 1187 l 282 1108 l 712 1108 z "},"Ӥ":{"ha":985,"x_min":0,"x_max":0,"o":"m 762 0 l 883 0 l 883 979 l 762 979 l 233 197 l 222 197 l 222 979 l 102 979 l 102 0 l 222 0 l 751 779 l 762 779 z m 363 1088 b 437 1162 404 1088 437 1121 b 363 1237 437 1204 404 1237 b 288 1162 322 1237 288 1204 b 363 1088 288 1121 322 1088 z m 615 1088 b 690 1162 656 1088 690 1121 b 615 1237 690 1204 656 1237 b 541 1162 574 1237 541 1204 b 615 1088 541 1121 574 1088 z "},"Ҋ":{"ha":1025,"x_min":0,"x_max":0,"o":"m 618 1254 b 492 1118 618 1178 566 1118 b 365 1254 418 1118 365 1178 l 281 1254 b 492 1051 281 1135 368 1051 b 702 1254 616 1051 702 1135 z m 883 110 l 883 979 l 762 979 l 233 197 l 222 197 l 222 979 l 102 979 l 102 0 l 222 0 l 751 779 l 762 779 l 762 110 l 762 0 l 873 0 l 820 -193 l 933 -193 l 1005 75 l 1005 110 z "},"К":{"ha":864,"x_min":0,"x_max":0,"o":"m 358 511 l 803 979 l 650 979 l 229 528 l 224 528 l 224 979 l 102 979 l 102 0 l 224 0 l 224 475 l 229 475 l 681 0 l 848 0 z "},"Ќ":{"ha":864,"x_min":0,"x_max":0,"o":"m 646 1254 l 515 1254 l 366 1058 l 470 1058 z m 358 511 l 803 979 l 650 979 l 229 528 l 224 528 l 224 979 l 102 979 l 102 0 l 224 0 l 224 475 l 229 475 l 681 0 l 848 0 z "},"Қ":{"ha":864,"x_min":0,"x_max":0,"o":"m 743 110 l 358 511 l 803 979 l 650 979 l 229 528 l 224 528 l 224 979 l 102 979 l 102 0 l 224 0 l 224 475 l 229 475 l 681 0 l 747 0 l 747 -193 l 861 -193 l 861 110 z "},"Ҝ":{"ha":953,"x_min":0,"x_max":0,"o":"m 545 508 l 892 979 l 745 979 l 429 549 l 400 549 l 400 760 l 302 760 l 302 549 l 224 549 l 224 979 l 102 979 l 102 0 l 224 0 l 224 451 l 302 451 l 302 226 l 400 226 l 400 451 l 429 451 l 776 0 l 937 0 z "},"Ҟ":{"ha":902,"x_min":0,"x_max":0,"o":"m 388 507 l 847 979 l 694 979 l 283 549 l 254 549 l 254 783 l 440 783 l 440 886 l 254 886 l 254 979 l 132 979 l 132 886 l 10 886 l 10 783 l 132 783 l 132 0 l 254 0 l 254 451 l 283 451 l 725 0 l 886 0 z "},"Ҡ":{"ha":1261,"x_min":0,"x_max":0,"o":"m 755 511 l 1200 979 l 1047 979 l 627 528 l 621 528 l 621 869 l 621 979 l 499 979 l 41 979 l 41 869 l 499 869 l 499 0 l 621 0 l 621 475 l 627 475 l 1078 0 l 1246 0 z "},"Ӄ":{"ha":864,"x_min":0,"x_max":0,"o":"m 817 979 l 663 979 l 233 549 l 224 549 l 224 979 l 102 979 l 102 0 l 224 0 l 224 439 l 245 439 b 642 120 488 439 642 313 b 386 -170 642 -59 539 -170 b 338 -168 366 -170 352 -170 l 338 -275 b 386 -279 349 -277 368 -279 b 766 124 615 -279 766 -119 b 368 536 766 334 612 500 z "},"Л":{"ha":943,"x_min":0,"x_max":0,"o":"m 842 0 l 842 979 l 251 979 l 216 371 b 71 106 205 182 163 106 b 34 110 60 106 41 108 l 34 1 b 81 -6 46 -3 64 -6 b 331 366 239 -6 315 106 l 362 869 l 720 869 l 720 0 z "},"Ӆ":{"ha":983,"x_min":0,"x_max":0,"o":"m 842 110 l 842 979 l 251 979 l 216 371 b 71 106 205 182 163 106 b 34 110 60 106 41 108 l 34 1 b 81 -6 46 -3 64 -6 b 331 366 239 -6 315 106 l 362 869 l 720 869 l 720 110 l 720 0 l 830 0 l 777 -193 l 890 -193 l 962 75 l 962 110 z "},"Ԯ":{"ha":1004,"x_min":0,"x_max":0,"o":"m 842 110 l 842 979 l 251 979 l 216 371 b 71 106 205 182 163 106 b 34 110 60 106 41 108 l 34 1 b 81 -6 46 -3 64 -6 b 331 366 239 -6 315 106 l 362 869 l 720 869 l 720 110 l 720 0 l 842 0 l 850 0 l 850 -193 l 964 -193 l 964 110 z "},"Ԓ":{"ha":943,"x_min":0,"x_max":0,"o":"m 251 979 l 216 371 b 71 106 205 182 163 106 b 34 110 60 106 41 108 l 34 1 b 81 -6 46 -3 64 -6 b 331 366 239 -6 315 106 l 362 869 l 720 869 l 720 201 l 720 0 l 720 -38 b 610 -151 720 -119 692 -151 l 592 -151 l 592 -254 l 612 -254 b 842 -36 771 -254 842 -190 l 842 0 l 842 201 l 842 979 z "},"М":{"ha":1168,"x_min":0,"x_max":0,"o":"m 1066 0 l 1066 979 l 924 979 l 587 162 l 581 162 l 243 979 l 102 979 l 102 0 l 216 0 l 216 754 l 220 754 l 532 7 l 635 7 l 947 754 l 952 754 l 952 0 z "},"Ӎ":{"ha":1215,"x_min":0,"x_max":0,"o":"m 1066 110 l 1066 979 l 924 979 l 587 162 l 581 162 l 243 979 l 102 979 l 102 0 l 216 0 l 216 754 l 220 754 l 532 7 l 635 7 l 947 754 l 952 754 l 952 110 l 952 0 l 1063 0 l 1010 -193 l 1123 -193 l 1195 75 l 1195 110 z "},"Н":{"ha":985,"x_min":0,"x_max":0,"o":"m 883 0 l 883 979 l 761 979 l 761 555 l 224 555 l 224 979 l 102 979 l 102 0 l 224 0 l 224 446 l 761 446 l 761 0 z "},"Ӈ":{"ha":985,"x_min":0,"x_max":0,"o":"m 761 979 l 761 555 l 224 555 l 224 979 l 102 979 l 102 0 l 224 0 l 224 446 l 761 446 l 761 201 l 761 0 l 761 -38 b 651 -151 761 -119 734 -151 l 633 -151 l 633 -254 l 654 -254 b 883 -36 812 -254 883 -190 l 883 0 l 883 201 l 883 979 z "},"Ң":{"ha":1046,"x_min":0,"x_max":0,"o":"m 883 110 l 883 979 l 761 979 l 761 555 l 224 555 l 224 979 l 102 979 l 102 0 l 224 0 l 224 446 l 761 446 l 761 110 l 761 0 l 883 0 l 892 0 l 892 -193 l 1005 -193 l 1005 110 z "},"Ӊ":{"ha":1024,"x_min":0,"x_max":0,"o":"m 883 110 l 883 979 l 761 979 l 761 555 l 224 555 l 224 979 l 102 979 l 102 0 l 224 0 l 224 446 l 761 446 l 761 110 l 761 0 l 871 0 l 819 -193 l 932 -193 l 1004 75 l 1004 110 z "},"Ҥ":{"ha":1385,"x_min":0,"x_max":0,"o":"m 1341 979 l 883 979 l 761 979 l 761 869 l 761 555 l 224 555 l 224 979 l 102 979 l 102 0 l 224 0 l 224 446 l 761 446 l 761 0 l 883 0 l 883 869 l 1341 869 z "},"О":{"ha":1029,"x_min":0,"x_max":0,"o":"m 515 995 b 64 489 237 995 64 800 b 515 -16 64 178 237 -16 b 966 489 792 -16 966 178 b 515 995 966 800 792 995 z m 515 882 b 840 489 715 882 840 730 b 515 96 840 248 715 96 b 189 489 315 96 189 248 b 515 882 189 730 315 882 z "},"Ӧ":{"ha":1029,"x_min":0,"x_max":0,"o":"m 515 995 b 64 489 237 995 64 800 b 515 -16 64 178 237 -16 b 966 489 792 -16 966 178 b 515 995 966 800 792 995 z m 515 882 b 840 489 715 882 840 730 b 515 96 840 248 715 96 b 189 489 315 96 189 248 b 515 882 189 730 315 882 z m 389 1088 b 463 1162 429 1088 463 1121 b 389 1237 463 1204 429 1237 b 314 1162 348 1237 314 1204 b 389 1088 314 1121 348 1088 z m 641 1088 b 715 1162 682 1088 715 1121 b 641 1237 715 1204 682 1237 b 566 1162 600 1237 566 1204 b 641 1088 566 1121 600 1088 z "},"Ө":{"ha":1025,"x_min":0,"x_max":0,"o":"m 835 452 b 513 90 823 231 704 90 b 190 452 321 90 202 231 z m 192 549 b 513 889 211 760 331 889 b 833 549 696 889 814 760 z m 513 1002 b 64 490 237 1002 64 804 b 513 -23 64 176 233 -23 b 961 490 793 -23 961 177 b 513 1002 961 804 791 1002 z "},"Ӫ":{"ha":1025,"x_min":0,"x_max":0,"o":"m 642 1088 b 717 1162 683 1088 717 1121 b 642 1237 717 1204 683 1237 b 568 1162 602 1237 568 1204 b 642 1088 568 1121 602 1088 z m 390 1088 b 465 1162 431 1088 465 1121 b 390 1237 465 1204 431 1237 b 315 1162 349 1237 315 1204 b 390 1088 315 1121 349 1088 z m 835 452 b 513 90 823 231 704 90 b 190 452 321 90 202 231 z m 192 549 b 513 889 211 760 331 889 b 833 549 696 889 814 760 z m 513 1002 b 64 490 237 1002 64 804 b 513 -23 64 176 233 -23 b 961 490 793 -23 961 177 b 513 1002 961 804 791 1002 z "},"Ѳ":{"ha":1025,"x_min":0,"x_max":0,"o":"m 513 90 b 191 439 325 90 207 225 b 327 484 216 465 254 484 b 692 402 452 484 526 403 b 834 445 754 402 800 418 b 513 90 820 228 701 90 z m 513 889 b 833 551 696 889 814 760 b 695 503 808 524 768 503 b 330 585 564 503 490 585 b 191 545 271 585 225 570 b 513 889 209 758 330 889 z m 513 1002 b 64 490 237 1002 64 804 b 513 -23 64 176 233 -23 b 961 490 793 -23 961 177 b 513 1002 961 804 791 1002 z "},"П":{"ha":970,"x_min":0,"x_max":0,"o":"m 869 0 l 869 979 l 102 979 l 102 0 l 224 0 l 224 867 l 748 867 l 748 0 z "},"Ԥ":{"ha":1031,"x_min":0,"x_max":0,"o":"m 869 110 l 869 979 l 102 979 l 102 0 l 224 0 l 224 867 l 748 867 l 748 110 l 748 0 l 869 0 l 878 0 l 878 -193 l 991 -193 l 991 110 z "},"Џ":{"ha":970,"x_min":0,"x_max":0,"o":"m 429 0 l 429 -193 l 542 -193 l 542 0 l 869 0 l 869 979 l 747 979 l 747 110 l 224 110 l 224 979 l 102 979 l 102 0 z "},"Р":{"ha":815,"x_min":0,"x_max":0,"o":"m 102 979 l 102 0 l 224 0 l 224 349 l 450 349 b 764 665 633 349 764 479 b 451 979 764 850 635 979 z m 224 870 l 419 870 b 639 665 559 870 639 794 b 419 458 639 534 559 458 l 224 458 z "},"Ҏ":{"ha":808,"x_min":0,"x_max":0,"o":"m 217 456 l 217 870 l 412 870 b 632 662 554 870 632 796 b 559 496 632 588 608 532 l 454 656 l 370 602 l 460 460 b 412 456 445 458 429 456 z m 95 979 l 95 0 l 217 0 l 217 349 l 409 349 b 518 362 448 349 484 354 l 633 180 l 729 246 l 622 406 b 758 662 707 461 758 551 b 444 979 758 848 629 979 z "},"С":{"ha":964,"x_min":0,"x_max":0,"o":"m 505 -16 b 908 273 716 -16 860 87 l 783 273 b 505 96 745 161 644 96 b 189 490 312 96 189 250 b 505 882 189 728 313 882 b 783 684 639 882 748 804 l 908 684 b 505 995 872 871 713 995 b 64 490 237 995 64 797 b 505 -16 64 180 235 -16 z "},"Ҫ":{"ha":966,"x_min":0,"x_max":0,"o":"m 911 670 b 505 995 880 865 718 995 b 64 490 237 995 64 797 b 467 -15 64 195 219 3 l 430 -108 l 430 -155 l 477 -155 b 576 -198 547 -155 576 -167 b 490 -247 576 -229 547 -247 b 406 -239 462 -247 420 -242 l 406 -308 b 507 -317 423 -313 468 -318 b 666 -197 595 -316 666 -274 b 521 -88 666 -127 609 -90 l 553 -14 b 911 285 743 1 869 106 l 787 285 b 505 96 752 165 649 96 b 189 490 312 96 189 250 b 505 882 189 728 313 882 b 787 670 644 882 756 798 z "},"Т":{"ha":821,"x_min":0,"x_max":0,"o":"m 471 0 l 471 869 l 780 869 l 780 979 l 41 979 l 41 869 l 349 869 l 349 0 z "},"Ҭ":{"ha":821,"x_min":0,"x_max":0,"o":"m 780 869 l 780 979 l 41 979 l 41 869 l 349 869 l 349 0 l 356 0 l 471 0 l 487 0 l 487 -193 l 600 -193 l 600 110 l 471 110 l 471 869 z "},"У":{"ha":827,"x_min":0,"x_max":0,"o":"m 198 -7 b 511 280 342 -7 418 63 l 810 979 l 684 979 l 427 345 l 416 345 l 154 979 l 24 979 l 358 209 b 198 106 319 137 271 106 b 144 112 177 106 157 109 l 144 2 b 198 -7 155 -3 176 -7 z "},"Ў":{"ha":827,"x_min":0,"x_max":0,"o":"m 198 -7 b 511 280 342 -7 418 63 l 810 979 l 684 979 l 427 345 l 416 345 l 154 979 l 24 979 l 358 209 b 198 106 319 137 271 106 b 144 112 177 106 157 109 l 144 2 b 198 -7 155 -3 176 -7 z m 212 1255 b 422 1052 212 1135 298 1052 b 633 1255 547 1052 633 1135 l 549 1255 b 422 1119 549 1179 496 1119 b 296 1255 349 1119 296 1179 z "},"Ӯ":{"ha":827,"x_min":0,"x_max":0,"o":"m 198 -7 b 511 280 342 -7 418 63 l 810 979 l 684 979 l 427 345 l 416 345 l 154 979 l 24 979 l 358 209 b 198 106 319 137 271 106 b 144 112 177 106 157 109 l 144 2 b 198 -7 155 -3 176 -7 z m 639 1187 l 209 1187 l 209 1108 l 639 1108 z "},"Ӱ":{"ha":827,"x_min":0,"x_max":0,"o":"m 198 -7 b 511 280 342 -7 418 63 l 810 979 l 684 979 l 427 345 l 416 345 l 154 979 l 24 979 l 358 209 b 198 106 319 137 271 106 b 144 112 177 106 157 109 l 144 2 b 198 -7 155 -3 176 -7 z m 297 1088 b 372 1162 338 1088 372 1121 b 297 1237 372 1204 338 1237 b 222 1162 256 1237 222 1204 b 297 1088 222 1121 256 1088 z m 549 1088 b 624 1162 590 1088 624 1121 b 549 1237 624 1204 590 1237 b 475 1162 509 1237 475 1204 b 549 1088 475 1121 509 1088 z "},"Ӳ":{"ha":827,"x_min":0,"x_max":0,"o":"m 198 -7 b 511 280 342 -7 418 63 l 810 979 l 684 979 l 427 345 l 416 345 l 154 979 l 24 979 l 358 209 b 198 106 319 137 271 106 b 144 112 177 106 157 109 l 144 2 b 198 -7 155 -3 176 -7 z m 604 1058 l 780 1254 l 648 1254 l 499 1058 z m 387 1058 l 563 1254 l 431 1254 l 282 1058 z "},"Ф":{"ha":1101,"x_min":0,"x_max":0,"o":"m 490 198 b 181 493 299 204 181 317 b 490 787 181 667 299 780 z m 920 492 b 611 198 920 318 802 205 l 611 787 b 920 492 802 781 920 668 z m 490 89 l 490 -14 l 611 -14 l 611 89 b 1043 492 876 96 1043 252 b 611 897 1043 734 876 890 l 611 992 l 490 992 l 490 897 b 58 493 224 889 58 733 b 490 89 58 252 225 95 z "},"Х":{"ha":895,"x_min":0,"x_max":0,"o":"m 37 0 l 176 0 l 439 390 l 444 390 l 704 0 l 850 0 l 520 485 l 520 489 l 858 979 l 719 979 l 454 585 l 450 585 l 189 979 l 41 979 l 370 495 l 370 490 z "},"Ҳ":{"ha":915,"x_min":0,"x_max":0,"o":"m 776 110 l 520 485 l 520 489 l 858 979 l 719 979 l 454 585 l 450 585 l 189 979 l 41 979 l 370 495 l 370 490 l 37 0 l 176 0 l 439 390 l 444 390 l 704 0 l 798 0 l 798 -193 l 911 -193 l 911 110 z "},"Ӿ":{"ha":895,"x_min":0,"x_max":0,"o":"m 793 444 l 793 539 l 555 539 l 858 979 l 719 979 l 454 585 l 450 585 l 189 979 l 41 979 l 340 539 l 99 539 l 99 444 l 339 444 l 37 0 l 176 0 l 439 390 l 444 390 l 704 0 l 850 0 l 548 444 z "},"Ӽ":{"ha":895,"x_min":0,"x_max":0,"o":"m 41 979 l 372 492 l 37 0 l 176 0 l 437 386 l 448 386 l 601 155 b 679 23 633 107 658 64 b 706 -77 698 -14 706 -45 b 608 -163 706 -130 665 -163 b 570 -160 591 -163 578 -162 l 570 -260 b 617 -264 580 -262 593 -264 b 829 -72 741 -264 829 -184 b 787 79 829 -22 816 25 b 699 223 761 127 734 172 l 519 487 l 858 979 l 719 979 l 457 589 l 446 589 l 189 979 z "},"Ц":{"ha":1032,"x_min":0,"x_max":0,"o":"m 991 -193 l 991 110 l 869 110 l 869 979 l 747 979 l 747 110 l 224 110 l 224 979 l 102 979 l 102 0 l 878 0 l 878 -193 z "},"Ҵ":{"ha":1286,"x_min":0,"x_max":0,"o":"m 1124 110 l 1124 979 l 1002 979 l 1002 110 l 478 110 l 478 869 l 793 869 l 793 979 l 478 979 l 356 979 l 41 979 l 41 869 l 356 869 l 356 0 l 1133 0 l 1133 -193 l 1246 -193 l 1246 110 z "},"Ч":{"ha":927,"x_min":0,"x_max":0,"o":"m 825 0 l 825 979 l 703 979 l 703 568 b 458 476 651 516 564 476 b 207 722 296 476 207 571 l 207 979 l 85 979 l 85 723 b 458 363 85 523 212 363 b 692 439 555 363 637 396 l 703 439 l 703 0 z "},"Ӵ":{"ha":927,"x_min":0,"x_max":0,"o":"m 825 0 l 825 979 l 703 979 l 703 568 b 458 476 651 516 564 476 b 207 722 296 476 207 571 l 207 979 l 85 979 l 85 723 b 458 363 85 523 212 363 b 692 439 555 363 637 396 l 703 439 l 703 0 z m 342 1088 b 416 1162 382 1088 416 1121 b 342 1237 416 1204 382 1237 b 267 1162 301 1237 267 1204 b 342 1088 267 1121 301 1088 z m 594 1088 b 669 1162 635 1088 669 1121 b 594 1237 669 1204 635 1237 b 519 1162 553 1237 519 1204 b 594 1088 519 1121 553 1088 z "},"Ҷ":{"ha":988,"x_min":0,"x_max":0,"o":"m 825 110 l 825 979 l 703 979 l 703 568 b 458 476 651 516 564 476 b 207 722 296 476 207 571 l 207 979 l 85 979 l 85 723 b 458 363 85 523 212 363 b 692 439 555 363 637 396 l 703 439 l 703 110 l 703 0 l 825 0 l 834 0 l 834 -193 l 947 -193 l 947 110 z "},"Ӌ":{"ha":927,"x_min":0,"x_max":0,"o":"m 703 979 l 703 568 b 458 476 651 516 564 476 b 207 722 296 476 207 571 l 207 979 l 85 979 l 85 723 b 458 363 85 523 212 363 b 692 439 555 363 637 396 l 703 439 l 703 110 l 581 110 l 581 -193 l 694 -193 l 694 0 l 703 0 l 825 0 l 825 110 l 825 979 z "},"Ҹ":{"ha":927,"x_min":0,"x_max":0,"o":"m 703 979 l 703 568 b 511 479 660 525 593 490 l 511 704 l 413 704 l 413 479 b 207 722 279 495 207 586 l 207 979 l 85 979 l 85 723 b 413 366 85 536 196 384 l 413 170 l 511 170 l 511 367 b 698 439 587 376 652 404 l 703 439 l 703 0 l 825 0 l 825 979 z "},"Һ":{"ha":937,"x_min":0,"x_max":0,"o":"m 102 979 l 102 0 l 224 0 l 224 431 b 469 523 276 483 363 523 b 720 277 631 523 720 428 l 720 0 l 842 0 l 842 276 b 469 635 842 476 715 635 b 235 559 372 635 290 603 l 224 559 l 224 979 z "},"Ԧ":{"ha":1005,"x_min":0,"x_max":0,"o":"m 842 110 l 842 276 b 469 635 842 476 715 635 b 235 559 372 635 290 603 l 224 559 l 224 979 l 102 979 l 102 0 l 224 0 l 224 431 b 469 523 276 483 363 523 b 720 277 631 523 720 428 l 720 110 l 720 0 l 842 0 l 851 0 l 851 -193 l 964 -193 l 964 110 z "},"Ћ":{"ha":1151,"x_min":0,"x_max":0,"o":"m 718 505 b 934 268 855 505 934 418 l 934 0 l 1056 0 l 1056 276 b 730 615 1056 483 928 615 b 484 517 631 615 542 581 l 478 517 l 478 869 l 793 869 l 793 979 l 41 979 l 41 869 l 356 869 l 356 0 l 478 0 l 478 363 b 718 505 515 445 616 505 z "},"Ш":{"ha":1278,"x_min":0,"x_max":0,"o":"m 102 0 l 1176 0 l 1176 979 l 1054 979 l 1054 110 l 700 110 l 700 979 l 578 979 l 578 110 l 224 110 l 224 979 l 102 979 z "},"Щ":{"ha":1339,"x_min":0,"x_max":0,"o":"m 1298 -193 l 1298 110 l 1176 110 l 1176 979 l 1054 979 l 1054 110 l 700 110 l 700 979 l 578 979 l 578 110 l 224 110 l 224 979 l 102 979 l 102 0 l 1185 0 l 1185 -193 z "},"Ъ":{"ha":991,"x_min":0,"x_max":0,"o":"m 627 0 b 941 307 811 0 941 126 b 626 616 941 489 810 616 l 387 616 l 387 979 l 41 979 l 41 869 l 264 869 l 264 0 z m 387 110 l 387 506 l 595 506 b 815 307 735 506 815 434 b 595 110 815 181 736 110 z "},"Ы":{"ha":1133,"x_min":0,"x_max":0,"o":"m 102 0 l 465 0 b 778 307 649 0 778 127 b 463 616 778 488 648 616 l 224 616 l 224 979 l 102 979 z m 224 110 l 224 506 l 433 506 b 652 307 572 506 652 434 b 433 110 652 181 573 110 z m 1031 0 l 1031 979 l 909 979 l 909 0 z "},"Ӹ":{"ha":1133,"x_min":0,"x_max":0,"o":"m 102 0 l 465 0 b 778 307 649 0 778 127 b 463 616 778 488 648 616 l 224 616 l 224 979 l 102 979 z m 224 110 l 224 506 l 433 506 b 652 307 572 506 652 434 b 433 110 652 181 573 110 z m 1031 0 l 1031 979 l 909 979 l 909 0 z m 440 1088 b 515 1162 481 1088 515 1121 b 440 1237 515 1204 481 1237 b 366 1162 399 1237 366 1204 b 440 1088 366 1121 399 1088 z m 692 1088 b 767 1162 733 1088 767 1121 b 692 1237 767 1204 733 1237 b 618 1162 652 1237 618 1204 b 692 1088 618 1121 652 1088 z "},"Ҍ":{"ha":954,"x_min":0,"x_max":0,"o":"m 349 110 l 349 506 l 558 506 b 778 307 698 506 778 434 b 558 110 778 181 699 110 z m 349 616 l 349 783 l 604 783 l 604 886 l 349 886 l 349 1021 l 227 1021 l 227 886 l 10 886 l 10 783 l 227 783 l 227 0 l 590 0 b 903 307 774 0 903 126 b 589 616 903 489 772 616 z "},"Ѣ":{"ha":954,"x_min":0,"x_max":0,"o":"m 349 110 l 349 506 l 558 506 b 778 307 698 506 778 434 b 558 110 778 181 699 110 z m 349 616 l 349 783 l 604 783 l 604 886 l 349 886 l 349 1021 l 227 1021 l 227 886 l 10 886 l 10 783 l 227 783 l 227 0 l 590 0 b 903 307 774 0 903 126 b 589 616 903 489 772 616 z "},"Ь":{"ha":829,"x_min":0,"x_max":0,"o":"m 102 0 l 465 0 b 778 307 649 0 778 127 b 463 616 778 488 648 616 l 224 616 l 224 979 l 102 979 z m 224 110 l 224 506 l 433 506 b 652 307 572 506 652 434 b 433 110 652 181 573 110 z "},"Љ":{"ha":1447,"x_min":0,"x_max":0,"o":"m 331 366 l 362 869 l 720 869 l 720 0 l 1082 0 b 1396 307 1266 0 1396 126 b 1081 616 1396 489 1265 616 l 842 616 l 842 979 l 251 979 l 216 371 b 71 106 207 218 181 106 b 34 110 60 106 41 108 l 34 1 b 81 -6 45 -3 63 -6 b 331 366 254 -6 316 131 z m 842 110 l 842 506 l 1050 506 b 1270 307 1190 506 1270 434 b 1050 110 1270 181 1191 110 z "},"Њ":{"ha":1461,"x_min":0,"x_max":0,"o":"m 224 446 l 734 446 l 734 0 l 1097 0 b 1410 283 1280 0 1410 117 b 1095 555 1410 444 1279 555 l 856 555 l 856 979 l 734 979 l 734 555 l 224 555 l 224 979 l 102 979 l 102 0 l 224 0 z m 856 110 l 856 446 l 1065 446 b 1284 283 1204 446 1284 387 b 1065 110 1284 173 1205 110 z "},"Э":{"ha":964,"x_min":0,"x_max":0,"o":"m 463 -16 b 900 490 732 -16 900 180 b 463 995 900 797 730 995 b 56 684 254 995 92 871 l 180 684 b 463 882 216 804 328 882 b 771 555 635 882 756 755 l 337 555 l 337 446 l 773 446 b 462 96 765 231 643 96 b 180 273 323 96 219 161 l 56 273 b 463 -16 104 87 251 -16 z "},"Ӭ":{"ha":964,"x_min":0,"x_max":0,"o":"m 463 -16 b 900 490 732 -16 900 180 b 463 995 900 797 730 995 b 56 684 254 995 92 871 l 180 684 b 463 882 216 804 328 882 b 771 555 635 882 756 755 l 337 555 l 337 446 l 773 446 b 462 96 765 231 643 96 b 180 273 323 96 219 161 l 56 273 b 463 -16 104 87 251 -16 z m 337 1088 b 412 1162 378 1088 412 1121 b 337 1237 412 1204 378 1237 b 262 1162 296 1237 262 1204 b 337 1088 262 1121 296 1088 z m 589 1088 b 664 1162 630 1088 664 1121 b 589 1237 664 1204 630 1237 b 515 1162 549 1237 515 1204 b 589 1088 515 1121 549 1088 z "},"Ю":{"ha":1350,"x_min":0,"x_max":0,"o":"m 846 -23 b 1286 490 1121 -23 1286 177 b 846 1002 1286 804 1120 1002 b 406 555 593 1002 428 831 l 224 555 l 224 979 l 102 979 l 102 0 l 224 0 l 224 446 l 404 446 b 846 -23 419 158 582 -23 z m 846 889 b 1161 490 1042 889 1161 734 b 846 90 1161 247 1042 90 b 528 490 646 90 528 247 b 846 889 528 734 650 889 z "},"Я":{"ha":873,"x_min":0,"x_max":0,"o":"m 649 486 l 433 486 b 214 678 294 486 214 555 b 433 869 214 800 293 869 l 649 869 z m 452 376 l 649 376 l 649 0 l 771 0 l 771 979 l 401 979 b 88 678 218 979 88 855 b 318 391 88 532 180 423 l 37 0 l 182 0 z "},"Ҕ":{"ha":883,"x_min":0,"x_max":0,"o":"m 648 979 l 102 979 l 102 0 l 224 0 l 224 363 b 470 505 261 444 366 505 b 680 298 597 505 680 423 b 500 100 680 175 612 100 b 414 111 467 100 431 104 l 414 1 b 502 -11 430 -5 467 -11 b 802 300 684 -11 802 111 b 477 615 802 489 671 615 b 235 516 383 615 292 578 l 224 516 l 224 869 l 648 869 z "},"Ҧ":{"ha":1487,"x_min":0,"x_max":0,"o":"m 102 979 l 102 0 l 224 0 l 224 867 l 707 867 l 707 0 l 828 0 l 828 363 b 1074 505 865 444 970 505 b 1284 298 1201 505 1284 423 b 1105 100 1284 175 1216 100 b 1018 111 1072 100 1035 104 l 1018 1 b 1106 -11 1034 -5 1072 -11 b 1406 300 1288 -11 1406 111 b 1082 615 1406 489 1276 615 b 839 516 987 615 896 578 l 828 516 l 828 979 z "},"Є":{"ha":964,"x_min":0,"x_max":0,"o":"m 908 273 l 783 273 b 505 96 745 161 644 96 b 191 446 324 96 199 231 l 627 446 l 627 555 l 193 555 b 505 882 208 755 332 882 b 783 684 639 882 748 804 l 908 684 b 505 995 872 871 713 995 b 64 490 237 995 64 797 b 505 -16 64 180 235 -16 b 908 273 716 -16 860 87 z "},"Ӏ":{"ha":326,"x_min":0,"x_max":0,"o":"m 224 0 l 224 979 l 102 979 l 102 0 z "},"І":{"ha":326,"x_min":0,"x_max":0,"o":"m 224 0 l 224 979 l 102 979 l 102 0 z "},"Ї":{"ha":326,"x_min":0,"x_max":0,"o":"m 224 0 l 224 979 l 102 979 l 102 0 z m 37 1088 b 111 1162 77 1088 111 1121 b 37 1237 111 1204 77 1237 b -38 1162 -4 1237 -38 1204 b 37 1088 -38 1121 -4 1088 z m 289 1088 b 363 1162 330 1088 363 1121 b 289 1237 363 1204 330 1237 b 214 1162 248 1237 214 1204 b 289 1088 214 1121 248 1088 z "},"Ҩ":{"ha":1315,"x_min":0,"x_max":0,"o":"m 668 525 b 865 770 668 662 732 770 b 1063 535 984 770 1063 667 b 856 152 1063 376 981 231 b 668 525 734 237 668 384 z m 1246 127 b 1082 81 1199 98 1135 81 b 968 98 1044 81 1004 87 b 1187 535 1093 186 1187 347 b 865 882 1187 744 1059 882 b 543 522 671 882 543 724 b 744 105 543 355 617 200 b 616 90 706 95 665 90 b 193 515 380 90 193 255 b 495 892 193 699 302 853 l 495 1008 b 64 517 241 981 64 764 b 616 -23 64 200 288 -23 b 856 33 703 -23 782 -3 b 1080 -24 924 -5 999 -24 b 1288 33 1155 -24 1225 -5 z "},"Ү":{"ha":850,"x_min":0,"x_max":0,"o":"m 486 0 l 486 421 l 833 979 l 694 979 l 427 539 l 423 539 l 156 979 l 17 979 l 364 421 l 364 0 z "},"Ұ":{"ha":850,"x_min":0,"x_max":0,"o":"m 833 979 l 694 979 l 427 539 l 423 539 l 156 979 l 17 979 l 329 478 l 106 478 l 106 383 l 364 383 l 364 0 l 486 0 l 486 383 l 744 383 l 744 478 l 522 478 z "},"Ҽ":{"ha":1146,"x_min":0,"x_max":0,"o":"m 376 586 b 663 889 399 772 511 889 b 948 586 829 889 936 777 z m 372 478 l 1082 478 l 1082 532 b 665 1002 1082 821 922 1002 b 248 587 440 1002 281 840 b 127 694 166 588 127 625 b 147 795 127 744 149 795 l 37 795 b 14 684 37 795 14 749 b 241 477 14 568 96 481 b 682 -23 244 168 411 -23 b 1067 247 878 -23 1027 81 l 942 247 b 685 90 905 144 814 90 b 372 446 496 90 371 233 z "},"Ҿ":{"ha":1146,"x_min":0,"x_max":0,"o":"m 376 586 b 663 889 399 772 511 889 b 948 586 829 889 936 777 z m 372 478 l 1082 478 l 1082 532 b 665 1002 1082 821 922 1002 b 248 587 440 1002 281 840 b 127 694 166 588 127 625 b 147 795 127 744 149 795 l 37 795 b 14 684 37 795 14 749 b 241 477 14 568 96 481 b 608 -18 244 197 381 14 l 608 -193 l 725 -193 l 725 -21 b 1067 247 900 -7 1030 94 l 942 247 b 685 90 905 144 814 90 b 372 446 496 90 371 233 z "},"Ӕ":{"ha":1324,"x_min":0,"x_max":0,"o":"m 551 876 l 659 876 l 659 415 l 332 415 z m 659 0 l 1252 0 l 1252 110 l 781 110 l 781 439 l 1227 439 l 1227 548 l 781 548 l 781 869 l 1252 869 l 1252 979 l 476 979 l 10 0 l 136 0 l 283 311 l 659 311 z "},"Ə":{"ha":975,"x_min":0,"x_max":0,"o":"m 484 -23 b 911 488 741 -23 911 182 b 471 1002 911 803 741 1002 b 79 732 283 1002 138 901 l 204 732 b 468 889 252 838 338 889 b 781 532 653 889 782 742 l 781 514 l 64 514 l 64 460 b 484 -23 67 162 228 -23 z m 487 90 b 198 406 321 90 214 208 l 778 406 b 487 90 757 213 644 90 z "},"Ә":{"ha":975,"x_min":0,"x_max":0,"o":"m 484 -23 b 911 488 741 -23 911 182 b 471 1002 911 803 741 1002 b 79 732 283 1002 138 901 l 204 732 b 468 889 252 838 338 889 b 781 532 653 889 782 742 l 781 514 l 64 514 l 64 460 b 484 -23 67 162 228 -23 z m 487 90 b 198 406 321 90 214 208 l 778 406 b 487 90 757 213 644 90 z "},"Ӛ":{"ha":975,"x_min":0,"x_max":0,"o":"m 484 -23 b 911 488 741 -23 911 182 b 471 1002 911 803 741 1002 b 79 732 283 1002 138 901 l 204 732 b 468 889 252 838 338 889 b 781 532 653 889 782 742 l 781 514 l 64 514 l 64 460 b 484 -23 67 162 228 -23 z m 487 90 b 198 406 321 90 214 208 l 778 406 b 487 90 757 213 644 90 z m 342 1088 b 416 1162 382 1088 416 1121 b 342 1237 416 1204 382 1237 b 267 1162 301 1237 267 1204 b 342 1088 267 1121 301 1088 z m 594 1088 b 669 1162 635 1088 669 1121 b 594 1237 669 1204 635 1237 b 519 1162 553 1237 519 1204 b 594 1088 519 1121 553 1088 z "},"Ӡ":{"ha":801,"x_min":0,"x_max":0,"o":"m 395 -23 b 740 280 596 -23 740 102 b 417 583 740 471 614 575 l 417 594 l 718 892 l 718 979 l 86 979 l 86 869 l 540 869 l 540 858 l 265 589 l 265 485 l 345 485 b 614 278 519 485 614 420 b 394 83 614 158 528 83 b 169 255 268 83 180 151 l 51 255 b 395 -23 60 87 197 -23 z "},"Ԑ":{"ha":811,"x_min":0,"x_max":0,"o":"m 546 446 l 546 554 l 414 554 b 210 729 294 554 210 627 b 405 893 210 827 281 893 b 615 728 526 893 605 831 l 734 728 b 400 1002 722 897 595 1002 b 86 740 216 1002 86 892 b 268 515 86 633 159 541 l 268 505 b 51 264 143 492 51 404 b 402 -23 51 102 205 -23 b 760 255 609 -23 751 88 l 642 255 b 404 85 631 153 539 85 b 176 267 266 85 176 161 b 408 446 176 377 260 446 z "},"Ѵ":{"ha":995,"x_min":0,"x_max":0,"o":"m 505 0 l 785 758 b 835 856 804 809 820 841 b 886 876 848 869 865 876 b 950 864 905 876 930 871 l 985 962 b 875 991 956 979 910 991 b 773 961 833 991 800 981 b 675 798 733 931 705 884 l 450 158 l 439 158 l 152 979 l 24 979 l 385 0 z "},"Ԝ":{"ha":1270,"x_min":0,"x_max":0,"o":"m 631 777 l 638 777 l 864 0 l 979 0 l 1246 979 l 1118 979 l 922 180 l 917 180 l 696 979 l 573 979 l 353 180 l 347 180 l 151 979 l 24 979 l 290 0 l 406 0 z "},"Ђ":{"ha":1137,"x_min":0,"x_max":0,"o":"m 756 -11 b 1056 300 938 -11 1056 111 b 732 615 1056 489 926 615 b 484 516 632 615 543 581 l 478 516 l 478 869 l 793 869 l 793 979 l 41 979 l 41 869 l 356 869 l 356 0 l 478 0 l 478 363 b 724 505 515 444 621 505 b 934 298 851 505 934 423 b 755 100 934 175 866 100 b 668 111 722 100 685 104 l 668 1 b 756 -11 684 -5 722 -11 z "},"Ѕ":{"ha":838,"x_min":0,"x_max":0,"o":"m 54 269 b 417 -16 66 96 210 -16 b 783 275 642 -16 783 96 b 498 544 783 415 701 493 l 396 571 b 209 724 263 606 209 650 b 424 885 209 819 297 885 b 647 715 551 885 636 821 l 769 715 b 428 995 764 880 623 995 b 82 718 224 995 82 881 b 342 460 82 585 162 506 l 468 427 b 657 260 600 393 657 342 b 429 94 657 163 561 94 b 177 269 289 94 189 163 z "},"Ј":{"ha":701,"x_min":0,"x_max":0,"o":"m 35 230 b 312 -23 35 81 149 -23 b 600 273 492 -23 600 87 l 600 979 l 477 979 l 477 273 b 311 90 477 154 419 90 b 157 230 222 90 159 147 z "},"a":{"ha":697,"x_min":0,"x_max":0,"o":"m 309 88 b 168 199 224 88 168 132 b 317 314 168 266 222 308 l 506 326 l 506 268 b 309 88 506 166 420 88 z m 283 -12 b 509 121 378 -12 467 41 l 512 121 l 512 0 l 624 0 l 624 488 b 354 718 624 628 519 718 b 75 502 187 718 83 624 l 189 502 b 351 614 203 571 260 614 b 506 476 449 614 506 562 l 506 417 l 304 406 b 48 199 141 396 48 320 b 283 -12 48 73 142 -12 z "},"à":{"ha":697,"x_min":0,"x_max":0,"o":"m 309 88 b 168 199 224 88 168 132 b 317 314 168 266 222 308 l 506 326 l 506 268 b 309 88 506 166 420 88 z m 283 -12 b 509 121 378 -12 467 41 l 512 121 l 512 0 l 624 0 l 624 488 b 354 718 624 628 519 718 b 75 502 187 718 83 624 l 189 502 b 351 614 203 571 260 614 b 506 476 449 614 506 562 l 506 417 l 304 406 b 48 199 141 396 48 320 b 283 -12 48 73 142 -12 z m 389 807 l 247 1010 l 119 1010 l 286 807 z "},"á":{"ha":697,"x_min":0,"x_max":0,"o":"m 309 88 b 168 199 224 88 168 132 b 317 314 168 266 222 308 l 506 326 l 506 268 b 309 88 506 166 420 88 z m 283 -12 b 509 121 378 -12 467 41 l 512 121 l 512 0 l 624 0 l 624 488 b 354 718 624 628 519 718 b 75 502 187 718 83 624 l 189 502 b 351 614 203 571 260 614 b 506 476 449 614 506 562 l 506 417 l 304 406 b 48 199 141 396 48 320 b 283 -12 48 73 142 -12 z m 399 807 l 566 1010 l 439 1010 l 296 807 z "},"ä":{"ha":697,"x_min":0,"x_max":0,"o":"m 309 88 b 168 199 224 88 168 132 b 317 314 168 266 222 308 l 506 326 l 506 268 b 309 88 506 166 420 88 z m 283 -12 b 509 121 378 -12 467 41 l 512 121 l 512 0 l 624 0 l 624 488 b 354 718 624 628 519 718 b 75 502 187 718 83 624 l 189 502 b 351 614 203 571 260 614 b 506 476 449 614 506 562 l 506 417 l 304 406 b 48 199 141 396 48 320 b 283 -12 48 73 142 -12 z m 220 816 b 294 890 260 816 294 849 b 220 965 294 932 260 965 b 145 890 179 965 145 932 b 220 816 145 849 179 816 z m 472 816 b 547 890 513 816 547 849 b 472 965 547 932 513 965 b 397 890 431 965 397 932 b 472 816 397 849 431 816 z "},"ǟ":{"ha":697,"x_min":0,"x_max":0,"o":"m 309 88 b 168 199 224 88 168 132 b 317 314 168 266 222 308 l 506 326 l 506 268 b 309 88 506 166 420 88 z m 283 -12 b 509 121 378 -12 467 41 l 512 121 l 512 0 l 624 0 l 624 488 b 354 718 624 628 519 718 b 75 502 187 718 83 624 l 189 502 b 351 614 203 571 260 614 b 506 476 449 614 506 562 l 506 417 l 304 406 b 48 199 141 396 48 320 b 283 -12 48 73 142 -12 z m 217 781 b 293 857 258 781 293 815 b 217 933 293 899 258 933 b 141 857 176 933 141 899 b 217 781 141 815 176 781 z m 475 781 b 551 857 516 781 551 815 b 475 933 551 899 516 933 b 399 857 433 933 399 899 b 475 781 399 815 433 781 z m 541 1111 l 151 1111 l 151 1032 l 541 1032 z "},"å":{"ha":697,"x_min":0,"x_max":0,"o":"m 309 88 b 168 199 224 88 168 132 b 317 314 168 266 222 308 l 506 326 l 506 268 b 309 88 506 166 420 88 z m 283 -12 b 509 121 378 -12 467 41 l 512 121 l 512 0 l 624 0 l 624 488 b 354 718 624 628 519 718 b 75 502 187 718 83 624 l 189 502 b 351 614 203 571 260 614 b 506 476 449 614 506 562 l 506 417 l 304 406 b 48 199 141 396 48 320 b 283 -12 48 73 142 -12 z m 346 768 b 475 897 417 768 475 826 b 346 1027 475 968 417 1027 b 216 897 275 1027 216 968 b 346 768 216 826 275 768 z m 346 827 b 276 897 307 827 276 859 b 346 967 276 936 307 967 b 416 897 385 967 416 936 b 346 827 416 859 385 827 z "},"ǻ":{"ha":697,"x_min":0,"x_max":0,"o":"m 309 88 b 168 199 224 88 168 132 b 317 314 168 266 222 308 l 506 326 l 506 268 b 309 88 506 166 420 88 z m 283 -12 b 509 121 378 -12 467 41 l 512 121 l 512 0 l 624 0 l 624 488 b 354 718 624 628 519 718 b 75 502 187 718 83 624 l 189 502 b 351 614 203 571 260 614 b 506 476 449 614 506 562 l 506 417 l 304 406 b 48 199 141 396 48 320 b 283 -12 48 73 142 -12 z m 346 768 b 475 897 417 768 475 826 b 346 1027 475 968 417 1027 b 216 897 275 1027 216 968 b 346 768 216 826 275 768 z m 276 897 b 346 967 276 936 307 967 b 416 897 385 967 416 936 b 346 827 416 859 385 827 b 276 897 307 827 276 859 z m 298 1080 l 392 1080 l 487 1213 l 381 1213 z "},"ã":{"ha":697,"x_min":0,"x_max":0,"o":"m 309 88 b 168 199 224 88 168 132 b 317 314 168 266 222 308 l 506 326 l 506 268 b 309 88 506 166 420 88 z m 283 -12 b 509 121 378 -12 467 41 l 512 121 l 512 0 l 624 0 l 624 488 b 354 718 624 628 519 718 b 75 502 187 718 83 624 l 189 502 b 351 614 203 571 260 614 b 506 476 449 614 506 562 l 506 417 l 304 406 b 48 199 141 396 48 320 b 283 -12 48 73 142 -12 z m 437 812 b 565 986 511 812 565 878 l 485 986 b 438 889 485 921 467 889 b 261 992 387 889 357 992 b 132 819 184 992 132 930 l 212 819 b 260 916 210 882 229 916 b 437 812 314 916 348 812 z "},"ằ":{"ha":697,"x_min":0,"x_max":0,"o":"m 309 88 b 168 199 224 88 168 132 b 317 314 168 266 222 308 l 506 326 l 506 268 b 309 88 506 166 420 88 z m 283 -12 b 509 121 378 -12 467 41 l 512 121 l 512 0 l 624 0 l 624 488 b 354 718 624 628 519 718 b 75 502 187 718 83 624 l 189 502 b 351 614 203 571 260 614 b 506 476 449 614 506 562 l 506 417 l 304 406 b 48 199 141 396 48 320 b 283 -12 48 73 142 -12 z m 407 1012 l 265 1213 l 154 1213 l 311 1012 z m 564 1010 l 479 1010 b 346 873 479 928 423 873 b 213 1010 269 873 213 928 l 127 1010 b 346 800 127 887 212 800 b 564 1010 480 800 564 887 z "},"ǡ":{"ha":697,"x_min":0,"x_max":0,"o":"m 309 88 b 168 199 224 88 168 132 b 317 314 168 266 222 308 l 506 326 l 506 268 b 309 88 506 166 420 88 z m 283 -12 b 509 121 378 -12 467 41 l 512 121 l 512 0 l 624 0 l 624 488 b 354 718 624 628 519 718 b 75 502 187 718 83 624 l 189 502 b 351 614 203 571 260 614 b 506 476 449 614 506 562 l 506 417 l 304 406 b 48 199 141 396 48 320 b 283 -12 48 73 142 -12 z m 346 794 b 429 877 391 794 429 831 b 346 960 429 922 391 960 b 263 877 301 960 263 922 b 346 794 263 831 301 794 z m 541 1111 l 151 1111 l 151 1032 l 541 1032 z "},"ḁ":{"ha":697,"x_min":0,"x_max":0,"o":"m 309 88 b 168 199 224 88 168 132 b 317 314 168 266 222 308 l 506 326 l 506 268 b 309 88 506 166 420 88 z m 283 -12 b 509 121 378 -12 467 41 l 512 121 l 512 0 l 624 0 l 624 488 b 354 718 624 628 519 718 b 75 502 187 718 83 624 l 189 502 b 351 614 203 571 260 614 b 506 476 449 614 506 562 l 506 417 l 304 406 b 48 199 141 396 48 320 b 283 -12 48 73 142 -12 z m 336 -319 b 466 -190 408 -319 466 -261 b 336 -60 466 -119 408 -60 b 207 -190 265 -60 207 -119 b 336 -319 207 -261 265 -319 z m 336 -260 b 267 -190 298 -260 267 -229 b 336 -120 267 -151 298 -120 b 406 -190 375 -120 406 -151 b 336 -260 406 -229 375 -260 z "},"â":{"ha":697,"x_min":0,"x_max":0,"o":"m 309 88 b 168 199 224 88 168 132 b 317 314 168 266 222 308 l 506 326 l 506 268 b 309 88 506 166 420 88 z m 283 -12 b 509 121 378 -12 467 41 l 512 121 l 512 0 l 624 0 l 624 488 b 354 718 624 628 519 718 b 75 502 187 718 83 624 l 189 502 b 351 614 203 571 260 614 b 506 476 449 614 506 562 l 506 417 l 304 406 b 48 199 141 396 48 320 b 283 -12 48 73 142 -12 z m 391 1010 l 300 1010 l 116 807 l 227 807 l 344 937 l 348 937 l 465 807 l 576 807 z "},"ậ":{"ha":697,"x_min":0,"x_max":0,"o":"m 309 88 b 168 199 224 88 168 132 b 317 314 168 266 222 308 l 506 326 l 506 268 b 309 88 506 166 420 88 z m 283 -12 b 509 121 378 -12 467 41 l 512 121 l 512 0 l 624 0 l 624 488 b 354 718 624 628 519 718 b 75 502 187 718 83 624 l 189 502 b 351 614 203 571 260 614 b 506 476 449 614 506 562 l 506 417 l 304 406 b 48 199 141 396 48 320 b 283 -12 48 73 142 -12 z m 391 1010 l 300 1010 l 116 807 l 227 807 l 344 937 l 348 937 l 465 807 l 576 807 z m 336 -264 b 418 -182 382 -264 418 -227 b 336 -100 418 -136 382 -100 b 254 -182 291 -100 254 -136 b 336 -264 254 -227 291 -264 z "},"ấ":{"ha":697,"x_min":0,"x_max":0,"o":"m 309 88 b 168 199 224 88 168 132 b 317 314 168 266 222 308 l 506 326 l 506 268 b 309 88 506 166 420 88 z m 283 -12 b 509 121 378 -12 467 41 l 512 121 l 512 0 l 624 0 l 624 488 b 354 718 624 628 519 718 b 75 502 187 718 83 624 l 189 502 b 351 614 203 571 260 614 b 506 476 449 614 506 562 l 506 417 l 304 406 b 48 199 141 396 48 320 b 283 -12 48 73 142 -12 z m 392 997 l 300 997 l 115 807 l 227 807 l 344 928 l 348 928 l 465 807 l 576 807 z m 468 1012 l 564 1012 l 721 1213 l 610 1213 z "},"ẫ":{"ha":697,"x_min":0,"x_max":0,"o":"m 309 88 b 168 199 224 88 168 132 b 317 314 168 266 222 308 l 506 326 l 506 268 b 309 88 506 166 420 88 z m 283 -12 b 509 121 378 -12 467 41 l 512 121 l 512 0 l 624 0 l 624 488 b 354 718 624 628 519 718 b 75 502 187 718 83 624 l 189 502 b 351 614 203 571 260 614 b 506 476 449 614 506 562 l 506 417 l 304 406 b 48 199 141 396 48 320 b 283 -12 48 73 142 -12 z m 392 997 l 300 997 l 115 807 l 227 807 l 344 928 l 348 928 l 465 807 l 576 807 z m 435 1045 b 562 1208 509 1045 562 1109 l 483 1208 b 435 1120 483 1151 465 1120 b 258 1221 380 1120 347 1221 b 130 1058 181 1221 130 1160 l 209 1058 b 258 1146 206 1114 227 1146 b 435 1045 311 1146 345 1045 z "},"ầ":{"ha":697,"x_min":0,"x_max":0,"o":"m 309 88 b 168 199 224 88 168 132 b 317 314 168 266 222 308 l 506 326 l 506 268 b 309 88 506 166 420 88 z m 283 -12 b 509 121 378 -12 467 41 l 512 121 l 512 0 l 624 0 l 624 488 b 354 718 624 628 519 718 b 75 502 187 718 83 624 l 189 502 b 351 614 203 571 260 614 b 506 476 449 614 506 562 l 506 417 l 304 406 b 48 199 141 396 48 320 b 283 -12 48 73 142 -12 z m 392 997 l 300 997 l 115 807 l 227 807 l 344 928 l 348 928 l 465 807 l 576 807 z m 611 1012 l 469 1213 l 358 1213 l 515 1012 z "},"ẩ":{"ha":697,"x_min":0,"x_max":0,"o":"m 309 88 b 168 199 224 88 168 132 b 317 314 168 266 222 308 l 506 326 l 506 268 b 309 88 506 166 420 88 z m 283 -12 b 509 121 378 -12 467 41 l 512 121 l 512 0 l 624 0 l 624 488 b 354 718 624 628 519 718 b 75 502 187 718 83 624 l 189 502 b 351 614 203 571 260 614 b 506 476 449 614 506 562 l 506 417 l 304 406 b 48 199 141 396 48 320 b 283 -12 48 73 142 -12 z m 405 1132 b 472 1145 427 1141 448 1145 b 530 1097 505 1145 530 1124 b 470 1029 530 1068 507 1042 l 517 981 b 610 1103 576 1000 610 1044 b 479 1213 610 1170 559 1213 b 405 1198 453 1213 420 1206 z m 392 997 l 300 997 l 115 807 l 227 807 l 344 928 l 348 928 l 465 807 l 576 807 z "},"ă":{"ha":697,"x_min":0,"x_max":0,"o":"m 309 88 b 168 199 224 88 168 132 b 317 314 168 266 222 308 l 506 326 l 506 268 b 309 88 506 166 420 88 z m 283 -12 b 509 121 378 -12 467 41 l 512 121 l 512 0 l 624 0 l 624 488 b 354 718 624 628 519 718 b 75 502 187 718 83 624 l 189 502 b 351 614 203 571 260 614 b 506 476 449 614 506 562 l 506 417 l 304 406 b 48 199 141 396 48 320 b 283 -12 48 73 142 -12 z m 127 1010 b 345 800 127 887 211 800 b 564 1010 479 800 564 887 l 478 1010 b 345 873 478 928 422 873 b 212 1010 268 873 212 928 z "},"ắ":{"ha":697,"x_min":0,"x_max":0,"o":"m 309 88 b 168 199 224 88 168 132 b 317 314 168 266 222 308 l 506 326 l 506 268 b 309 88 506 166 420 88 z m 283 -12 b 509 121 378 -12 467 41 l 512 121 l 512 0 l 624 0 l 624 488 b 354 718 624 628 519 718 b 75 502 187 718 83 624 l 189 502 b 351 614 203 571 260 614 b 506 476 449 614 506 562 l 506 417 l 304 406 b 48 199 141 396 48 320 b 283 -12 48 73 142 -12 z m 285 1012 l 381 1012 l 538 1213 l 427 1213 z m 564 1010 l 479 1010 b 346 873 479 928 423 873 b 213 1010 269 873 213 928 l 127 1010 b 346 800 127 887 212 800 b 564 1010 480 800 564 887 z "},"ẵ":{"ha":697,"x_min":0,"x_max":0,"o":"m 309 88 b 168 199 224 88 168 132 b 317 314 168 266 222 308 l 506 326 l 506 268 b 309 88 506 166 420 88 z m 283 -12 b 509 121 378 -12 467 41 l 512 121 l 512 0 l 624 0 l 624 488 b 354 718 624 628 519 718 b 75 502 187 718 83 624 l 189 502 b 351 614 203 571 260 614 b 506 476 449 614 506 562 l 506 417 l 304 406 b 48 199 141 396 48 320 b 283 -12 48 73 142 -12 z m 564 1010 l 479 1010 b 346 873 479 928 423 873 b 213 1010 269 873 213 928 l 127 1010 b 346 800 127 887 212 800 b 564 1010 480 800 564 887 z m 435 1045 b 562 1208 509 1045 562 1109 l 483 1208 b 435 1120 483 1151 464 1120 b 258 1221 385 1120 354 1221 b 130 1058 181 1221 130 1160 l 209 1058 b 258 1146 206 1114 227 1146 b 435 1045 311 1146 345 1045 z "},"ẳ":{"ha":697,"x_min":0,"x_max":0,"o":"m 309 88 b 168 199 224 88 168 132 b 317 314 168 266 222 308 l 506 326 l 506 268 b 309 88 506 166 420 88 z m 283 -12 b 509 121 378 -12 467 41 l 512 121 l 512 0 l 624 0 l 624 488 b 354 718 624 628 519 718 b 75 502 187 718 83 624 l 189 502 b 351 614 203 571 260 614 b 506 476 449 614 506 562 l 506 417 l 304 406 b 48 199 141 396 48 320 b 283 -12 48 73 142 -12 z m 564 1010 l 479 1010 b 346 873 479 928 423 873 b 213 1010 269 873 213 928 l 127 1010 b 346 800 127 887 212 800 b 564 1010 480 800 564 887 z m 237 1132 b 304 1145 260 1141 281 1145 b 362 1097 337 1145 362 1124 b 302 1029 362 1068 340 1042 l 349 981 b 442 1103 408 1000 442 1044 b 312 1213 442 1170 391 1213 b 237 1198 286 1213 253 1206 z "},"ặ":{"ha":697,"x_min":0,"x_max":0,"o":"m 309 88 b 168 199 224 88 168 132 b 317 314 168 266 222 308 l 506 326 l 506 268 b 309 88 506 166 420 88 z m 283 -12 b 509 121 378 -12 467 41 l 512 121 l 512 0 l 624 0 l 624 488 b 354 718 624 628 519 718 b 75 502 187 718 83 624 l 189 502 b 351 614 203 571 260 614 b 506 476 449 614 506 562 l 506 417 l 304 406 b 48 199 141 396 48 320 b 283 -12 48 73 142 -12 z m 127 1010 b 345 800 127 887 211 800 b 564 1010 479 800 564 887 l 478 1010 b 345 873 478 928 422 873 b 212 1010 268 873 212 928 z m 336 -264 b 418 -182 382 -264 418 -227 b 336 -100 418 -136 382 -100 b 254 -182 291 -100 254 -136 b 336 -264 254 -227 291 -264 z "},"ȃ":{"ha":697,"x_min":0,"x_max":0,"o":"m 309 88 b 168 199 224 88 168 132 b 317 314 168 266 222 308 l 506 326 l 506 268 b 309 88 506 166 420 88 z m 283 -12 b 509 121 378 -12 467 41 l 512 121 l 512 0 l 624 0 l 624 488 b 354 718 624 628 519 718 b 75 502 187 718 83 624 l 189 502 b 351 614 203 571 260 614 b 506 476 449 614 506 562 l 506 417 l 304 406 b 48 199 141 396 48 320 b 283 -12 48 73 142 -12 z m 127 807 l 213 807 b 346 943 213 890 269 943 b 479 807 423 943 479 890 l 564 807 b 346 1017 564 932 480 1017 b 127 807 212 1017 127 932 z "},"ǎ":{"ha":697,"x_min":0,"x_max":0,"o":"m 309 88 b 168 199 224 88 168 132 b 317 314 168 266 222 308 l 506 326 l 506 268 b 309 88 506 166 420 88 z m 283 -12 b 509 121 378 -12 467 41 l 512 121 l 512 0 l 624 0 l 624 488 b 354 718 624 628 519 718 b 75 502 187 718 83 624 l 189 502 b 351 614 203 571 260 614 b 506 476 449 614 506 562 l 506 417 l 304 406 b 48 199 141 396 48 320 b 283 -12 48 73 142 -12 z m 391 807 l 576 1010 l 465 1010 l 348 878 l 344 878 l 227 1010 l 116 1010 l 300 807 z "},"ȧ":{"ha":697,"x_min":0,"x_max":0,"o":"m 309 88 b 168 199 224 88 168 132 b 317 314 168 266 222 308 l 506 326 l 506 268 b 309 88 506 166 420 88 z m 283 -12 b 509 121 378 -12 467 41 l 512 121 l 512 0 l 624 0 l 624 488 b 354 718 624 628 519 718 b 75 502 187 718 83 624 l 189 502 b 351 614 203 571 260 614 b 506 476 449 614 506 562 l 506 417 l 304 406 b 48 199 141 396 48 320 b 283 -12 48 73 142 -12 z m 346 814 b 430 899 392 814 430 852 b 346 983 430 945 392 983 b 262 899 300 983 262 945 b 346 814 262 852 300 814 z "},"ạ":{"ha":697,"x_min":0,"x_max":0,"o":"m 309 88 b 168 199 224 88 168 132 b 317 314 168 266 222 308 l 506 326 l 506 268 b 309 88 506 166 420 88 z m 283 -12 b 509 121 378 -12 467 41 l 512 121 l 512 0 l 624 0 l 624 488 b 354 718 624 628 519 718 b 75 502 187 718 83 624 l 189 502 b 351 614 203 571 260 614 b 506 476 449 614 506 562 l 506 417 l 304 406 b 48 199 141 396 48 320 b 283 -12 48 73 142 -12 z m 336 -264 b 418 -182 382 -264 418 -227 b 336 -100 418 -136 382 -100 b 254 -182 291 -100 254 -136 b 336 -264 254 -227 291 -264 z "},"ả":{"ha":697,"x_min":0,"x_max":0,"o":"m 309 88 b 168 199 224 88 168 132 b 317 314 168 266 222 308 l 506 326 l 506 268 b 309 88 506 166 420 88 z m 283 -12 b 509 121 378 -12 467 41 l 512 121 l 512 0 l 624 0 l 624 488 b 354 718 624 628 519 718 b 75 502 187 718 83 624 l 189 502 b 351 614 203 571 260 614 b 506 476 449 614 506 562 l 506 417 l 304 406 b 48 199 141 396 48 320 b 283 -12 48 73 142 -12 z m 266 943 b 335 959 296 956 311 959 b 395 907 369 959 395 936 b 333 836 395 873 376 850 l 374 779 b 484 912 441 803 484 855 b 357 1031 484 984 434 1031 b 266 1014 320 1031 295 1026 z "},"ȁ":{"ha":697,"x_min":0,"x_max":0,"o":"m 309 88 b 168 199 224 88 168 132 b 317 314 168 266 222 308 l 506 326 l 506 268 b 309 88 506 166 420 88 z m 283 -12 b 509 121 378 -12 467 41 l 512 121 l 512 0 l 624 0 l 624 488 b 354 718 624 628 519 718 b 75 502 187 718 83 624 l 189 502 b 351 614 203 571 260 614 b 506 476 449 614 506 562 l 506 417 l 304 406 b 48 199 141 396 48 320 b 283 -12 48 73 142 -12 z m 285 807 l 152 1010 l 26 1010 l 191 807 z m 499 807 l 366 1010 l 241 1010 l 405 807 z "},"ā":{"ha":697,"x_min":0,"x_max":0,"o":"m 309 88 b 168 199 224 88 168 132 b 317 314 168 266 222 308 l 506 326 l 506 268 b 309 88 506 166 420 88 z m 283 -12 b 509 121 378 -12 467 41 l 512 121 l 512 0 l 624 0 l 624 488 b 354 718 624 628 519 718 b 75 502 187 718 83 624 l 189 502 b 351 614 203 571 260 614 b 506 476 449 614 506 562 l 506 417 l 304 406 b 48 199 141 396 48 320 b 283 -12 48 73 142 -12 z m 541 929 l 151 929 l 151 850 l 541 850 z "},"ą":{"ha":697,"x_min":0,"x_max":0,"o":"m 309 88 b 168 199 224 88 168 132 b 317 313 168 266 222 307 l 506 324 l 506 268 b 309 88 506 166 420 88 z m 621 -268 l 621 -188 b 566 -194 604 -191 585 -194 b 490 -129 523 -194 490 -172 b 618 -3 490 -72 556 -27 l 624 -1 l 624 484 b 355 712 624 622 517 712 b 79 501 200 712 83 623 l 192 501 b 353 608 205 568 267 608 b 506 474 450 608 506 559 l 506 416 l 304 404 b 48 199 141 395 48 320 b 283 -13 48 73 142 -13 b 509 121 378 -13 467 41 l 512 121 l 512 15 b 391 -156 456 -16 391 -73 b 542 -279 391 -231 455 -279 b 621 -268 578 -279 608 -274 z "},"b":{"ha":770,"x_min":0,"x_max":0,"o":"m 427 -12 b 727 353 608 -12 727 131 b 429 718 727 574 607 718 b 203 587 330 718 248 668 l 201 587 l 201 979 l 83 979 l 83 0 l 195 0 l 195 119 l 198 119 b 427 -12 243 38 324 -12 z m 404 614 b 606 353 529 614 606 513 b 404 92 606 191 529 92 b 200 353 285 92 200 195 b 404 614 200 509 285 614 z "},"ḇ":{"ha":770,"x_min":0,"x_max":0,"o":"m 427 -12 b 727 353 608 -12 727 131 b 429 718 727 574 607 718 b 203 587 330 718 248 668 l 201 587 l 201 979 l 83 979 l 83 0 l 195 0 l 195 119 l 198 119 b 427 -12 243 38 324 -12 z m 404 614 b 606 353 529 614 606 513 b 404 92 606 191 529 92 b 200 353 285 92 200 195 b 404 614 200 509 285 614 z m 620 -147 l 190 -147 l 190 -226 l 620 -226 z "},"ḅ":{"ha":770,"x_min":0,"x_max":0,"o":"m 427 -12 b 727 353 608 -12 727 131 b 429 718 727 574 607 718 b 203 587 330 718 248 668 l 201 587 l 201 979 l 83 979 l 83 0 l 195 0 l 195 119 l 198 119 b 427 -12 243 38 324 -12 z m 404 614 b 606 353 529 614 606 513 b 404 92 606 191 529 92 b 200 353 285 92 200 195 b 404 614 200 509 285 614 z m 405 -264 b 487 -182 450 -264 487 -227 b 405 -100 487 -136 450 -100 b 323 -182 359 -100 323 -136 b 405 -264 323 -227 359 -264 z "},"ḃ":{"ha":770,"x_min":0,"x_max":0,"o":"m 427 -12 b 727 353 608 -12 727 131 b 429 718 727 574 607 718 b 203 587 330 718 248 668 l 201 587 l 201 979 l 83 979 l 83 0 l 195 0 l 195 119 l 198 119 b 427 -12 243 38 324 -12 z m 404 614 b 606 353 529 614 606 513 b 404 92 606 191 529 92 b 200 353 285 92 200 195 b 404 614 200 509 285 614 z m 142 1075 b 224 1157 187 1075 224 1112 b 142 1239 224 1202 187 1239 b 60 1157 96 1239 60 1202 b 142 1075 60 1112 96 1075 z "},"c":{"ha":696,"x_min":0,"x_max":0,"o":"m 663 474 b 366 718 648 601 543 718 b 42 353 172 718 42 575 b 368 -12 42 125 172 -12 b 664 227 528 -12 646 87 l 548 227 b 368 92 528 142 465 92 b 162 353 246 92 162 189 b 367 614 162 513 245 614 b 547 474 471 614 530 551 z "},"ć":{"ha":696,"x_min":0,"x_max":0,"o":"m 663 474 b 366 718 648 601 543 718 b 42 353 172 718 42 575 b 368 -12 42 125 172 -12 b 664 227 528 -12 646 87 l 548 227 b 368 92 528 142 465 92 b 162 353 246 92 162 189 b 367 614 162 513 245 614 b 547 474 471 614 530 551 z m 418 807 l 585 1010 l 458 1010 l 315 807 z "},"č":{"ha":696,"x_min":0,"x_max":0,"o":"m 663 474 b 366 718 648 601 543 718 b 42 353 172 718 42 575 b 368 -12 42 125 172 -12 b 664 227 528 -12 646 87 l 548 227 b 368 92 528 142 465 92 b 162 353 246 92 162 189 b 367 614 162 513 245 614 b 547 474 471 614 530 551 z m 410 807 l 595 1010 l 484 1010 l 367 878 l 363 878 l 245 1010 l 135 1010 l 319 807 z "},"ĉ":{"ha":696,"x_min":0,"x_max":0,"o":"m 663 474 b 366 718 648 601 543 718 b 42 353 172 718 42 575 b 368 -12 42 125 172 -12 b 664 227 528 -12 646 87 l 548 227 b 368 92 528 142 465 92 b 162 353 246 92 162 189 b 367 614 162 513 245 614 b 547 474 471 614 530 551 z m 410 1010 l 319 1010 l 135 807 l 245 807 l 363 937 l 367 937 l 484 807 l 595 807 z "},"ċ":{"ha":696,"x_min":0,"x_max":0,"o":"m 663 474 b 366 718 648 601 543 718 b 42 353 172 718 42 575 b 368 -12 42 125 172 -12 b 664 227 528 -12 646 87 l 548 227 b 368 92 528 142 465 92 b 162 353 246 92 162 189 b 367 614 162 513 245 614 b 547 474 471 614 530 551 z m 365 814 b 449 899 411 814 449 852 b 365 983 449 945 411 983 b 281 899 319 983 281 945 b 365 814 281 852 319 814 z "},"ç":{"ha":696,"x_min":0,"x_max":0,"o":"m 548 227 b 368 92 528 142 465 92 b 162 353 246 92 162 189 b 367 614 162 513 245 614 b 547 474 471 614 530 551 l 663 474 b 366 718 648 601 543 718 b 42 353 172 718 42 575 b 330 -10 42 140 156 6 l 292 -108 l 292 -155 l 339 -155 b 438 -198 408 -155 438 -167 b 352 -247 438 -229 408 -247 b 267 -239 323 -247 282 -242 l 267 -308 b 369 -317 285 -313 330 -318 b 528 -197 457 -316 528 -274 b 382 -88 528 -127 471 -90 l 416 -9 b 664 227 551 9 648 102 z "},"ḉ":{"ha":696,"x_min":0,"x_max":0,"o":"m 585 1010 l 458 1010 l 315 807 l 418 807 z m 548 227 b 368 92 528 142 465 92 b 162 353 246 92 162 189 b 367 614 162 513 245 614 b 547 474 471 614 530 551 l 663 474 b 366 718 648 601 543 718 b 42 353 172 718 42 575 b 330 -10 42 140 156 6 l 292 -108 l 292 -155 l 339 -155 b 438 -198 408 -155 438 -167 b 352 -247 438 -229 408 -247 b 267 -239 323 -247 282 -242 l 267 -308 b 369 -317 285 -313 330 -318 b 528 -197 457 -316 528 -274 b 382 -88 528 -127 471 -90 l 416 -9 b 664 227 551 9 648 102 z "},"d":{"ha":769,"x_min":0,"x_max":0,"o":"m 344 -12 b 572 119 446 -12 526 38 l 574 119 l 574 0 l 686 0 l 686 979 l 568 979 l 568 591 l 566 591 b 341 718 524 668 442 718 b 42 353 163 718 42 574 b 344 -12 42 132 164 -12 z m 366 614 b 569 353 488 614 569 510 b 366 92 569 195 488 92 b 163 353 241 92 163 193 b 366 614 163 512 241 614 z "},"ḋ":{"ha":769,"x_min":0,"x_max":0,"o":"m 344 -12 b 572 119 446 -12 526 38 l 574 119 l 574 0 l 686 0 l 686 979 l 568 979 l 568 591 l 566 591 b 341 718 524 668 442 718 b 42 353 163 718 42 574 b 344 -12 42 132 164 -12 z m 366 614 b 569 353 488 614 569 510 b 366 92 569 195 488 92 b 163 353 241 92 163 193 b 366 614 163 512 241 614 z m 628 1075 b 710 1157 673 1075 710 1112 b 628 1239 710 1202 673 1239 b 546 1157 583 1239 546 1202 b 628 1075 546 1112 583 1075 z "},"ḓ":{"ha":769,"x_min":0,"x_max":0,"o":"m 344 -12 b 572 119 446 -12 526 38 l 574 119 l 574 0 l 686 0 l 686 979 l 568 979 l 568 591 l 566 591 b 341 718 524 668 442 718 b 42 353 163 718 42 574 b 344 -12 42 132 164 -12 z m 366 614 b 569 353 488 614 569 510 b 366 92 569 195 488 92 b 163 353 241 92 163 193 b 366 614 163 512 241 614 z m 301 -86 l 109 -288 l 222 -288 l 345 -158 l 349 -158 l 471 -288 l 584 -288 l 392 -86 z "},"ḑ":{"ha":769,"x_min":0,"x_max":0,"o":"m 344 -12 b 572 119 446 -12 526 38 l 574 119 l 574 0 l 686 0 l 686 979 l 568 979 l 568 591 l 566 591 b 341 718 524 668 442 718 b 42 353 163 718 42 574 b 344 -12 42 132 164 -12 z m 366 614 b 569 353 488 614 569 510 b 366 92 569 195 488 92 b 163 353 241 92 163 193 b 366 614 163 512 241 614 z m 328 -330 l 418 -86 l 315 -86 l 242 -330 z "},"ḏ":{"ha":769,"x_min":0,"x_max":0,"o":"m 344 -12 b 572 119 446 -12 526 38 l 574 119 l 574 0 l 686 0 l 686 979 l 568 979 l 568 591 l 566 591 b 341 718 524 668 442 718 b 42 353 163 718 42 574 b 344 -12 42 132 164 -12 z m 366 614 b 569 353 488 614 569 510 b 366 92 569 195 488 92 b 163 353 241 92 163 193 b 366 614 163 512 241 614 z m 562 -147 l 132 -147 l 132 -226 l 562 -226 z "},"ď":{"ha":873,"x_min":0,"x_max":0,"o":"m 785 979 l 785 659 l 859 659 l 880 979 z m 344 -12 b 572 119 446 -12 526 38 l 574 119 l 574 0 l 686 0 l 686 979 l 568 979 l 568 591 l 566 591 b 341 718 524 668 442 718 b 42 353 163 718 42 574 b 344 -12 42 132 164 -12 z m 366 614 b 569 353 488 614 569 510 b 366 92 569 195 488 92 b 163 353 241 92 163 193 b 366 614 163 512 241 614 z "},"ḍ":{"ha":769,"x_min":0,"x_max":0,"o":"m 344 -12 b 572 119 446 -12 526 38 l 574 119 l 574 0 l 686 0 l 686 979 l 568 979 l 568 591 l 566 591 b 341 718 524 668 442 718 b 42 353 163 718 42 574 b 344 -12 42 132 164 -12 z m 366 614 b 569 353 488 614 569 510 b 366 92 569 195 488 92 b 163 353 241 92 163 193 b 366 614 163 512 241 614 z m 347 -264 b 429 -182 392 -264 429 -227 b 347 -100 429 -136 392 -100 b 264 -182 301 -100 264 -136 b 347 -264 264 -227 301 -264 z "},"đ":{"ha":781,"x_min":0,"x_max":0,"o":"m 366 98 b 163 353 244 98 163 198 b 366 608 163 507 244 608 b 569 353 488 608 569 505 b 366 98 569 200 488 98 z m 772 909 l 686 909 l 686 979 l 568 979 l 568 909 l 406 909 l 406 827 l 568 827 l 568 591 l 566 591 b 341 712 523 668 442 712 b 42 353 166 712 42 568 b 344 -7 42 137 167 -7 b 572 119 446 -7 526 38 l 574 119 l 574 0 l 686 0 l 686 827 l 772 827 z "},"e":{"ha":711,"x_min":0,"x_max":0,"o":"m 359 615 b 547 413 471 615 545 531 l 164 413 b 359 615 172 530 249 615 z m 545 202 b 370 90 525 136 459 90 b 163 314 243 90 163 179 l 163 321 l 669 321 l 669 366 b 361 718 669 579 552 718 b 42 350 167 718 42 569 b 367 -12 42 128 165 -12 b 661 202 521 -12 640 79 z "},"è":{"ha":711,"x_min":0,"x_max":0,"o":"m 359 615 b 547 413 471 615 545 531 l 164 413 b 359 615 172 530 249 615 z m 545 202 b 370 90 525 136 459 90 b 163 314 243 90 163 179 l 163 321 l 669 321 l 669 366 b 361 718 669 579 552 718 b 42 350 167 718 42 569 b 367 -12 42 128 165 -12 b 661 202 521 -12 640 79 z m 405 807 l 262 1010 l 135 1010 l 302 807 z "},"ȅ":{"ha":711,"x_min":0,"x_max":0,"o":"m 359 615 b 547 413 471 615 545 531 l 164 413 b 359 615 172 530 249 615 z m 545 202 b 370 90 525 136 459 90 b 163 314 243 90 163 179 l 163 321 l 669 321 l 669 366 b 361 718 669 579 552 718 b 42 350 167 718 42 569 b 367 -12 42 128 165 -12 b 661 202 521 -12 640 79 z m 300 807 l 168 1010 l 42 1010 l 206 807 z m 515 807 l 382 1010 l 256 1010 l 420 807 z "},"é":{"ha":711,"x_min":0,"x_max":0,"o":"m 359 615 b 547 413 471 615 545 531 l 164 413 b 359 615 172 530 249 615 z m 545 202 b 370 90 525 136 459 90 b 163 314 243 90 163 179 l 163 321 l 669 321 l 669 366 b 361 718 669 579 552 718 b 42 350 167 718 42 569 b 367 -12 42 128 165 -12 b 661 202 521 -12 640 79 z m 415 807 l 582 1010 l 454 1010 l 312 807 z "},"ê":{"ha":711,"x_min":0,"x_max":0,"o":"m 359 615 b 547 413 471 615 545 531 l 164 413 b 359 615 172 530 249 615 z m 545 202 b 370 90 525 136 459 90 b 163 314 243 90 163 179 l 163 321 l 669 321 l 669 366 b 361 718 669 579 552 718 b 42 350 167 718 42 569 b 367 -12 42 128 165 -12 b 661 202 521 -12 640 79 z m 407 1010 l 316 1010 l 132 807 l 242 807 l 359 937 l 363 937 l 481 807 l 591 807 z "},"ể":{"ha":711,"x_min":0,"x_max":0,"o":"m 359 615 b 547 413 471 615 545 531 l 164 413 b 359 615 172 530 249 615 z m 545 202 b 370 90 525 136 459 90 b 163 314 243 90 163 179 l 163 321 l 669 321 l 669 366 b 361 718 669 579 552 718 b 42 350 167 718 42 569 b 367 -12 42 128 165 -12 b 661 202 521 -12 640 79 z m 420 1132 b 488 1145 443 1141 464 1145 b 545 1097 520 1145 545 1124 b 486 1029 545 1068 523 1042 l 532 981 b 625 1103 591 1000 625 1044 b 495 1213 625 1170 574 1213 b 420 1198 469 1213 436 1206 z m 408 997 l 315 997 l 131 807 l 242 807 l 359 928 l 363 928 l 481 807 l 592 807 z "},"ề":{"ha":711,"x_min":0,"x_max":0,"o":"m 359 615 b 547 413 471 615 545 531 l 164 413 b 359 615 172 530 249 615 z m 545 202 b 370 90 525 136 459 90 b 163 314 243 90 163 179 l 163 321 l 669 321 l 669 366 b 361 718 669 579 552 718 b 42 350 167 718 42 569 b 367 -12 42 128 165 -12 b 661 202 521 -12 640 79 z m 408 997 l 315 997 l 131 807 l 242 807 l 359 928 l 363 928 l 481 807 l 592 807 z m 627 1012 l 485 1213 l 374 1213 l 530 1012 z "},"ễ":{"ha":711,"x_min":0,"x_max":0,"o":"m 359 615 b 547 413 471 615 545 531 l 164 413 b 359 615 172 530 249 615 z m 545 202 b 370 90 525 136 459 90 b 163 314 243 90 163 179 l 163 321 l 669 321 l 669 366 b 361 718 669 579 552 718 b 42 350 167 718 42 569 b 367 -12 42 128 165 -12 b 661 202 521 -12 640 79 z m 408 997 l 315 997 l 131 807 l 242 807 l 359 928 l 363 928 l 481 807 l 592 807 z m 450 1045 b 577 1208 524 1045 577 1109 l 498 1208 b 451 1120 498 1151 481 1120 b 274 1221 396 1120 362 1221 b 146 1058 197 1221 146 1160 l 224 1058 b 273 1146 222 1114 242 1146 b 450 1045 327 1146 361 1045 z "},"ệ":{"ha":711,"x_min":0,"x_max":0,"o":"m 359 615 b 547 413 471 615 545 531 l 164 413 b 359 615 172 530 249 615 z m 545 202 b 370 90 525 136 459 90 b 163 314 243 90 163 179 l 163 321 l 669 321 l 669 366 b 361 718 669 579 552 718 b 42 350 167 718 42 569 b 367 -12 42 128 165 -12 b 661 202 521 -12 640 79 z m 407 1010 l 316 1010 l 132 807 l 242 807 l 359 937 l 363 937 l 481 807 l 591 807 z m 366 -264 b 448 -182 412 -264 448 -227 b 366 -100 448 -136 412 -100 b 284 -182 321 -100 284 -136 b 366 -264 284 -227 321 -264 z "},"ế":{"ha":711,"x_min":0,"x_max":0,"o":"m 359 615 b 547 413 471 615 545 531 l 164 413 b 359 615 172 530 249 615 z m 545 202 b 370 90 525 136 459 90 b 163 314 243 90 163 179 l 163 321 l 669 321 l 669 366 b 361 718 669 579 552 718 b 42 350 167 718 42 569 b 367 -12 42 128 165 -12 b 661 202 521 -12 640 79 z m 408 997 l 315 997 l 131 807 l 242 807 l 359 928 l 363 928 l 481 807 l 592 807 z m 484 1012 l 580 1012 l 736 1213 l 625 1213 z "},"ë":{"ha":711,"x_min":0,"x_max":0,"o":"m 359 615 b 547 413 471 615 545 531 l 164 413 b 359 615 172 530 249 615 z m 545 202 b 370 90 525 136 459 90 b 163 314 243 90 163 179 l 163 321 l 669 321 l 669 366 b 361 718 669 579 552 718 b 42 350 167 718 42 569 b 367 -12 42 128 165 -12 b 661 202 521 -12 640 79 z m 235 816 b 310 890 276 816 310 849 b 235 965 310 932 276 965 b 161 890 195 965 161 932 b 235 816 161 849 195 816 z m 488 816 b 562 890 528 816 562 849 b 488 965 562 932 528 965 b 413 890 447 965 413 932 b 488 816 413 849 447 816 z "},"ẹ":{"ha":711,"x_min":0,"x_max":0,"o":"m 359 615 b 547 413 471 615 545 531 l 164 413 b 359 615 172 530 249 615 z m 545 202 b 370 90 525 136 459 90 b 163 314 243 90 163 179 l 163 321 l 669 321 l 669 366 b 361 718 669 579 552 718 b 42 350 167 718 42 569 b 367 -12 42 128 165 -12 b 661 202 521 -12 640 79 z m 366 -264 b 448 -182 412 -264 448 -227 b 366 -100 448 -136 412 -100 b 284 -182 321 -100 284 -136 b 366 -264 284 -227 321 -264 z "},"ȇ":{"ha":711,"x_min":0,"x_max":0,"o":"m 359 615 b 547 413 471 615 545 531 l 164 413 b 359 615 172 530 249 615 z m 545 202 b 370 90 525 136 459 90 b 163 314 243 90 163 179 l 163 321 l 669 321 l 669 366 b 361 718 669 579 552 718 b 42 350 167 718 42 569 b 367 -12 42 128 165 -12 b 661 202 521 -12 640 79 z m 143 807 l 229 807 b 361 943 229 890 284 943 b 494 807 439 943 494 890 l 580 807 b 361 1017 580 932 496 1017 b 143 807 227 1017 143 932 z "},"ẻ":{"ha":711,"x_min":0,"x_max":0,"o":"m 359 615 b 547 413 471 615 545 531 l 164 413 b 359 615 172 530 249 615 z m 545 202 b 370 90 525 136 459 90 b 163 314 243 90 163 179 l 163 321 l 669 321 l 669 366 b 361 718 669 579 552 718 b 42 350 167 718 42 569 b 367 -12 42 128 165 -12 b 661 202 521 -12 640 79 z m 281 943 b 351 959 311 956 327 959 b 411 907 385 959 411 936 b 349 836 411 873 391 850 l 390 779 b 500 912 456 803 500 855 b 372 1031 500 984 450 1031 b 281 1014 336 1031 311 1026 z "},"ě":{"ha":711,"x_min":0,"x_max":0,"o":"m 359 615 b 547 413 471 615 545 531 l 164 413 b 359 615 172 530 249 615 z m 545 202 b 370 90 525 136 459 90 b 163 314 243 90 163 179 l 163 321 l 669 321 l 669 366 b 361 718 669 579 552 718 b 42 350 167 718 42 569 b 367 -12 42 128 165 -12 b 661 202 521 -12 640 79 z m 407 807 l 591 1010 l 481 1010 l 363 878 l 359 878 l 242 1010 l 132 1010 l 316 807 z "},"ē":{"ha":711,"x_min":0,"x_max":0,"o":"m 359 615 b 547 413 471 615 545 531 l 164 413 b 359 615 172 530 249 615 z m 545 202 b 370 90 525 136 459 90 b 163 314 243 90 163 179 l 163 321 l 669 321 l 669 366 b 361 718 669 579 552 718 b 42 350 167 718 42 569 b 367 -12 42 128 165 -12 b 661 202 521 -12 640 79 z m 556 929 l 167 929 l 167 850 l 556 850 z "},"ḕ":{"ha":711,"x_min":0,"x_max":0,"o":"m 359 615 b 547 413 471 615 545 531 l 164 413 b 359 615 172 530 249 615 z m 545 202 b 370 90 525 136 459 90 b 163 314 243 90 163 179 l 163 321 l 669 321 l 669 366 b 361 718 669 579 552 718 b 42 350 167 718 42 569 b 367 -12 42 128 165 -12 b 661 202 521 -12 640 79 z m 422 1012 l 281 1213 l 170 1213 l 326 1012 z m 556 901 l 167 901 l 167 823 l 556 823 z "},"ḗ":{"ha":711,"x_min":0,"x_max":0,"o":"m 359 615 b 547 413 471 615 545 531 l 164 413 b 359 615 172 530 249 615 z m 545 202 b 370 90 525 136 459 90 b 163 314 243 90 163 179 l 163 321 l 669 321 l 669 366 b 361 718 669 579 552 718 b 42 350 167 718 42 569 b 367 -12 42 128 165 -12 b 661 202 521 -12 640 79 z m 300 1012 l 397 1012 l 553 1213 l 442 1213 z m 556 901 l 167 901 l 167 823 l 556 823 z "},"ẽ":{"ha":711,"x_min":0,"x_max":0,"o":"m 359 615 b 547 413 471 615 545 531 l 164 413 b 359 615 172 530 249 615 z m 545 202 b 370 90 525 136 459 90 b 163 314 243 90 163 179 l 163 321 l 669 321 l 669 366 b 361 718 669 579 552 718 b 42 350 167 718 42 569 b 367 -12 42 128 165 -12 b 661 202 521 -12 640 79 z m 453 812 b 581 986 527 812 581 878 l 500 986 b 454 889 500 921 482 889 b 277 992 403 889 372 992 b 148 819 199 992 148 930 l 228 819 b 276 916 225 882 245 916 b 453 812 330 916 363 812 z "},"ḙ":{"ha":711,"x_min":0,"x_max":0,"o":"m 359 615 b 547 413 471 615 545 531 l 164 413 b 359 615 172 530 249 615 z m 545 202 b 370 90 525 136 459 90 b 163 314 243 90 163 179 l 163 321 l 669 321 l 669 366 b 361 718 669 579 552 718 b 42 350 167 718 42 569 b 367 -12 42 128 165 -12 b 661 202 521 -12 640 79 z m 321 -86 l 129 -288 l 241 -288 l 364 -158 l 368 -158 l 491 -288 l 604 -288 l 412 -86 z "},"ĕ":{"ha":711,"x_min":0,"x_max":0,"o":"m 359 615 b 547 413 471 615 545 531 l 164 413 b 359 615 172 530 249 615 z m 545 202 b 370 90 525 136 459 90 b 163 314 243 90 163 179 l 163 321 l 669 321 l 669 366 b 361 718 669 579 552 718 b 42 350 167 718 42 569 b 367 -12 42 128 165 -12 b 661 202 521 -12 640 79 z m 142 1010 b 361 800 142 887 227 800 b 579 1010 495 800 579 887 l 494 1010 b 361 873 494 928 438 873 b 228 1010 283 873 228 928 z "},"ḛ":{"ha":711,"x_min":0,"x_max":0,"o":"m 359 615 b 547 413 471 615 545 531 l 164 413 b 359 615 172 530 249 615 z m 545 202 b 370 90 525 136 459 90 b 163 314 243 90 163 179 l 163 321 l 669 321 l 669 366 b 361 718 669 579 552 718 b 42 350 167 718 42 569 b 367 -12 42 128 165 -12 b 661 202 521 -12 640 79 z m 455 -233 b 583 -60 529 -233 583 -168 l 503 -60 b 456 -157 503 -125 484 -157 b 279 -54 405 -157 374 -54 b 150 -227 201 -54 150 -115 l 230 -227 b 278 -130 227 -163 247 -130 b 455 -233 332 -130 366 -233 z "},"ė":{"ha":711,"x_min":0,"x_max":0,"o":"m 359 615 b 547 413 471 615 545 531 l 164 413 b 359 615 172 530 249 615 z m 545 202 b 370 90 525 136 459 90 b 163 314 243 90 163 179 l 163 321 l 669 321 l 669 366 b 361 718 669 579 552 718 b 42 350 167 718 42 569 b 367 -12 42 128 165 -12 b 661 202 521 -12 640 79 z m 361 814 b 446 899 408 814 446 852 b 361 983 446 945 408 983 b 277 899 315 983 277 945 b 361 814 277 852 315 814 z "},"ȩ":{"ha":711,"x_min":0,"x_max":0,"o":"m 164 413 b 359 615 172 530 249 615 b 547 413 471 615 545 531 z m 669 321 l 669 366 b 361 718 669 579 552 718 b 42 350 167 718 42 569 b 330 -11 42 142 150 5 l 292 -108 l 292 -155 l 339 -155 b 438 -198 408 -155 438 -167 b 352 -247 438 -229 408 -247 b 267 -239 323 -247 282 -242 l 267 -308 b 369 -317 285 -313 330 -318 b 528 -197 457 -316 528 -274 b 382 -88 528 -127 471 -90 l 416 -9 b 661 202 546 8 642 92 l 545 202 b 370 90 525 136 459 90 b 163 314 243 90 163 179 l 163 321 z "},"ḝ":{"ha":711,"x_min":0,"x_max":0,"o":"m 494 1010 b 361 873 494 928 438 873 b 228 1010 283 873 228 928 l 142 1010 b 361 800 142 887 227 800 b 579 1010 495 800 579 887 z m 164 413 b 359 615 172 530 249 615 b 547 413 471 615 545 531 z m 669 321 l 669 366 b 361 718 669 579 552 718 b 42 350 167 718 42 569 b 330 -11 42 142 150 5 l 292 -108 l 292 -155 l 339 -155 b 438 -198 408 -155 438 -167 b 352 -247 438 -229 408 -247 b 267 -239 323 -247 282 -242 l 267 -308 b 369 -317 285 -313 330 -318 b 528 -197 457 -316 528 -274 b 382 -88 528 -127 471 -90 l 416 -9 b 661 202 546 8 642 92 l 545 202 b 370 90 525 136 459 90 b 163 314 243 90 163 179 l 163 321 z "},"ę":{"ha":711,"x_min":0,"x_max":0,"o":"m 479 -279 b 557 -268 515 -279 545 -274 l 557 -188 b 503 -194 541 -191 522 -194 b 425 -129 460 -194 425 -172 b 528 16 425 -79 467 -32 b 661 202 586 62 646 118 l 545 202 b 370 90 525 136 459 90 b 163 314 243 90 163 179 l 163 321 l 669 321 l 669 366 b 361 718 669 579 552 718 b 42 350 167 718 42 569 b 367 -12 42 128 165 -12 b 414 -7 385 -12 401 -11 l 414 -10 b 327 -157 357 -55 327 -105 b 479 -279 327 -231 392 -279 z m 359 615 b 547 413 471 615 545 531 l 164 413 b 359 615 172 530 249 615 z "},"f":{"ha":422,"x_min":0,"x_max":0,"o":"m 115 0 l 233 0 l 233 608 l 376 608 l 376 705 l 232 705 l 232 783 b 326 887 232 853 262 887 b 380 883 346 887 366 885 l 380 979 b 308 984 363 981 334 984 b 115 784 178 984 115 920 l 115 705 l 16 705 l 16 608 l 115 608 z "},"ḟ":{"ha":415,"x_min":0,"x_max":0,"o":"m 115 0 l 233 0 l 233 608 l 376 608 l 376 705 l 232 705 l 232 783 b 326 887 232 853 262 887 b 380 883 346 887 366 885 l 380 979 b 308 984 363 981 334 984 b 115 784 178 984 115 920 l 115 705 l 16 705 l 16 608 l 115 608 z m 242 1053 b 324 1135 288 1053 324 1090 b 242 1217 324 1181 288 1217 b 160 1135 197 1217 160 1181 b 242 1053 160 1090 197 1053 z "},"g":{"ha":763,"x_min":0,"x_max":0,"o":"m 363 98 b 163 355 242 98 163 197 b 363 614 163 513 242 614 b 568 355 486 614 568 511 b 363 98 568 200 486 98 z m 368 -266 b 686 14 562 -266 686 -154 l 686 705 l 574 705 l 574 587 l 572 587 b 342 718 525 669 442 718 b 42 355 160 718 42 576 b 340 -5 42 136 160 -5 b 566 121 439 -5 522 45 l 568 121 l 568 10 b 372 -165 568 -95 494 -165 b 191 -58 284 -165 214 -123 l 70 -58 b 368 -266 90 -178 212 -266 z "},"ǵ":{"ha":763,"x_min":0,"x_max":0,"o":"m 363 98 b 163 355 242 98 163 197 b 363 614 163 513 242 614 b 568 355 486 614 568 511 b 363 98 568 200 486 98 z m 368 -266 b 686 14 562 -266 686 -154 l 686 705 l 574 705 l 574 587 l 572 587 b 342 718 525 669 442 718 b 42 355 160 718 42 576 b 340 -5 42 136 160 -5 b 566 121 439 -5 522 45 l 568 121 l 568 10 b 372 -165 568 -95 494 -165 b 191 -58 284 -165 214 -123 l 70 -58 b 368 -266 90 -178 212 -266 z m 418 807 l 585 1010 l 458 1010 l 315 807 z "},"ǧ":{"ha":763,"x_min":0,"x_max":0,"o":"m 363 98 b 163 355 242 98 163 197 b 363 614 163 513 242 614 b 568 355 486 614 568 511 b 363 98 568 200 486 98 z m 368 -266 b 686 14 562 -266 686 -154 l 686 705 l 574 705 l 574 587 l 572 587 b 342 718 525 669 442 718 b 42 355 160 718 42 576 b 340 -5 42 136 160 -5 b 566 121 439 -5 522 45 l 568 121 l 568 10 b 372 -165 568 -95 494 -165 b 191 -58 284 -165 214 -123 l 70 -58 b 368 -266 90 -178 212 -266 z m 410 807 l 595 1010 l 484 1010 l 367 878 l 363 878 l 245 1010 l 135 1010 l 319 807 z "},"ĝ":{"ha":763,"x_min":0,"x_max":0,"o":"m 363 98 b 163 355 242 98 163 197 b 363 614 163 513 242 614 b 568 355 486 614 568 511 b 363 98 568 200 486 98 z m 368 -266 b 686 14 562 -266 686 -154 l 686 705 l 574 705 l 574 587 l 572 587 b 342 718 525 669 442 718 b 42 355 160 718 42 576 b 340 -5 42 136 160 -5 b 566 121 439 -5 522 45 l 568 121 l 568 10 b 372 -165 568 -95 494 -165 b 191 -58 284 -165 214 -123 l 70 -58 b 368 -266 90 -178 212 -266 z m 410 1010 l 319 1010 l 135 807 l 245 807 l 363 937 l 367 937 l 484 807 l 595 807 z "},"ğ":{"ha":763,"x_min":0,"x_max":0,"o":"m 363 98 b 163 355 242 98 163 197 b 363 614 163 513 242 614 b 568 355 486 614 568 511 b 363 98 568 200 486 98 z m 368 -266 b 686 14 562 -266 686 -154 l 686 705 l 574 705 l 574 587 l 572 587 b 342 718 525 669 442 718 b 42 355 160 718 42 576 b 340 -5 42 136 160 -5 b 566 121 439 -5 522 45 l 568 121 l 568 10 b 372 -165 568 -95 494 -165 b 191 -58 284 -165 214 -123 l 70 -58 b 368 -266 90 -178 212 -266 z m 146 1010 b 364 800 146 887 230 800 b 583 1010 498 800 583 887 l 497 1010 b 364 873 497 928 441 873 b 231 1010 287 873 231 928 z "},"ḡ":{"ha":763,"x_min":0,"x_max":0,"o":"m 363 98 b 163 355 242 98 163 197 b 363 614 163 513 242 614 b 568 355 486 614 568 511 b 363 98 568 200 486 98 z m 368 -266 b 686 14 562 -266 686 -154 l 686 705 l 574 705 l 574 587 l 572 587 b 342 718 525 669 442 718 b 42 355 160 718 42 576 b 340 -5 42 136 160 -5 b 566 121 439 -5 522 45 l 568 121 l 568 10 b 372 -165 568 -95 494 -165 b 191 -58 284 -165 214 -123 l 70 -58 b 368 -266 90 -178 212 -266 z m 559 929 l 170 929 l 170 850 l 559 850 z "},"ġ":{"ha":763,"x_min":0,"x_max":0,"o":"m 363 98 b 163 355 242 98 163 197 b 363 614 163 513 242 614 b 568 355 486 614 568 511 b 363 98 568 200 486 98 z m 368 -266 b 686 14 562 -266 686 -154 l 686 705 l 574 705 l 574 587 l 572 587 b 342 718 525 669 442 718 b 42 355 160 718 42 576 b 340 -5 42 136 160 -5 b 566 121 439 -5 522 45 l 568 121 l 568 10 b 372 -165 568 -95 494 -165 b 191 -58 284 -165 214 -123 l 70 -58 b 368 -266 90 -178 212 -266 z m 365 814 b 449 899 411 814 449 852 b 365 983 449 945 411 983 b 281 899 319 983 281 945 b 365 814 281 852 319 814 z "},"ģ":{"ha":763,"x_min":0,"x_max":0,"o":"m 363 98 b 163 355 242 98 163 197 b 363 614 163 513 242 614 b 568 355 486 614 568 511 b 363 98 568 200 486 98 z m 368 -266 b 686 14 562 -266 686 -154 l 686 705 l 574 705 l 574 587 l 572 587 b 342 718 525 669 442 718 b 42 355 160 718 42 576 b 340 -5 42 136 160 -5 b 566 121 439 -5 522 45 l 568 121 l 568 10 b 372 -165 568 -95 494 -165 b 191 -58 284 -165 214 -123 l 70 -58 b 368 -266 90 -178 212 -266 z m 384 1035 l 293 791 l 396 791 l 469 1035 z "},"h":{"ha":749,"x_min":0,"x_max":0,"o":"m 83 0 l 201 0 l 201 411 b 391 613 201 533 273 613 b 557 434 501 613 557 546 l 557 0 l 675 0 l 675 456 b 427 718 675 613 582 718 b 203 593 320 718 243 671 l 201 593 l 201 979 l 83 979 z "},"ḧ":{"ha":749,"x_min":0,"x_max":0,"o":"m 83 0 l 201 0 l 201 411 b 391 613 201 533 273 613 b 557 434 501 613 557 546 l 557 0 l 675 0 l 675 456 b 427 718 675 613 582 718 b 203 593 320 718 243 671 l 201 593 l 201 979 l 83 979 z m 16 1088 b 91 1162 57 1088 91 1121 b 16 1237 91 1204 57 1237 b -58 1162 -24 1237 -58 1204 b 16 1088 -58 1121 -24 1088 z m 269 1088 b 343 1162 309 1088 343 1121 b 269 1237 343 1204 309 1237 b 194 1162 228 1237 194 1204 b 269 1088 194 1121 228 1088 z "},"ȟ":{"ha":749,"x_min":0,"x_max":0,"o":"m 83 0 l 201 0 l 201 411 b 391 613 201 533 273 613 b 557 434 501 613 557 546 l 557 0 l 675 0 l 675 456 b 427 718 675 613 582 718 b 203 593 320 718 243 671 l 201 593 l 201 979 l 83 979 z m 97 1051 l 188 1051 l 380 1253 l 267 1253 l 144 1123 l 140 1123 l 18 1253 l -95 1253 z "},"ĥ":{"ha":749,"x_min":0,"x_max":0,"o":"m 83 0 l 201 0 l 201 411 b 391 613 201 533 273 613 b 557 434 501 613 557 546 l 557 0 l 675 0 l 675 456 b 427 718 675 613 582 718 b 203 593 320 718 243 671 l 201 593 l 201 979 l 83 979 z m 97 1246 l -95 1044 l 18 1044 l 140 1175 l 144 1175 l 267 1044 l 380 1044 l 188 1246 z "},"ḥ":{"ha":749,"x_min":0,"x_max":0,"o":"m 83 0 l 201 0 l 201 411 b 391 613 201 533 273 613 b 557 434 501 613 557 546 l 557 0 l 675 0 l 675 456 b 427 718 675 613 582 718 b 203 593 320 718 243 671 l 201 593 l 201 979 l 83 979 z m 381 -264 b 463 -182 427 -264 463 -227 b 381 -100 463 -136 427 -100 b 299 -182 336 -100 299 -136 b 381 -264 299 -227 336 -264 z "},"ḣ":{"ha":749,"x_min":0,"x_max":0,"o":"m 83 0 l 201 0 l 201 411 b 391 613 201 533 273 613 b 557 434 501 613 557 546 l 557 0 l 675 0 l 675 456 b 427 718 675 613 582 718 b 203 593 320 718 243 671 l 201 593 l 201 979 l 83 979 z m 142 1075 b 224 1157 188 1075 224 1112 b 142 1239 224 1202 188 1239 b 60 1157 97 1239 60 1202 b 142 1075 60 1112 97 1075 z "},"ḫ":{"ha":749,"x_min":0,"x_max":0,"o":"m 83 0 l 201 0 l 201 411 b 391 613 201 533 273 613 b 557 434 501 613 557 546 l 557 0 l 675 0 l 675 456 b 427 718 675 613 582 718 b 203 593 320 718 243 671 l 201 593 l 201 979 l 83 979 z m 163 -68 b 381 -275 172 -179 251 -275 b 599 -68 511 -275 590 -179 l 513 -68 b 381 -199 505 -150 452 -199 b 250 -68 310 -199 258 -150 z "},"ḩ":{"ha":749,"x_min":0,"x_max":0,"o":"m 201 593 l 201 979 l 83 979 l 83 0 l 115 0 l 72 -108 l 72 -155 l 119 -155 b 218 -198 189 -155 218 -167 b 132 -247 218 -229 189 -247 b 47 -239 104 -247 62 -242 l 47 -308 b 149 -317 65 -313 110 -318 b 308 -197 237 -316 308 -274 b 163 -88 308 -127 251 -90 l 201 0 l 201 5 l 201 411 b 391 613 201 533 273 613 b 557 434 501 613 557 546 l 557 0 l 675 0 l 675 456 b 427 718 675 613 582 718 b 203 593 320 718 243 671 z "},"ħ":{"ha":749,"x_min":0,"x_max":0,"o":"m 201 593 l 201 827 l 374 827 l 374 909 l 201 909 l 201 979 l 83 979 l 83 909 l 9 909 l 9 827 l 83 827 l 83 0 l 201 0 l 201 411 b 391 613 201 533 273 613 b 557 434 501 613 557 546 l 557 0 l 675 0 l 675 456 b 427 718 675 613 582 718 b 203 593 320 718 243 671 z "},"ẖ":{"ha":749,"x_min":0,"x_max":0,"o":"m 83 0 l 201 0 l 201 411 b 391 613 201 533 273 613 b 557 434 501 613 557 546 l 557 0 l 675 0 l 675 456 b 427 718 675 613 582 718 b 203 593 320 718 243 671 l 201 593 l 201 979 l 83 979 z m 596 -147 l 166 -147 l 166 -226 l 596 -226 z "},"i":{"ha":283,"x_min":0,"x_max":0,"o":"m 83 0 l 201 0 l 201 705 l 83 705 z m 142 824 b 216 897 182 824 216 857 b 142 970 216 938 182 970 b 68 897 102 970 68 938 b 142 824 68 857 102 824 z "},"ì":{"ha":283,"x_min":0,"x_max":0,"o":"m 83 0 l 201 0 l 201 705 l 83 705 z m 185 807 l 43 1010 l -85 1010 l 82 807 z "},"ȉ":{"ha":283,"x_min":0,"x_max":0,"o":"m 83 0 l 201 0 l 201 705 l 83 705 z m 81 807 l -52 1010 l -178 1010 l -14 807 z m 295 807 l 162 1010 l 37 1010 l 201 807 z "},"í":{"ha":283,"x_min":0,"x_max":0,"o":"m 83 0 l 201 0 l 201 705 l 83 705 z m 195 807 l 362 1010 l 235 1010 l 92 807 z "},"î":{"ha":283,"x_min":0,"x_max":0,"o":"m 83 0 l 201 0 l 201 705 l 83 705 z m 187 1010 l 96 1010 l -88 807 l 22 807 l 140 937 l 144 937 l 261 807 l 372 807 z "},"ǐ":{"ha":283,"x_min":0,"x_max":0,"o":"m 83 0 l 201 0 l 201 705 l 83 705 z m 187 807 l 372 1010 l 261 1010 l 144 878 l 140 878 l 22 1010 l -88 1010 l 96 807 z "},"ï":{"ha":283,"x_min":0,"x_max":0,"o":"m 83 0 l 201 0 l 201 705 l 83 705 z m 16 816 b 90 890 56 816 90 849 b 16 965 90 932 56 965 b -59 890 -25 965 -59 932 b 16 816 -59 849 -25 816 z m 268 816 b 342 890 309 816 342 849 b 268 965 342 932 309 965 b 193 890 227 965 193 932 b 268 816 193 849 227 816 z "},"ḯ":{"ha":283,"x_min":0,"x_max":0,"o":"m 83 0 l 201 0 l 201 705 l 83 705 z m 81 1012 l 177 1012 l 334 1213 l 222 1213 z m 16 783 b 90 857 56 783 90 816 b 16 932 90 899 56 932 b -59 857 -25 932 -59 899 b 16 783 -59 816 -25 783 z m 268 783 b 342 857 309 783 342 816 b 268 932 342 899 309 932 b 193 857 227 932 193 899 b 268 783 193 816 227 783 z "},"ĭ":{"ha":283,"x_min":0,"x_max":0,"o":"m 83 0 l 201 0 l 201 705 l 83 705 z m -77 1010 b 141 800 -77 887 7 800 b 359 1010 275 800 359 887 l 274 1010 b 141 873 274 928 218 873 b 8 1010 64 873 8 928 z "},"ị":{"ha":283,"x_min":0,"x_max":0,"o":"m 83 0 l 201 0 l 201 705 l 83 705 z m 142 824 b 216 897 182 824 216 857 b 142 970 216 938 182 970 b 68 897 102 970 68 938 b 142 824 68 857 102 824 z m 142 -264 b 224 -182 187 -264 224 -227 b 142 -100 224 -136 187 -100 b 60 -182 96 -100 60 -136 b 142 -264 60 -227 96 -264 z "},"ȋ":{"ha":283,"x_min":0,"x_max":0,"o":"m 83 0 l 201 0 l 201 705 l 83 705 z m -77 807 l 9 807 b 142 943 9 890 64 943 b 275 807 219 943 275 890 l 360 807 b 142 1017 360 932 276 1017 b -77 807 7 1017 -77 932 z "},"ī":{"ha":283,"x_min":0,"x_max":0,"o":"m 83 0 l 201 0 l 201 705 l 83 705 z m 307 929 l -24 929 l -24 850 l 307 850 z "},"ḭ":{"ha":283,"x_min":0,"x_max":0,"o":"m 83 0 l 201 0 l 201 705 l 83 705 z m 142 824 b 216 897 182 824 216 857 b 142 970 216 938 182 970 b 68 897 102 970 68 938 b 142 824 68 857 102 824 z m 231 -233 b 358 -60 304 -233 358 -168 l 278 -60 b 231 -157 278 -125 260 -157 b 54 -54 180 -157 150 -54 b -75 -227 -23 -54 -75 -115 l 5 -227 b 54 -130 3 -163 22 -130 b 231 -233 107 -130 141 -233 z "},"ỉ":{"ha":283,"x_min":0,"x_max":0,"o":"m 83 0 l 201 0 l 201 705 l 83 705 z m 41 943 b 111 959 71 956 87 959 b 171 907 144 959 171 936 b 109 836 171 873 151 850 l 150 779 b 260 912 216 803 260 855 b 132 1031 260 984 210 1031 b 41 1014 96 1031 71 1026 z "},"ĩ":{"ha":283,"x_min":0,"x_max":0,"o":"m 83 0 l 201 0 l 201 705 l 83 705 z m 233 812 b 361 986 307 812 361 878 l 281 986 b 234 889 281 921 262 889 b 57 992 183 889 153 992 b -72 819 -20 992 -72 930 l 8 819 b 56 916 5 882 25 916 b 233 812 110 916 144 812 z "},"į":{"ha":283,"x_min":0,"x_max":0,"o":"m 142 817 b 216 890 182 817 216 850 b 142 964 216 931 182 964 b 68 890 102 964 68 931 b 142 817 68 850 102 817 z m 83 -3 b -8 -156 22 -47 -8 -104 b 144 -279 -8 -231 57 -279 b 222 -268 180 -279 210 -274 l 222 -188 b 168 -194 206 -191 187 -194 b 90 -130 125 -194 90 -174 b 193 0 90 -79 125 -45 l 201 5 l 201 705 l 83 705 z "},"j":{"ha":283,"x_min":0,"x_max":0,"o":"m 201 705 l 83 705 l 83 -36 b -22 -144 83 -115 55 -144 b -40 -144 -22 -144 -39 -144 l -40 -242 b -18 -243 -39 -243 -20 -243 b 201 -35 133 -243 201 -178 z m 142 824 b 216 897 182 824 216 857 b 142 970 216 938 182 970 b 68 897 102 970 68 938 b 142 824 68 857 102 824 z "},"ĵ":{"ha":283,"x_min":0,"x_max":0,"o":"m 201 705 l 83 705 l 83 -36 b -22 -144 83 -115 55 -144 b -40 -144 -22 -144 -39 -144 l -40 -242 b -18 -243 -39 -243 -20 -243 b 201 -35 133 -243 201 -178 z m 186 1010 l 96 1010 l -89 807 l 22 807 l 139 937 l 143 937 l 260 807 l 371 807 z "},"k":{"ha":674,"x_min":0,"x_max":0,"o":"m 201 392 l 201 392 l 201 979 l 83 979 l 83 0 l 201 0 l 201 266 l 267 328 l 528 0 l 665 0 l 350 401 l 656 705 l 513 705 z "},"ḱ":{"ha":674,"x_min":0,"x_max":0,"o":"m 201 392 l 201 392 l 201 979 l 83 979 l 83 0 l 201 0 l 201 266 l 267 328 l 528 0 l 665 0 l 350 401 l 656 705 l 513 705 z m 203 1058 l 379 1254 l 248 1254 l 98 1058 z "},"ǩ":{"ha":674,"x_min":0,"x_max":0,"o":"m 201 392 l 201 392 l 201 979 l 83 979 l 83 0 l 201 0 l 201 266 l 267 328 l 528 0 l 665 0 l 350 401 l 656 705 l 513 705 z m 96 1051 l 187 1051 l 379 1253 l 267 1253 l 144 1123 l 140 1123 l 17 1253 l -96 1253 z "},"ḳ":{"ha":674,"x_min":0,"x_max":0,"o":"m 201 392 l 201 392 l 201 979 l 83 979 l 83 0 l 201 0 l 201 266 l 267 328 l 528 0 l 665 0 l 350 401 l 656 705 l 513 705 z m 364 -264 b 446 -182 410 -264 446 -227 b 364 -100 446 -136 410 -100 b 282 -182 319 -100 282 -136 b 364 -264 282 -227 319 -264 z "},"ḵ":{"ha":674,"x_min":0,"x_max":0,"o":"m 201 392 l 201 392 l 201 979 l 83 979 l 83 0 l 201 0 l 201 266 l 267 328 l 528 0 l 665 0 l 350 401 l 656 705 l 513 705 z m 579 -147 l 149 -147 l 149 -226 l 579 -226 z "},"ķ":{"ha":674,"x_min":0,"x_max":0,"o":"m 201 392 l 201 392 l 201 979 l 83 979 l 83 0 l 201 0 l 201 266 l 267 328 l 528 0 l 665 0 l 350 401 l 656 705 l 513 705 z m 345 -330 l 436 -86 l 333 -86 l 260 -330 z "},"l":{"ha":283,"x_min":0,"x_max":0,"o":"m 83 0 l 201 0 l 201 979 l 83 979 z "},"ĺ":{"ha":283,"x_min":0,"x_max":0,"o":"m 83 0 l 201 0 l 201 979 l 83 979 z m 203 1058 l 379 1254 l 248 1254 l 98 1058 z "},"ḽ":{"ha":283,"x_min":0,"x_max":0,"o":"m 83 0 l 201 0 l 201 979 l 83 979 z m 96 -86 l -96 -288 l 17 -288 l 140 -158 l 144 -158 l 267 -288 l 379 -288 l 187 -86 z "},"ḷ":{"ha":283,"x_min":0,"x_max":0,"o":"m 83 0 l 201 0 l 201 979 l 83 979 z m 142 -264 b 224 -182 187 -264 224 -227 b 142 -100 224 -136 187 -100 b 60 -182 96 -100 60 -136 b 142 -264 60 -227 96 -264 z "},"ḹ":{"ha":283,"x_min":0,"x_max":0,"o":"m 83 0 l 201 0 l 201 979 l 83 979 z m 142 -264 b 224 -182 187 -264 224 -227 b 142 -100 224 -136 187 -100 b 60 -182 96 -100 60 -136 b 142 -264 60 -227 96 -264 z m 357 1187 l -73 1187 l -73 1108 l 357 1108 z "},"ḻ":{"ha":283,"x_min":0,"x_max":0,"o":"m 83 0 l 201 0 l 201 979 l 83 979 z m 357 -147 l -73 -147 l -73 -226 l 357 -226 z "},"ļ":{"ha":283,"x_min":0,"x_max":0,"o":"m 83 0 l 201 0 l 201 979 l 83 979 z m 123 -330 l 214 -86 l 111 -86 l 37 -330 z "},"ľ":{"ha":387,"x_min":0,"x_max":0,"o":"m 300 984 l 300 665 l 374 665 l 394 984 z m 83 0 l 201 0 l 201 979 l 83 979 z "},"ł":{"ha":301,"x_min":0,"x_max":0,"o":"m 292 652 l 210 613 l 210 979 l 92 979 l 92 555 l 9 516 l 9 420 l 92 460 l 92 0 l 210 0 l 210 517 l 292 557 z "},"m":{"ha":1116,"x_min":0,"x_max":0,"o":"m 77 0 l 195 0 l 195 442 b 356 613 195 540 262 613 b 500 473 444 613 500 557 l 500 0 l 618 0 l 618 448 b 778 613 618 544 684 613 b 924 460 871 613 924 556 l 924 0 l 1042 0 l 1042 487 b 812 718 1042 627 952 718 b 591 583 713 718 631 667 l 589 583 b 391 718 558 669 487 718 b 191 593 296 718 224 667 l 188 593 l 188 705 l 77 705 z "},"ḿ":{"ha":1116,"x_min":0,"x_max":0,"o":"m 77 0 l 195 0 l 195 442 b 356 613 195 540 262 613 b 500 473 444 613 500 557 l 500 0 l 618 0 l 618 448 b 778 613 618 544 684 613 b 924 460 871 613 924 556 l 924 0 l 1042 0 l 1042 487 b 812 718 1042 627 952 718 b 591 583 713 718 631 667 l 589 583 b 391 718 558 669 487 718 b 191 593 296 718 224 667 l 188 593 l 188 705 l 77 705 z m 613 807 l 780 1010 l 652 1010 l 510 807 z "},"ṁ":{"ha":1116,"x_min":0,"x_max":0,"o":"m 77 0 l 195 0 l 195 442 b 356 613 195 540 262 613 b 500 473 444 613 500 557 l 500 0 l 618 0 l 618 448 b 778 613 618 544 684 613 b 924 460 871 613 924 556 l 924 0 l 1042 0 l 1042 487 b 812 718 1042 627 952 718 b 591 583 713 718 631 667 l 589 583 b 391 718 558 669 487 718 b 191 593 296 718 224 667 l 188 593 l 188 705 l 77 705 z m 559 814 b 644 899 606 814 644 852 b 559 983 644 945 606 983 b 475 899 513 983 475 945 b 559 814 475 852 513 814 z "},"ṃ":{"ha":1116,"x_min":0,"x_max":0,"o":"m 77 0 l 195 0 l 195 442 b 356 613 195 540 262 613 b 500 473 444 613 500 557 l 500 0 l 618 0 l 618 448 b 778 613 618 544 684 613 b 924 460 871 613 924 556 l 924 0 l 1042 0 l 1042 487 b 812 718 1042 627 952 718 b 591 583 713 718 631 667 l 589 583 b 391 718 558 669 487 718 b 191 593 296 718 224 667 l 188 593 l 188 705 l 77 705 z m 559 -264 b 642 -182 605 -264 642 -227 b 559 -100 642 -136 605 -100 b 477 -182 514 -100 477 -136 b 559 -264 477 -227 514 -264 z "},"n":{"ha":732,"x_min":0,"x_max":0,"o":"m 77 0 l 195 0 l 195 415 b 378 613 195 534 267 613 b 541 437 487 613 541 551 l 541 0 l 659 0 l 659 458 b 414 718 659 618 569 718 b 191 593 305 718 230 669 l 188 593 l 188 705 l 77 705 z "},"ǹ":{"ha":732,"x_min":0,"x_max":0,"o":"m 77 0 l 195 0 l 195 415 b 378 613 195 534 267 613 b 541 437 487 613 541 551 l 541 0 l 659 0 l 659 458 b 414 718 659 618 569 718 b 191 593 305 718 230 669 l 188 593 l 188 705 l 77 705 z m 411 807 l 269 1010 l 141 1010 l 308 807 z "},"ń":{"ha":732,"x_min":0,"x_max":0,"o":"m 77 0 l 195 0 l 195 415 b 378 613 195 534 267 613 b 541 437 487 613 541 551 l 541 0 l 659 0 l 659 458 b 414 718 659 618 569 718 b 191 593 305 718 230 669 l 188 593 l 188 705 l 77 705 z m 421 807 l 588 1010 l 460 1010 l 318 807 z "},"ñ":{"ha":732,"x_min":0,"x_max":0,"o":"m 77 0 l 195 0 l 195 415 b 378 613 195 534 267 613 b 541 437 487 613 541 551 l 541 0 l 659 0 l 659 458 b 414 718 659 618 569 718 b 191 593 305 718 230 669 l 188 593 l 188 705 l 77 705 z m 459 812 b 587 986 533 812 587 878 l 507 986 b 460 889 507 921 488 889 b 283 992 409 889 378 992 b 154 819 205 992 154 930 l 234 819 b 282 916 231 882 251 916 b 459 812 336 916 370 812 z "},"ṇ":{"ha":732,"x_min":0,"x_max":0,"o":"m 77 0 l 195 0 l 195 415 b 378 613 195 534 267 613 b 541 437 487 613 541 551 l 541 0 l 659 0 l 659 458 b 414 718 659 618 569 718 b 191 593 305 718 230 669 l 188 593 l 188 705 l 77 705 z m 374 -264 b 456 -182 419 -264 456 -227 b 374 -100 456 -136 419 -100 b 292 -182 328 -100 292 -136 b 374 -264 292 -227 328 -264 z "},"ṅ":{"ha":732,"x_min":0,"x_max":0,"o":"m 77 0 l 195 0 l 195 415 b 378 613 195 534 267 613 b 541 437 487 613 541 551 l 541 0 l 659 0 l 659 458 b 414 718 659 618 569 718 b 191 593 305 718 230 669 l 188 593 l 188 705 l 77 705 z m 368 814 b 452 899 414 814 452 852 b 368 983 452 945 414 983 b 283 899 321 983 283 945 b 368 814 283 852 321 814 z "},"ň":{"ha":732,"x_min":0,"x_max":0,"o":"m 77 0 l 195 0 l 195 415 b 378 613 195 534 267 613 b 541 437 487 613 541 551 l 541 0 l 659 0 l 659 458 b 414 718 659 618 569 718 b 191 593 305 718 230 669 l 188 593 l 188 705 l 77 705 z m 413 807 l 597 1010 l 487 1010 l 370 878 l 366 878 l 248 1010 l 138 1010 l 322 807 z "},"ṋ":{"ha":732,"x_min":0,"x_max":0,"o":"m 77 0 l 195 0 l 195 415 b 378 613 195 534 267 613 b 541 437 487 613 541 551 l 541 0 l 659 0 l 659 458 b 414 718 659 618 569 718 b 191 593 305 718 230 669 l 188 593 l 188 705 l 77 705 z m 328 -86 l 136 -288 l 249 -288 l 372 -158 l 376 -158 l 498 -288 l 611 -288 l 419 -86 z "},"ṉ":{"ha":732,"x_min":0,"x_max":0,"o":"m 77 0 l 195 0 l 195 415 b 378 613 195 534 267 613 b 541 437 487 613 541 551 l 541 0 l 659 0 l 659 458 b 414 718 659 618 569 718 b 191 593 305 718 230 669 l 188 593 l 188 705 l 77 705 z m 589 -147 l 159 -147 l 159 -226 l 589 -226 z "},"ņ":{"ha":732,"x_min":0,"x_max":0,"o":"m 77 0 l 195 0 l 195 415 b 378 613 195 534 267 613 b 541 437 487 613 541 551 l 541 0 l 659 0 l 659 458 b 414 718 659 618 569 718 b 191 593 305 718 230 669 l 188 593 l 188 705 l 77 705 z m 355 -330 l 446 -86 l 342 -86 l 269 -330 z "},"o":{"ha":737,"x_min":0,"x_max":0,"o":"m 369 -12 b 695 353 564 -12 695 128 b 369 718 695 578 564 718 b 42 353 174 718 42 578 b 369 -12 42 128 174 -12 z m 369 92 b 162 353 244 92 162 186 b 369 614 162 519 244 614 b 575 353 494 614 575 519 b 369 92 575 186 494 92 z "},"ö":{"ha":737,"x_min":0,"x_max":0,"o":"m 369 -12 b 695 353 564 -12 695 128 b 369 718 695 578 564 718 b 42 353 174 718 42 578 b 369 -12 42 128 174 -12 z m 369 92 b 162 353 244 92 162 186 b 369 614 162 519 244 614 b 575 353 494 614 575 519 b 369 92 575 186 494 92 z m 243 816 b 317 890 283 816 317 849 b 243 965 317 932 283 965 b 168 890 202 965 168 932 b 243 816 168 849 202 816 z m 495 816 b 570 890 536 816 570 849 b 495 965 570 932 536 965 b 420 890 454 965 420 932 b 495 816 420 849 454 816 z "},"ø":{"ha":737,"x_min":0,"x_max":0,"o":"m 534 524 b 575 353 560 481 575 423 b 369 92 575 186 494 92 b 262 121 328 92 292 102 z m 205 180 b 162 353 177 222 162 281 b 369 614 162 519 244 614 b 479 582 411 614 448 603 z m 647 691 l 582 732 l 541 672 b 369 718 492 702 434 718 b 42 353 174 718 42 578 b 137 81 42 237 77 144 l 96 20 l 163 -25 l 201 31 b 369 -12 249 3 305 -12 b 695 353 564 -12 695 128 b 602 623 695 468 661 560 z "},"õ":{"ha":737,"x_min":0,"x_max":0,"o":"m 369 -12 b 695 353 564 -12 695 128 b 369 718 695 578 564 718 b 42 353 174 718 42 578 b 369 -12 42 128 174 -12 z m 369 92 b 162 353 244 92 162 186 b 369 614 162 519 244 614 b 575 353 494 614 575 519 b 369 92 575 186 494 92 z m 460 812 b 588 986 534 812 588 878 l 508 986 b 461 889 508 921 490 889 b 284 992 410 889 380 992 b 155 819 207 992 155 930 l 235 819 b 283 916 233 882 252 916 b 460 812 337 916 371 812 z "},"ó":{"ha":737,"x_min":0,"x_max":0,"o":"m 369 -12 b 695 353 564 -12 695 128 b 369 718 695 578 564 718 b 42 353 174 718 42 578 b 369 -12 42 128 174 -12 z m 369 92 b 162 353 244 92 162 186 b 369 614 162 519 244 614 b 575 353 494 614 575 519 b 369 92 575 186 494 92 z m 422 807 l 589 1010 l 462 1010 l 319 807 z "},"ô":{"ha":737,"x_min":0,"x_max":0,"o":"m 369 -12 b 695 353 564 -12 695 128 b 369 718 695 578 564 718 b 42 353 174 718 42 578 b 369 -12 42 128 174 -12 z m 369 92 b 162 353 244 92 162 186 b 369 614 162 519 244 614 b 575 353 494 614 575 519 b 369 92 575 186 494 92 z m 414 1010 l 323 1010 l 139 807 l 250 807 l 367 937 l 371 937 l 488 807 l 599 807 z "},"ò":{"ha":737,"x_min":0,"x_max":0,"o":"m 369 -12 b 695 353 564 -12 695 128 b 369 718 695 578 564 718 b 42 353 174 718 42 578 b 369 -12 42 128 174 -12 z m 369 92 b 162 353 244 92 162 186 b 369 614 162 519 244 614 b 575 353 494 614 575 519 b 369 92 575 186 494 92 z m 412 807 l 270 1010 l 142 1010 l 309 807 z "},"ổ":{"ha":737,"x_min":0,"x_max":0,"o":"m 369 -12 b 695 353 564 -12 695 128 b 369 718 695 578 564 718 b 42 353 174 718 42 578 b 369 -12 42 128 174 -12 z m 369 92 b 162 353 244 92 162 186 b 369 614 162 519 244 614 b 575 353 494 614 575 519 b 369 92 575 186 494 92 z m 428 1132 b 495 1145 450 1141 471 1145 b 553 1097 528 1145 553 1124 b 493 1029 553 1068 530 1042 l 540 981 b 633 1103 599 1000 633 1044 b 503 1213 633 1170 582 1213 b 428 1198 476 1213 444 1206 z m 415 997 l 323 997 l 138 807 l 250 807 l 367 928 l 371 928 l 488 807 l 600 807 z "},"ồ":{"ha":737,"x_min":0,"x_max":0,"o":"m 369 -12 b 695 353 564 -12 695 128 b 369 718 695 578 564 718 b 42 353 174 718 42 578 b 369 -12 42 128 174 -12 z m 369 92 b 162 353 244 92 162 186 b 369 614 162 519 244 614 b 575 353 494 614 575 519 b 369 92 575 186 494 92 z m 415 997 l 323 997 l 138 807 l 250 807 l 367 928 l 371 928 l 488 807 l 600 807 z m 634 1012 l 492 1213 l 381 1213 l 538 1012 z "},"ọ":{"ha":737,"x_min":0,"x_max":0,"o":"m 369 -12 b 695 353 564 -12 695 128 b 369 718 695 578 564 718 b 42 353 174 718 42 578 b 369 -12 42 128 174 -12 z m 369 92 b 162 353 244 92 162 186 b 369 614 162 519 244 614 b 575 353 494 614 575 519 b 369 92 575 186 494 92 z m 369 -264 b 451 -182 414 -264 451 -227 b 369 -100 451 -136 414 -100 b 287 -182 323 -100 287 -136 b 369 -264 287 -227 323 -264 z "},"ȍ":{"ha":737,"x_min":0,"x_max":0,"o":"m 369 -12 b 695 353 564 -12 695 128 b 369 718 695 578 564 718 b 42 353 174 718 42 578 b 369 -12 42 128 174 -12 z m 369 92 b 162 353 244 92 162 186 b 369 614 162 519 244 614 b 575 353 494 614 575 519 b 369 92 575 186 494 92 z m 308 807 l 175 1010 l 50 1010 l 214 807 z m 522 807 l 389 1010 l 264 1010 l 428 807 z "},"ṍ":{"ha":737,"x_min":0,"x_max":0,"o":"m 369 -12 b 695 353 564 -12 695 128 b 369 718 695 578 564 718 b 42 353 174 718 42 578 b 369 -12 42 128 174 -12 z m 369 92 b 162 353 244 92 162 186 b 369 614 162 519 244 614 b 575 353 494 614 575 519 b 369 92 575 186 494 92 z m 312 1025 l 408 1025 l 555 1213 l 444 1213 z m 460 777 b 588 951 534 777 588 842 l 508 951 b 461 854 508 886 490 854 b 284 957 410 854 380 957 b 155 784 207 957 155 895 l 235 784 b 283 880 233 847 252 880 b 460 777 337 880 371 777 z "},"ṓ":{"ha":737,"x_min":0,"x_max":0,"o":"m 369 -12 b 695 353 564 -12 695 128 b 369 718 695 578 564 718 b 42 353 174 718 42 578 b 369 -12 42 128 174 -12 z m 369 92 b 162 353 244 92 162 186 b 369 614 162 519 244 614 b 575 353 494 614 575 519 b 369 92 575 186 494 92 z m 308 1012 l 404 1012 l 561 1213 l 450 1213 z m 564 901 l 174 901 l 174 823 l 564 823 z "},"ỗ":{"ha":737,"x_min":0,"x_max":0,"o":"m 369 -12 b 695 353 564 -12 695 128 b 369 718 695 578 564 718 b 42 353 174 718 42 578 b 369 -12 42 128 174 -12 z m 369 92 b 162 353 244 92 162 186 b 369 614 162 519 244 614 b 575 353 494 614 575 519 b 369 92 575 186 494 92 z m 415 997 l 323 997 l 138 807 l 250 807 l 367 928 l 371 928 l 488 807 l 600 807 z m 458 1045 b 585 1208 532 1045 585 1109 l 506 1208 b 458 1120 506 1151 488 1120 b 281 1221 404 1120 370 1221 b 153 1058 204 1221 153 1160 l 232 1058 b 281 1146 229 1114 250 1146 b 458 1045 334 1146 368 1045 z "},"ȱ":{"ha":737,"x_min":0,"x_max":0,"o":"m 369 -12 b 695 353 564 -12 695 128 b 369 718 695 578 564 718 b 42 353 174 718 42 578 b 369 -12 42 128 174 -12 z m 369 92 b 162 353 244 92 162 186 b 369 614 162 519 244 614 b 575 353 494 614 575 519 b 369 92 575 186 494 92 z m 369 794 b 452 877 414 794 452 831 b 369 960 452 922 414 960 b 286 877 324 960 286 922 b 369 794 286 831 324 794 z m 564 1111 l 174 1111 l 174 1032 l 564 1032 z "},"ṑ":{"ha":737,"x_min":0,"x_max":0,"o":"m 369 -12 b 695 353 564 -12 695 128 b 369 718 695 578 564 718 b 42 353 174 718 42 578 b 369 -12 42 128 174 -12 z m 369 92 b 162 353 244 92 162 186 b 369 614 162 519 244 614 b 575 353 494 614 575 519 b 369 92 575 186 494 92 z m 430 1012 l 288 1213 l 177 1213 l 334 1012 z m 564 901 l 174 901 l 174 823 l 564 823 z "}}}
